<?xml version="1.0" encoding="utf-8"?>
<!-- Generator: Adobe Illustrator 18.0.0, SVG Export Plug-In . SVG Version: 6.00 Build 0)  -->
<!DOCTYPE svg PUBLIC "-//W3C//DTD SVG 1.1//EN" "http://www.w3.org/Graphics/SVG/1.1/DTD/svg11.dtd">
<svg version="1.1" id="Layer_1" xmlns="http://www.w3.org/2000/svg" xmlns:xlink="http://www.w3.org/1999/xlink" x="0px" y="0px"
	 viewBox="0 0 132 142" enable-background="new 0 0 132 142" xml:space="preserve" preserveAspectRatio="xMidYMid">
<g>
	<path opacity="0.2" fill="#221F1F" d="M123.2,70.5l-4.1-0.9l6.4-8.2c1.8-2.3,2.2-5.3,1.1-8c-1-2.6-3.4-4.4-6.1-4.9l-15.8-3.3
		c-0.6-0.7-1.2-1.3-1.8-2c1.1-1.3,1.7-3,1.9-4.9c0.2-2.3-0.4-4.6-1.7-6.5l3.3-4c2.9-3.6,2.7-8.8-0.5-12.1C96.8,6.5,86.1,5,80.5,4.9
		l-0.2,0c-4.7,0-8.6,3.6-9,8.3L71,17c-3.5,0.2-6.5,2.8-7.5,6.4c-0.6,2.2-0.4,4.2-0.2,5.7c-10.4,0.9-20,4.9-27.3,11.4
		c-0.4-0.1-0.7-0.1-1.1-0.1c-0.1,0-0.3,0-0.4,0c-0.1,0-0.2,0-0.3,0c-0.6-0.1-1.2-0.2-1.8-0.2c-1,0-2,0.2-3,0.6
		c-1.1-2.5-3.2-3.6-4.6-4.2C23.1,35,20.9,34,18.5,34c0,0,0,0,0,0c-2.3,0-4.5,1-5.9,2.7c-0.3,0.4-0.6,0.8-0.8,1.2
		c-0.1,0-0.1,0.1-0.2,0.1c-1.8,1.5-2.8,3.7-2.6,6.2c0.1,1.9,0.9,3.7,2.1,5.2c-0.7,0.8-1.3,1.8-1.7,2.8C9,53.4,8.9,54.5,9,55.7
		c-0.7,0.3-1.2,0.6-1.7,1C5,57,2.9,58.4,1.6,60.3c-1.3,2-1.6,4.3-1,6.4c0.1,0.5,0.3,0.9,0.6,1.4c0,0.1,0,0.1,0,0.2
		c0.2,2.3,1.6,4.4,3.8,5.6c1.1,0.6,2.4,1,3.6,1.1c0,0.7,0.1,1.4,0.4,2.1l6.8,17.7c-3,1.2-5.2,4.2-5.2,7.7v30.3
		c0,4.6,3.7,8.3,8.3,8.3h99.5c4.6,0,8.3-3.7,8.3-8.3v-30.3c0-3.6-2.3-6.7-5.6-7.8l2.8-10.3c1.4-0.7,2.5-2.1,2.9-3.8l0.7-3.5
		C128.2,74.1,126.2,71.1,123.2,70.5z"/>
	<path fill="#FFFFFF" d="M127.2,66.5l-4.1-0.9l6.4-8.2c1.8-2.3,2.2-5.3,1.1-8c-1-2.6-3.4-4.4-6.1-4.9l-15.8-3.3
		c-0.6-0.7-1.2-1.3-1.8-2c1.1-1.3,1.7-3,1.9-4.9c0.2-2.3-0.4-4.6-1.7-6.5l3.3-4c2.9-3.6,2.7-8.8-0.5-12.1C100.8,2.5,90.1,1,84.5,0.9
		l-0.2,0c-4.7,0-8.6,3.6-9,8.3L75,13c-3.5,0.2-6.5,2.8-7.5,6.4c-0.6,2.2-0.4,4.2-0.2,5.7c-10.4,0.9-20,4.9-27.3,11.4
		c-0.4-0.1-0.7-0.1-1.1-0.1c-0.1,0-0.3,0-0.4,0c-0.1,0-0.2,0-0.3,0c-0.6-0.1-1.2-0.2-1.8-0.2c-1,0-2,0.2-3,0.6
		c-1.1-2.5-3.2-3.6-4.6-4.2C27.1,31,24.9,30,22.5,30c0,0,0,0,0,0c-2.3,0-4.5,1-5.9,2.7c-0.3,0.4-0.6,0.8-0.8,1.2
		c-0.1,0-0.1,0.1-0.2,0.1c-1.8,1.5-2.8,3.7-2.6,6.2c0.1,1.9,0.9,3.7,2.1,5.2c-0.7,0.8-1.3,1.8-1.7,2.8c-0.4,1.1-0.5,2.3-0.4,3.4
		c-0.7,0.3-1.2,0.6-1.7,1C9,53,6.9,54.4,5.6,56.3c-1.3,2-1.6,4.3-1,6.4c0.1,0.5,0.3,0.9,0.6,1.4c0,0.1,0,0.1,0,0.2
		c0.2,2.3,1.6,4.4,3.8,5.6c1.1,0.6,2.4,1,3.6,1.1c0,0.7,0.1,1.4,0.4,2.1l6.8,17.7c-3,1.2-5.2,4.2-5.2,7.7v30.3
		c0,4.6,3.7,8.3,8.3,8.3h99.5c4.6,0,8.3-3.7,8.3-8.3V98.5c0-3.6-2.3-6.7-5.6-7.8l2.8-10.3c1.4-0.7,2.5-2.1,2.9-3.8l0.7-3.5
		C132.2,70.1,130.2,67.1,127.2,66.5z"/>
	<g>
		<path fill="#C92128" d="M89.7,43.1c-1.9-0.3,4.2,4.9,4.9,6.6l5,12.3l5,12.3c0.7,1.7,3,2.1,4.2,0.6l8.2-10.5l8.2-10.5
			c1.2-1.5,0.3-3.7-1.6-3.9L89.7,43.1z"/>
		<path fill="#C92128" d="M19.2,52.7c-1.3-1.5-0.5-3.9,1.5-4.2l13.9-2.6l13.9-2.6c2-0.4,3.6,1.5,2.9,3.4l-4.7,13.3L42,73.2
			c-0.7,1.9-4.3,1-5.6-0.6L19.2,52.7z"/>
		<path fill="#C92128" d="M108.7,83.6c1.2-2-3.6-4.2-5.9-4.2l-17,6.7l-16.2-0.5c-2.3-0.1-3.8,2.4-2.7,4.4l7.7,14.3l7.7,14.3
			c1.1,2,4,2.1,5.2,0.1L108.7,83.6z"/>
		<path fill="#C92128" d="M48.4,84c1.9,0.8,2.5-0.4,4.6-0.4c4.7,0,3.7,5.4,6.7,2.3l10.8-0.3c2.3-0.1,3.8,2.4,2.7,4.4l-7.7,14.3
			l-7.7,14.3c-1.1,2-4,2.1-5.2,0.2L35,83.1c0.1,0,6.5,1.8,6.6,1.8C43.6,84.9,46.7,84.6,48.4,84z"/>
		<path fill="#C92128" d="M31.5,67.7C31.5,89.3,49.7,104,72,104s40.5-14.8,40.4-36.4c0-21.7-18.2-37.1-40.5-37.1S31.5,46,31.5,67.7z
			"/>
		<g>
			<path opacity="0.2" fill="#221F1F" d="M50.7,80.7c0,0,14.2,27.9,40.2,1.6l-27.3-3.9L50.7,80.7z"/>
			<path fill="#4F0B0B" d="M97.9,42c-1-0.1-1.9-0.3-2.7-0.8c0,0-0.1,0-0.1,0c-2.5,0.1-4.4-0.9-6.6-1.6c-0.8-0.3-1.7-0.5-2.6-0.6l0,0
				c-0.3,0.1-1-0.1-1.3-0.2c-3.6-0.3-7.2-0.2-10.8,0.1c-2.2,0.2-4.4,0.4-6.6,0.7c-0.1,0-0.1,0-0.2,0c0,0-0.1,0-0.1,0
				c-0.5,0.1-0.9,0.1-1.4,0.2c-1.1,0.2-2.2,0.3-3.3,0.5c-2.6,0.4-5.1,0.7-7.7,1c-0.6,0.1-1.1,0.1-1.7,0.2c-0.2,0-1.2,0.1-1.2,0.1
				c-1.6,0.2-2.9,0.3-4.7-0.1c-0.3,0.1-0.7,0.2-1,0.2c4.2,15.4,2.7,20.5,2,36.3c16.2,16.2,31.9,15.6,47.5,0
				C94.9,62.4,93.6,57.3,97.9,42z"/>
			<path d="M78.6,52.1L78.6,52.1c-0.1-0.1-7.6-3.7-4.8,3.1c1.1,2.3,2.2,4.9,2.2,6c0,2.3-1.8,4.1-4,4.2c-2.3,0-4.1-1.8-4.2-4
				c0-1.1,0.9-3.5,1.9-5.8c2.9-7.1-4.1-3.6-4.7-3.3c-3.8,2.3-6.4,6.4-6.3,11c0.1,7,6.2,12.6,13.5,12.5c7.3-0.1,13.2-5.9,13.1-12.9
				C85.2,58.3,82.5,54.3,78.6,52.1z"/>
			<path fill="#4F0B0B" d="M48.5,75.8c0.2,0.2,5.8-10.8,23.5-6.3c0,0,10.2-4.1,22.1,1.5l0.2,4.9l-28.1,7.2L57.4,81l-8.9-4.9"/>
			<g>
				<defs>
					<path id="SVGID_176_" d="M71.8,89c-7.4,0-15-3.8-22.6-11.2c0.1-2.8,0.3-5.3,0.4-7.5c0.6-10.1,1-15.8-2.3-27.9
						c7.3-4.5,15.7-6.8,24.3-6.8c8.6,0,17.2,2.4,24.9,6.9c-3.4,12.5-3.1,18.5-2.5,29c0.1,1.9,0.2,4,0.3,6.3
						C86.8,85.2,79.2,89,71.8,89z"/>
				</defs>
				<clipPath id="SVGID_2_">
					<use xlink:href="#SVGID_176_"  overflow="visible"/>
				</clipPath>
				<path clip-path="url(#SVGID_2_)" fill="#F3A9C2" d="M47.3,80.7C53.2,69,64.6,69.3,70.5,70.5c-8.4,6.7-8.1,12.7-8.1,12.7
					c1.9-5.2,5.8-8.4,8.6-10.1c1.6-0.9,2.9-1.5,3.2-1.6l0.1,0.1l0-0.1l0,0c15.8-5.4,25.8,5.3,26.1,5.7c-0.3-0.3-0.9-1-16.6,16.2
					C67.5,111.2,37.2,100.7,47.3,80.7z"/>
				<g clip-path="url(#SVGID_2_)">
					<path fill="#EC7198" d="M46.1,76.6c-0.9,0.6-1.3,1.7-1.4,2.7c-0.1,1.1,0.1,2.1,0.3,3.1c0.5,2.3,0.9,4.7,2.2,6.7
						c1.2,2,3,3.5,4.9,4.8c4.9,3.3,10.7,5.3,16.6,5.7c5.9,0.3,11.9-1,17.1-3.8c2.9-1.6,5.5-3.5,7.9-5.7c1.4-1.2,2.7-2.4,3.7-4
						c1-1.5,1.5-3.4,1.1-5.2c-0.6-2.8-1.4-7.5-4.3-7.7c-3.5-0.3-7.8,3.4-10.6,5.2c-3.4,2.1-6.8,4.4-10.3,6.3
						c-2.1,1.1-4.4,1.9-6.7,1.6c-4.8-0.5-7.9-5.2-12-7.3c-1.1-0.5-2.2-0.9-3.4-1.2c-1.2-0.2-2.5,0-3.6-0.4
						C47.1,77.4,46.3,76.5,46.1,76.6z"/>
				</g>
			</g>
			<g>
				<path fill="#FFFFFF" d="M46,41.9c16.7-7.2,36.6-6.9,51.9,0l0,0c-0.1,0.3-1.9,0.2-2.2,0.2c-1.1,0-2.3,0.1-3.4,0.4
					c-1.6,0.4-2.6,1.1-3.6,2c-0.9,0.8-1.9,1.7-3.4,1.8c-3.7,0.2-4.6-3.1-8.2-3c-3.6,0.2-4,3.5-7.7,3.5c-3.7,0-4-3.4-7.6-3.4
					c-3.6,0-4.6,3.3-8.3,3C49.8,46.2,49.6,42.2,46,41.9z"/>
			</g>
			<path fill="#C5C6C8" d="M85.3,46.4c1.6-0.1,2.6-1,3.4-1.8c0.2-0.2,0.5-0.4,0.7-0.6c-0.1,0-0.2,0-0.2,0c-1.2,0.2-2.2,1.1-3.4,1.1
				c-1,0-2-0.5-2.9-1c-2.4-1.3-5.3-2-7.8-0.9c-1,0.4-1.9,1.1-3,1.6c-1.6,0.7-3.5,0.6-5.1-0.3c-1-0.5-1.9-1.4-2.9-1.8
				c-1.6-0.7-3.5-0.3-5.2,0.4c-1.6,0.7-3.2,1.6-4.9,2c-1.2,0.3-2.5,0.3-3.6-0.1c0.8,0.8,1.7,1.4,3,1.5c3.7,0.3,4.7-3.1,8.3-3
				c3.6,0,3.9,3.4,7.6,3.4c3.7,0,4.2-3.3,7.7-3.5C80.6,43.3,81.6,46.6,85.3,46.4z"/>
		</g>
		<path opacity="0.2" fill="#221F1F" d="M102.6,84.3c0.4-1.1,0.9-2.2,1.8-3c1.4-1.3,3.6-1.6,5.5-1.2s3.6,1.5,5.2,2.5
			c1.3,0.8,2.6,1.6,3.9,2.4l-10.7-0.5c-0.6,1.1-1.3,2.2-2,3.3l-8.1,13.4C98.9,95.4,100.4,89.7,102.6,84.3z"/>
		<g>
			<path d="M35.1,83.2c0,0-0.1-0.1,0-0.1c-0.5-1.1-1-2.3-1.5-3.4c2.7,2.7,4.9,6.1,7,9.3c2.4,3.7,5.2,7.5,9,9.8
				c5.8,3.4,10.1-0.9,15.7-1.9c4.1-0.7,8.6,0.3,11.9,2.9c3.6,2.8,4.2,8,5.9,12c0.6,1.5,1.6,3,3.1,3.5c1.2,0.4,2.4,0.2,3.5-0.3
				l-2.2,3.7c-1.2,2-4.1,1.9-5.2-0.1l-7.7-14.3l-0.2-0.4c-0.8,0-1.6,0.1-2.4,0.1c-2.1,0-4.1-0.1-6.1-0.4l-0.4,0.7l-7.7,14.3
				c-1.1,2-4,2.1-5.2,0.2L35.1,83.4C35.1,83.3,35.1,83.3,35.1,83.2z"/>
		</g>
		<g>
			<path d="M79.5,25.7l1.4-16c0.2-1.8,1.7-3.2,3.5-3.2c4.7,0.1,13.8,1.4,21.5,9.3c1.2,1.3,1.3,3.2,0.2,4.6L96,32.7L79.5,25.7z"/>
			<path fill="#C5C6C8" d="M99.8,28c-5.2-6.5-14.4-7.9-19.8-8.2l-0.5,5.8l1.9,0.8L96,32.6L99.8,28z"/>
			<g>
				<path d="M75.5,18.6c0.7,0,1.3,0.3,1.9,0.7c2.6,2,3.4,5.8,6.1,7.6c2.5,1.6,5.7,1,8.7,0.6c2.4-0.3,5-0.3,7.2,0.7
					c2.2,1,4,3.3,3.8,5.7c-0.2,3-3,3-4.8,1.4c-3.4-3-7.8-4.7-12.1-5.8c-2.3-0.6-4.6-1.1-7-1.4c-1.7-0.3-4.6-0.1-5.8-1.5
					c-0.4-0.5-0.5-1.2-0.6-1.8c-0.2-1.3-0.4-2.6-0.1-3.8S74.2,18.6,75.5,18.6z"/>
			</g>
		</g>
		<g>
			<g>
				<g>
					<path fill="#FFC700" d="M49.8,61.8c0.2-1.2-0.1-2.6-0.9-3.6c-0.7-0.8-1.8-1.2-2.9-1c0.1-0.4,0.3-0.8,0.3-1.2
						c0.1-0.6,0.2-1.2,0-1.7c-0.2-0.6-0.8-1.1-1.4-1.3c-0.8-0.3-1.6-0.3-2.4-0.2c0-0.3-0.1-0.5-0.2-0.8c-0.5-1-1.7-1.3-2.7-1.2
						c-1.2,0.1-2.9,0.9-4,2.1c-1-1.5-3.8-1.2-5,0c-0.6,0.6-1,1.4-1.1,2.3c-0.1,0.7-0.1,1.4,0.1,2c-1.9-0.9-4.4-0.2-5.2,2.1
						c-0.2-0.1-0.3-0.2-0.5-0.2c-0.8-0.2-1.7,0.1-2.3,0.6c-1.8,1.4-1.6,3.4-0.8,5.2c-0.4,0-0.7,0.1-1,0.3c-1,0.6-1.5,2.1-1.2,3.4
						c0.3,1.3,1.3,2.3,2.4,2.8l7.8,1.7c-0.4,0.4-0.7,0.8-0.9,1.3c-0.3,0.7-0.4,1.5,0,2.2c0.4,0.7,1.2,1,1.9,1.2
						c1.3,0.3,2.6,0.3,3.9,0c1.2-0.3,2.4-0.9,2.9-2c0.1-0.2,0.1-0.4,0.2-0.5c2.3,0.4,4.6-0.2,6.5-1.5c0.8-0.6,1.5-1.2,2.3-1.7
						c0.9-0.6,2-0.9,2.9-1.6c1.1-1,1.5-2.6,1.8-4.1c0.3-1.4-0.4-2.2-1.3-2.2C49.3,63.3,49.6,62.6,49.8,61.8z M29.1,73.5
						c0-0.1,0-0.3,0-0.4l0.1,0C29.2,73.3,29.2,73.4,29.1,73.5z"/>
				</g>
				<g opacity="0.3">
					<path d="M48.8,58.3c-0.7-0.8-1.8-1.2-2.9-1c0.1-0.4,0.3-0.8,0.3-1.2c0-0.2,0.1-0.4,0.1-0.6c-0.7-1.1-1.9-1.8-3.2-1.6
						c-1.6,0.2-2.7,1.8-2.7,3.3c-0.5-0.7-0.9-1.3-1.7-1.5c-0.5-0.1-1,0.1-1.5,0.3c-1,0.6-1.6,1.8-1.4,3c0,0.1,0,0.2,0.1,0.3
						c-0.1,0-0.2-0.1-0.3-0.1c-0.8-0.4-1.8-0.4-2.4,0.2c-0.6,0.5-0.8,1.4-0.7,2.1c0.1,0.8,0.6,1.4,1,2.1c0.4,0.5,0.9,1.1,1.5,1.4
						c0.6,0.3,1.4,0.4,2,0l3,3.2c0.1-0.2,0.2-0.3,0.2-0.5c0,1.6,0.4,3.3,1.5,4.6c0.4,0.5,1,0.9,1.6,1.2c0.6-0.5,1.2-1,1.9-1.4
						c0.9-0.6,2-0.9,2.9-1.6c0.2-0.1,0.3-0.3,0.4-0.5c0,0,0-0.1,0-0.1c0,0,0.1,0,0.1,0c0.7-1,1.1-2.3,1.4-3.6
						c0.3-1.4-0.4-2.2-1.3-2.2c0.4-0.6,0.8-1.4,0.9-2.1C50,60.6,49.6,59.2,48.8,58.3z"/>
				</g>
				<polygon fill="#E2E3E4" points="18.2,71.1 33.9,63.7 41.5,103.4 31.3,105.3 				"/>
				<polygon fill="#E2E3E4" points="51.3,64.8 33.9,63.7 41.5,103.4 51.8,101.4 				"/>
				<g>
					<defs>
						<polygon id="SVGID_178_" points="33.9,63.7 18.2,71.1 31.3,105.3 41.5,103.4 51.8,101.4 51.3,64.8 						"/>
					</defs>
					<clipPath id="SVGID_4_">
						<use xlink:href="#SVGID_178_"  overflow="visible"/>
					</clipPath>
					<polygon clip-path="url(#SVGID_4_)" fill="#E95450" points="21.2,66.1 35,107.6 37.8,107.7 25.3,63.5 					"/>
					<polygon clip-path="url(#SVGID_4_)" fill="#E95450" points="47.3,61.1 49.9,104.8 47.6,105.2 42.5,60.2 					"/>
					<polygon clip-path="url(#SVGID_4_)" fill="#E95450" points="44,108.4 41,108.9 29.6,60.3 36.7,58.9 					"/>
				</g>
			</g>
			<polygon opacity="0.2" points="51.3,64.8 33.9,63.7 41.5,103.4 51.8,101.4 			"/>
		</g>
		<g>
			<g>
				<polygon fill="#84AE7E" points="101,100.8 115.7,103.9 124.3,72.5 104.4,68.3 				"/>
				<polygon fill="#C9C8C7" points="110.2,69.8 105.8,54.9 91.4,52.1 91,54 104.4,56.3 108.7,71.2 				"/>
				<polygon fill="#E1E1E1" points="103.8,71.2 101.9,70.8 102.7,67 126.1,72 125.3,75.5 				"/>
			</g>
			<path fill="#E1E1E1" d="M114,72c-0.2-0.1-1.1,0.4-1.3,0.5c-0.9,0.4-1.9,0.9-2.7,1.6c-2,1.6-2.9,4-1.4,6.4c1.9,2.9,3,6.3,2.3,9.8
				c-0.5,2.4-2,6.5-4.9,6.8c-3.6,0.5-0.1,0.5-0.1,0.5l5.3,1.2c1.1-1.7,2-3.6,2.8-5.5c1.3-3.5,2.3-7.4-0.1-10.7c-0.8-1-1.9-2-1.8-3.3
				c0-0.7,0.4-1.3,0.9-1.8c1.2-1.1,2.8-1.8,4.3-2.3c0.5-0.2,2.2-1,2.7-0.7C120,74.3,114,72,114,72z"/>
			<polygon opacity="0.2" points="104.1,71.2 103.9,73.4 123.2,76.5 123.6,75 			"/>
		</g>
		<path fill="#631E44" d="M122.4,131.5H22.9c-1.5,0-2.7-1.2-2.7-2.7V98.5c0-1.5,1.2-2.7,2.7-2.7h99.5c1.5,0,2.7,1.2,2.7,2.7v30.3
			C125.1,130.3,123.9,131.5,122.4,131.5z"/>
		<g>
			<path fill="#FFFFFF" d="M54.7,107.6c0-3.2,2.4-5.3,5.7-5.3c2.7,0,4.1,1.6,4.7,3l-2.7,1.2c-0.3-0.8-1.1-1.5-2-1.5
				c-1.5,0-2.5,1.1-2.5,2.6c0,1.4,1,2.6,2.5,2.6c0.9,0,1.7-0.7,2-1.5L65,110c-0.6,1.4-2,3-4.7,3C57.1,113,54.7,110.8,54.7,107.6z"/>
			<path fill="#FFFFFF" d="M66,112.8v-10.3h3.1v10.3H66z"/>
			<path fill="#FFFFFF" d="M77.7,112.8l-3.8-5.2v5.2h-3.1v-10.3H74l3.6,4.9v-4.9h3.1v10.3H77.7z"/>
			<path fill="#FFFFFF" d="M82.3,112.8v-10.3h7.8v2.7h-4.7v1H90v2.7h-4.6v1.1h4.7v2.7H82.3z"/>
		</g>
		<g>
			<path fill="#FFFFFF" d="M51.9,124.8l-1.8-2.8h-1.4v2.8h-0.9v-7h2.8c1.3,0,2.2,0.8,2.2,2.1c0,1.3-0.9,1.9-1.8,2l1.9,2.8H51.9z
				 M51.9,120c0-0.8-0.6-1.3-1.4-1.3h-1.8v2.7h1.8C51.4,121.3,51.9,120.7,51.9,120z"/>
			<path fill="#FFFFFF" d="M54.2,124.8v-7h0.9v7H54.2z"/>
			<path fill="#FFFFFF" d="M56.3,123.8l0.5-0.7c0.5,0.5,1.2,1,2.2,1c1.2,0,1.6-0.7,1.6-1.2c0-1.8-4.1-0.8-4.1-3.3
				c0-1.1,1-1.9,2.4-1.9c1.1,0,1.9,0.4,2.5,1l-0.5,0.6c-0.5-0.6-1.3-0.8-2-0.8c-0.8,0-1.4,0.4-1.4,1.1c0,1.6,4.1,0.7,4.1,3.3
				c0,1-0.7,2-2.6,2C57.7,124.9,56.9,124.5,56.3,123.8z"/>
			<path fill="#FFFFFF" d="M67.7,124.8l-0.6-1.5h-3.5l-0.6,1.5h-1l2.8-7h1.1l2.8,7H67.7z M65.3,118.8l-1.5,3.7h3L65.3,118.8z"/>
			<path fill="#FFFFFF" d="M69.6,124.8v-7H72c2.2,0,3.6,1.5,3.6,3.5c0,2-1.4,3.5-3.6,3.5H69.6z M74.6,121.3c0-1.5-1-2.7-2.7-2.7
				h-1.5v5.4H72C73.7,124,74.6,122.8,74.6,121.3z"/>
			<path fill="#FFFFFF" d="M81.5,124.8l-0.6-1.5h-3.5l-0.6,1.5h-1l2.8-7h1.1l2.8,7H81.5z M79.1,118.8l-1.5,3.7h3L79.1,118.8z"/>
			<path fill="#FFFFFF" d="M87.4,124.8l-1.8-2.8h-1.4v2.8h-0.9v-7h2.8c1.3,0,2.2,0.8,2.2,2.1c0,1.3-0.9,1.9-1.8,2l1.9,2.8H87.4z
				 M87.4,120c0-0.8-0.6-1.3-1.4-1.3h-1.8v2.7h1.8C86.9,121.3,87.4,120.7,87.4,120z"/>
			<path fill="#FFFFFF" d="M89.7,124.8v-7h0.9v7H89.7z"/>
			<path fill="#FFFFFF" d="M97.2,124.8l-0.6-1.5h-3.5l-0.6,1.5h-1l2.8-7h1.1l2.8,7H97.2z M94.8,118.8l-1.5,3.7h3L94.8,118.8z"/>
		</g>
		<g>
			<path fill="#FFC700" d="M25.2,37.5c-0.4-1.1-1.5-1.9-2.7-1.9c-0.6,0-1.3,0.2-1.7,0.7c-0.4,0.5-0.5,1.1-0.5,1.7c0,0.1,0,0.1,0,0.2
				c-0.2,0-0.5-0.1-0.7,0c-0.2,0-0.4,0.1-0.5,0.2c-0.4,0.3-0.5,0.9-0.5,1.4c0.1,0.9,0.5,1.7,1.1,2.3c0.2,0.2,0.9,0.5,1.1,0.7
				c0.4,0.6-0.2,1.3,0.7,1.6c0.4,0.2,0.9,0.1,1.3-0.1c0.4-0.2,0.8-0.4,1.2-0.8c0.3-0.3,0.5-1.4,0.8-1.6c0.7-0.5,1.9,0.4,2.8-0.3
				c0.7-0.5,1-1.4,0.8-2.3c-0.3-1.1-1.4-1.5-2.4-1.8C25.7,37.6,25.4,37.5,25.2,37.5z"/>
		</g>
		<g>
			<path fill="#FFC700" d="M13.4,58.2c-1.1-0.3-2.4,0.2-3.1,1.2c-0.3,0.5-0.5,1.2-0.3,1.8c0.2,0.6,0.6,1,1.1,1.4
				c0.1,0,0.1,0.1,0.2,0.1c-0.2,0.2-0.3,0.4-0.4,0.6c-0.1,0.2-0.1,0.4-0.1,0.6c0,0.5,0.5,0.9,0.9,1.2c0.7,0.4,1.7,0.5,2.5,0.3
				c0.3-0.1,0.9-0.5,1.2-0.5c0.7,0,0.9,0.9,1.7,0.3c0.4-0.2,0.6-0.7,0.7-1.1c0.1-0.5,0.1-1,0-1.4c-0.1-0.4-0.9-1.2-0.9-1.5
				c0-0.8,1.4-1.3,1.3-2.5c0-0.8-0.7-1.6-1.5-1.9c-1.1-0.4-2,0.3-2.8,1C13.8,57.8,13.6,58,13.4,58.2z"/>
		</g>
		<g>
			<path fill="#FFC700" d="M54.3,56.4c0.6,0.3,1.3,0.2,1.9-0.2c0.6-0.4,0.9-1.1,1.1-1.8c0.1-0.6,0.1-1.2-0.3-1.6
				c-0.4-0.5-1.2-0.6-1.8-0.3c0-0.2-0.1-0.3-0.1-0.5c-0.1-0.3-0.2-0.5-0.3-0.7c-0.2-0.2-0.4-0.4-0.7-0.4c-0.4,0-0.7,0.3-0.8,0.6
				c-0.1,0.2-0.1,0.3-0.1,0.5c0,0,0,0-0.1,0c-0.3-0.2-0.7-0.3-1-0.1c-0.3,0.1-0.4,0.5-0.4,0.8c0,0.2,0,0.4,0.1,0.6
				c-0.4,0.3-0.6,0.8-0.6,1.2c0,0.6,0.3,1.2,0.8,1.6c0.4,0.3,1,0.5,1.6,0.5C53.8,56.5,54.1,56.5,54.3,56.4
				C54.3,56.4,54.3,56.4,54.3,56.4z"/>
		</g>
		<g>
			<path fill="#FFC700" d="M40.4,44.3c0,0-0.1-0.1-0.1-0.1c0.1-0.2,0.1-0.4,0.1-0.6c0-0.4-0.1-0.8-0.4-1.1c-0.3-0.4-0.8-0.5-1.3-0.5
				c-0.4,0-0.8,0.1-1.1,0.3c0,0,0,0,0,0c-0.2-0.2-0.4-0.3-0.6-0.4c-0.5-0.2-1.1-0.2-1.6,0.1c-0.5,0.2-0.9,0.7-1,1.3
				c-0.1,0.4,0,0.8,0.3,1.1c0.1,0.1,0.1,0.1,0.2,0.1c0,0.1-0.1,0.1-0.1,0.2c-0.1,0.3-0.2,0.6-0.2,1c0,0.3,0.2,0.7,0.4,0.9
				c0.5,0.4,1.2,0.5,1.8,0.4c0.1,0,0.2,0,0.3,0c0.2,0.2,0.4,0.3,0.6,0.4c0.6,0.2,1.2,0.2,1.7,0c0.5-0.2,1-0.7,1.2-1.2
				C40.8,45.5,40.7,44.8,40.4,44.3z"/>
		</g>
	</g>
</g>
</svg>
