<?xml version="1.0" encoding="utf-8"?>
<!-- Generator: Adobe Illustrator 18.0.0, SVG Export Plug-In . SVG Version: 6.00 Build 0)  -->
<!DOCTYPE svg PUBLIC "-//W3C//DTD SVG 1.1//EN" "http://www.w3.org/Graphics/SVG/1.1/DTD/svg11.dtd">
<svg version="1.1" id="Layer_1" xmlns="http://www.w3.org/2000/svg" xmlns:xlink="http://www.w3.org/1999/xlink" x="0px" y="0px"
	 viewBox="0 0 132 138" enable-background="new 0 0 132 138" xml:space="preserve">
<g>
	<path opacity="0.2" fill="#221F1F" d="M117,90.9h-0.4c1.8-0.6,3.4-1.8,4.4-3.5c1.4-2.4,1.6-5.3,0.3-7.8l-4.3-8.5l0.8-7.4
		c0.1-0.1,0.3-0.2,0.4-0.4c1.3-1.4,1.8-3.5,1.2-5.4l-0.6-1.8c0.1-0.2,0.1-0.3,0.2-0.5c0.7-2.1,0-4.3-1.6-5.8l-2.1-1.9
		c1.4-0.2,2.8-0.5,4.1-1.1c7.1-3.2,10.3-11.5,7.1-18.6c-2.3-5-7.3-8.3-12.9-8.3c-1.1,0-2.2,0.1-3.3,0.4c-0.3-1.3-0.9-2.5-1.8-3.6
		C104,11.5,98.7,8.4,94,6.6c-0.1,1.6-0.5,3.1-1.3,4.4c-0.5,0.7-1,1.3-1.5,2c-0.9,1-2,1.6-3.2,2c-1.2,0.6-2.4,0.9-3.8,0.9
		c-1.4,0.1-2.6-0.2-3.8-0.9c-1.2-0.4-2.3-1.1-3.2-2c-0.1-0.1-0.3-0.3-0.4-0.4c-0.7-0.7-1.3-1.5-1.7-2.3c-0.2,0.5-0.3,1-0.4,1.5
		l-0.4,2.5c-4.2-3.6-9.6-5.6-15.1-5.6c-12.8,0-23.2,10.4-23.2,23.2c0,1.7,0.2,3.4,0.5,5c-1.3,1-2.5,2.2-3.6,3.3
		c-0.2-2.7-1-5.4-2.5-7.8c-3-4.8-8.2-7.6-13.8-7.6c-3.1,0-6.1,0.9-8.7,2.5c-3.7,2.3-6.2,5.9-7.2,10.2s-0.2,8.6,2.1,12.3
		c3,4.8,8.2,7.6,13.8,7.6h0c1.3,0,2.5-0.1,3.8-0.4l1.1,0.6l-8.3,15.1c-1.4,2.5-1.4,5.5,0.1,8c1.5,2.5,4.1,4,7,4l0.2,0l4.2-0.1
		c0.1,0.2,0.1,0.4,0.2,0.5h-2.4c-3.9,0-7.2,2.9-7.8,6.6c-2.6,1.4-4.4,4.1-4.4,7.2v30c0,4.5,3.7,8.2,8.2,8.2H117
		c4.5,0,8.2-3.7,8.2-8.2v-30C125.2,94.6,121.5,90.9,117,90.9z"/>
	<path fill="#FFFFFF" d="M121,87.3h-0.4c1.8-0.6,3.4-1.8,4.4-3.5c1.4-2.4,1.6-5.3,0.3-7.8l-4.3-8.5l0.8-7.4c0.1-0.1,0.3-0.2,0.4-0.4
		c1.3-1.4,1.8-3.5,1.2-5.4l-0.6-1.8c0.1-0.2,0.1-0.3,0.2-0.5c0.7-2.1,0-4.3-1.6-5.8l-2.1-1.9c1.4-0.2,2.8-0.5,4.1-1.1
		c7.1-3.2,10.3-11.5,7.1-18.6c-2.3-5-7.3-8.3-12.8-8.3c-1.1,0-2.2,0.1-3.3,0.4c-0.3-1.3-0.9-2.5-1.8-3.6
		C104.2,3.5,93.8,1.2,88.3,0.7c-0.3,0-0.5,0-0.8,0c-2.3,0-4.3,0.8-5.9,2.2l0,0l-12.4,3c-2-0.5-4-0.8-6.1-0.8
		c-12.8,0-23.2,10.4-23.2,23.2c0,1.7,0.2,3.4,0.5,5c-1.3,1-2.5,2.2-3.6,3.3c-0.2-2.7-1-5.4-2.5-7.8c-3-4.8-8.2-7.6-13.8-7.6
		c-3.1,0-6.1,0.9-8.7,2.5c-3.7,2.3-6.2,5.9-7.2,10.2c-1,4.3-0.2,8.6,2.1,12.3c3,4.8,8.2,7.6,13.8,7.6h0c1.3,0,2.5-0.1,3.8-0.4
		l1.1,0.6l-8.3,15.1c-1.4,2.5-1.4,5.5,0.1,8c1.5,2.5,4.1,4,7,4l0.2,0l4.2-0.1c0.1,0.2,0.1,0.4,0.2,0.5h-2.4c-3.9,0-7.2,2.9-7.8,6.6
		c-2.6,1.4-4.4,4.1-4.4,7.2v30c0,4.5,3.7,8.2,8.2,8.2H121c4.5,0,8.2-3.7,8.2-8.2v-30C129.2,91,125.5,87.3,121,87.3z"/>
	<circle fill="#9DB53A" cx="63.1" cy="27.9" r="17.6"/>
	<g>
		
			<line fill="none" stroke="#FFFFFF" stroke-width="1.5826" stroke-linecap="round" stroke-miterlimit="10" x1="54.4" y1="19.8" x2="71.8" y2="19.8"/>
		
			<line fill="none" stroke="#FFFFFF" stroke-width="1.5826" stroke-linecap="round" stroke-miterlimit="10" x1="54.4" y1="24.4" x2="71.8" y2="24.4"/>
		
			<line fill="none" stroke="#FFFFFF" stroke-width="1.5826" stroke-linecap="round" stroke-miterlimit="10" x1="54.4" y1="29" x2="71.8" y2="29"/>
	</g>
	<path fill="#C92128" d="M109.9,57.8c-0.9-1.6-4.9-4.6-5.9-3l-7.1,11l-7.1,11c-1,1.6,0.1,3.6,1.9,3.7l13.1,0.6l13.1,0.6
		c1.9,0.1,3.1-1.9,2.3-3.5L109.9,57.8z"/>
	<path fill="#C92128" d="M24.3,75.4c-2,0-3.3-2.1-2.3-3.8l6.8-12.2l6.8-12.2c1-1.7,3.4-1.8,4.5-0.1l7.2,12l7.2,12c1,1.7-2,3.9-4,3.9
		L24.3,75.4z"/>
	<path fill="#C92128" d="M107.4,80.4c1.2-1.9-3.6-4.1-5.9-4.2l-16.8,6.7l-16.1-0.4c-2.3-0.1-3.8,2.4-2.7,4.4l7.6,14.1l7.6,14.1
		c1.1,2,3.9,2.1,5.1,0.1L107.4,80.4z"/>
	<path fill="#C92128" d="M47.8,80.8c1.9,0.8,2.5-0.4,4.5-0.4c4.7,0,3.7,5.3,6.7,2.3l10.7-0.3c2.3-0.1,3.8,2.4,2.7,4.4l-7.6,14.1
		l-7.6,14.1c-1.1,2-3.9,2.1-5.1,0.2L34.5,80c0.1,0,6.4,1.8,6.5,1.8C43,81.7,46.1,81.4,47.8,80.8z"/>
	<path fill="#C92128" d="M31.1,64.7c0,21.4,18,36,40.1,35.9c22.1,0,40-14.6,40-36s-18-36.7-40.1-36.7C49,28,31.1,43.2,31.1,64.7z"/>
	<g>
		<path opacity="0.2" fill="#221F1F" d="M50.1,77.6c0,0,14,27.6,39.8,1.6l-27-3.9L50.1,77.6z"/>
		<path fill="#4F0B0B" d="M96.7,39.3c-1-0.1-1.8-0.3-2.6-0.8c0,0-0.1,0-0.1,0c-2.4,0.1-4.3-0.9-6.5-1.6c-0.8-0.3-1.7-0.5-2.6-0.6
			l0,0c-0.3,0.1-1-0.1-1.3-0.2c-3.5-0.3-7.1-0.2-10.7,0.1c-2.2,0.2-4.4,0.4-6.5,0.7c-0.1,0-0.1,0-0.2,0c0,0-0.1,0-0.1,0
			c-0.5,0.1-0.9,0.1-1.4,0.2c-1.1,0.2-2.2,0.3-3.3,0.5c-2.5,0.4-5,0.7-7.6,1c-0.5,0.1-1.1,0.1-1.6,0.2C52,38.9,51,39,51.1,39
			c-1.6,0.2-2.8,0.3-4.6-0.1c-0.3,0.1-0.7,0.2-1,0.2c4.2,15.2,2.7,20.2,2,35.9c16,16,31.5,15.4,46.9,0
			C93.7,59.5,92.5,54.4,96.7,39.3z"/>
		<path d="M77.6,49.3L77.6,49.3c-0.1-0.1-7.5-3.6-4.7,3.1c1.1,2.2,2.2,4.8,2.2,5.9c0,2.2-1.8,4.1-4,4.1c-2.2,0-4.1-1.8-4.1-4
			c0-1.1,0.9-3.5,1.8-5.7c2.8-7-4.1-3.5-4.7-3.2c-3.8,2.3-6.3,6.3-6.2,10.9C58,67.3,64,72.9,71.3,72.7c7.3-0.1,13.1-5.8,12.9-12.8
			C84.1,55.4,81.5,51.4,77.6,49.3z"/>
		<path fill="#4F0B0B" d="M47.8,72.7c0.2,0.2,5.8-10.7,23.2-6.2c0,0,10.1-4,21.8,1.4l0.2,4.9l-27.8,7.2l-8.7-2L47.8,73"/>
		<g>
			<defs>
				<path id="SVGID_180_" d="M70.9,85.8c-7.3,0-14.8-3.7-22.3-11.1c0.1-2.8,0.3-5.2,0.4-7.4c0.6-10,1-15.6-2.2-27.6
					c7.2-4.4,15.5-6.7,24.1-6.7c8.5,0,17,2.4,24.6,6.8c-3.3,12.4-3,18.3-2.5,28.7c0.1,1.9,0.2,4,0.3,6.2
					C85.7,82,78.2,85.8,70.9,85.8z"/>
			</defs>
			<clipPath id="SVGID_2_">
				<use xlink:href="#SVGID_180_"  overflow="visible"/>
			</clipPath>
			<path clip-path="url(#SVGID_2_)" fill="#F3A9C2" d="M46.7,77.6c5.8-11.6,17.1-11.2,22.9-10.1c-8.3,6.6-8,12.6-8,12.6
				c1.9-5.1,5.8-8.3,8.5-10c1.6-0.9,2.9-1.5,3.2-1.6l0.1,0.1l0-0.1l0,0C89,63,98.8,73.6,99.2,74c-0.3-0.3-0.9-1-16.4,16
				C66.6,107.7,36.7,97.4,46.7,77.6z"/>
			<g clip-path="url(#SVGID_2_)">
				<path fill="#EC7198" d="M45.5,73.5c-0.9,0.6-1.3,1.6-1.4,2.7c-0.1,1,0.1,2.1,0.3,3.1c0.5,2.3,0.9,4.6,2.1,6.6
					c1.2,1.9,2.9,3.5,4.8,4.7c4.8,3.3,10.6,5.3,16.4,5.6c5.8,0.3,11.8-1,16.9-3.7c2.8-1.5,5.4-3.5,7.9-5.6c1.4-1.2,2.7-2.4,3.6-3.9
					c0.9-1.5,1.5-3.4,1.1-5.1c-0.6-2.8-1.4-7.4-4.3-7.6c-3.5-0.3-7.8,3.4-10.5,5.1c-3.4,2.1-6.7,4.3-10.2,6.2
					c-2,1.1-4.3,1.9-6.6,1.6c-4.8-0.5-7.8-5.2-11.9-7.2c-1.1-0.5-2.2-0.9-3.4-1.2c-1.2-0.2-2.4,0-3.5-0.4
					C46.5,74.3,45.7,73.4,45.5,73.5z"/>
			</g>
		</g>
		<g>
			<path fill="#FFFFFF" d="M45.4,39.2c16.5-7.1,36.1-6.8,51.3,0l0,0c-0.1,0.3-1.9,0.2-2.2,0.2c-1.1,0-2.3,0.1-3.3,0.4
				c-1.6,0.4-2.6,1.1-3.5,2c-0.9,0.8-1.8,1.7-3.4,1.8c-3.6,0.2-4.6-3.1-8.1-2.9c-3.5,0.2-4,3.5-7.6,3.4c-3.6,0-4-3.3-7.5-3.4
				c-3.5,0-4.6,3.2-8.2,3C49.1,43.5,49,39.5,45.4,39.2z"/>
		</g>
		<path fill="#C5C6C8" d="M84.2,43.7c1.6-0.1,2.5-1,3.4-1.8c0.2-0.2,0.5-0.4,0.7-0.6c-0.1,0-0.2,0-0.2,0c-1.1,0.2-2.1,1.1-3.3,1.1
			c-1,0-2-0.5-2.9-1c-2.4-1.2-5.3-2-7.7-0.9c-1,0.4-1.9,1.1-3,1.6c-1.6,0.7-3.5,0.6-5-0.2c-1-0.5-1.9-1.4-2.9-1.8
			c-1.6-0.7-3.5-0.3-5.1,0.4c-1.6,0.7-3.2,1.6-4.9,2c-1.1,0.3-2.4,0.3-3.5-0.1c0.8,0.8,1.6,1.4,3,1.5c3.6,0.2,4.7-3,8.2-3
			c3.5,0,3.9,3.4,7.5,3.4c3.6,0,4.1-3.3,7.6-3.4C79.7,40.6,80.6,43.8,84.2,43.7z"/>
	</g>
	<path d="M101.3,81.1c0.4-1.1,0.9-2.2,1.8-3c1.4-1.3,3.5-1.6,5.4-1.2c1.9,0.4,3.5,1.4,5.2,2.5c1.3,0.8,2.6,1.6,3.8,2.4L107,81.3
		c-0.6,1.1-1.3,2.2-2,3.2l-8,13.3C97.7,92.1,99.2,86.4,101.3,81.1z"/>
	<g opacity="0.2">
		<path fill="#221F1F" d="M34.6,80.1l0-0.1c-0.5-1.1-1-2.2-1.4-3.4c2.7,2.7,4.8,6,6.9,9.2c2.4,3.6,5.1,7.5,8.9,9.7
			c5.8,3.4,10-0.9,15.6-1.9c4-0.7,8.5,0.3,11.8,2.8c3.5,2.8,4.2,8,5.8,11.9c0.6,1.5,1.5,3,3.1,3.5c1.2,0.4,2.4,0.2,3.5-0.3l-2.2,3.7
			c-1.2,1.9-4,1.9-5.1-0.1l-7.6-14.1l-0.2-0.4c-0.8,0-1.5,0.1-2.3,0.1c-2.1,0-4.1-0.1-6.1-0.4l-0.4,0.7l-7.6,14.1
			c-1.1,2-3.9,2.1-5.1,0.2l-17.3-35C34.6,80.1,34.6,80.1,34.6,80.1z"/>
	</g>
	<g>
		<path d="M81.6,24.5l2.5-15.7c0.3-1.8,1.9-3,3.7-2.9c4.7,0.4,13.5,2.4,20.5,10.7c1.1,1.3,1.1,3.3-0.1,4.6L97.3,32.6L81.6,24.5z"/>
		<path fill="#C5C6C8" d="M101.4,28.3c-4.7-6.8-13.6-8.9-18.9-9.5l-0.9,5.7l1.8,1l14,7.1L101.4,28.3z"/>
		<g>
			<path d="M78.2,17.3c0.7,0.1,1.3,0.4,1.8,0.9c2.4,2.1,2.9,6,5.5,7.9c2.4,1.8,5.6,1.4,8.5,1.3c2.4-0.1,4.9,0.1,7,1.2
				c2.1,1.2,3.7,3.5,3.4,5.9c-0.4,3-3.2,2.7-4.8,1c-3.1-3.2-7.3-5.2-11.5-6.6c-2.2-0.8-4.5-1.4-6.8-1.9c-1.7-0.4-4.5-0.4-5.6-1.9
				c-0.4-0.5-0.5-1.2-0.5-1.8c-0.1-1.3-0.2-2.6,0.2-3.8C75.8,18.2,76.9,17.1,78.2,17.3z"/>
		</g>
	</g>
	<path fill="#DBC01D" d="M121,127.8H22.6c-1.5,0-2.7-1.2-2.7-2.7v-30c0-1.5,1.2-2.7,2.7-2.7H121c1.5,0,2.7,1.2,2.7,2.7v30
		C123.6,126.6,122.4,127.8,121,127.8z"/>
	<g>
		<path fill="#FFFFFF" d="M38.3,109.3V99.1h4.5c3.2,0,5.6,1.8,5.6,5.1c0,3.2-2.4,5.1-5.6,5.1H38.3z M45.3,104.2
			c0-1.4-0.8-2.4-2.4-2.4h-1.5v4.8h1.5C44.4,106.6,45.3,105.5,45.3,104.2z"/>
		<path fill="#FFFFFF" d="M49.6,109.3V99.1h7.7v2.7h-4.6v1h4.5v2.7h-4.5v1.1h4.6v2.7H49.6z"/>
		<path fill="#FFFFFF" d="M58.6,109.3V99.1h6.2c2.1,0,3,1.4,3,2.6c0,1.3-0.7,2.1-1.7,2.3c1.1,0.2,1.9,1.2,1.9,2.5c0,1.4-1,2.8-3,2.8
			H58.6z M64.7,102.2c0-0.4-0.3-0.6-0.6-0.6h-2.4v1.2h2.4C64.4,102.8,64.7,102.6,64.7,102.2z M64.9,106.1c0-0.4-0.3-0.7-0.7-0.7
			h-2.5v1.3h2.5C64.6,106.7,64.9,106.4,64.9,106.1z"/>
		<path fill="#FFFFFF" d="M76,109.3l-0.4-1.2H72l-0.4,1.2h-3.5l3.7-10.2h3.9l3.7,10.2H76z M73.8,102.1l-1,3.3h2L73.8,102.1z"/>
		<path fill="#FFFFFF" d="M81.3,109.3v-7.5h-2.7v-2.7h8.5v2.7h-2.7v7.5H81.3z"/>
		<path fill="#FFFFFF" d="M88.2,109.3V99.1h7.7v2.7h-4.6v1h4.5v2.7h-4.5v1.1h4.6v2.7H88.2z"/>
		<path fill="#FFFFFF" d="M96.5,107.8l1.6-2.3c0.8,0.7,1.9,1.3,3.3,1.3c0.6,0,1.1-0.2,1.1-0.5c0-1-5.7,0-5.7-4
			c0-1.7,1.4-3.4,4.2-3.4c1.7,0,3.2,0.5,4.3,1.4l-1.6,2.2c-0.9-0.7-2-1-3-1c-0.6,0-0.8,0.2-0.8,0.5c0,1,5.7,0.1,5.7,3.9
			c0,2.2-1.7,3.5-4.4,3.5C99.1,109.4,97.6,108.8,96.5,107.8z"/>
	</g>
	<g>
		<path fill="#FFFFFF" d="M51.2,121.2l-1.8-2.7h-1.4v2.7h-0.9v-6.9H50c1.3,0,2.2,0.8,2.2,2.1c0,1.2-0.8,1.9-1.8,2l1.9,2.8H51.2z
			 M51.3,116.4c0-0.8-0.6-1.3-1.4-1.3h-1.8v2.6h1.8C50.7,117.7,51.3,117.1,51.3,116.4z"/>
		<path fill="#FFFFFF" d="M53.5,121.2v-6.9h0.9v6.9H53.5z"/>
		<path fill="#FFFFFF" d="M55.6,120.2l0.5-0.7c0.5,0.5,1.2,1,2.2,1c1.2,0,1.6-0.7,1.6-1.2c0-1.8-4.1-0.8-4.1-3.3
			c0-1.1,1-1.9,2.4-1.9c1.1,0,1.9,0.4,2.4,1l-0.5,0.6c-0.5-0.6-1.2-0.8-2-0.8c-0.8,0-1.4,0.4-1.4,1.1c0,1.5,4.1,0.7,4.1,3.2
			c0,1-0.7,2-2.5,2C57,121.3,56.1,120.8,55.6,120.2z"/>
		<path fill="#FFFFFF" d="M66.8,121.2l-0.6-1.5h-3.4l-0.6,1.5h-1l2.8-6.9H65l2.8,6.9H66.8z M64.5,115.2l-1.5,3.7H66L64.5,115.2z"/>
		<path fill="#FFFFFF" d="M68.7,121.2v-6.9h2.4c2.1,0,3.5,1.5,3.5,3.4c0,2-1.4,3.4-3.5,3.4H68.7z M73.7,117.7c0-1.5-0.9-2.7-2.6-2.7
			h-1.5v5.4h1.5C72.7,120.4,73.7,119.2,73.7,117.7z"/>
		<path fill="#FFFFFF" d="M80.5,121.2l-0.6-1.5h-3.4l-0.6,1.5h-1l2.8-6.9h1.1l2.8,6.9H80.5z M78.2,115.2l-1.5,3.7h2.9L78.2,115.2z"
			/>
		<path fill="#FFFFFF" d="M86.3,121.2l-1.8-2.7h-1.4v2.7h-0.9v-6.9h2.8c1.3,0,2.2,0.8,2.2,2.1c0,1.2-0.8,1.9-1.8,2l1.9,2.8H86.3z
			 M86.4,116.4c0-0.8-0.6-1.3-1.4-1.3h-1.8v2.6H85C85.8,117.7,86.4,117.1,86.4,116.4z"/>
		<path fill="#FFFFFF" d="M88.6,121.2v-6.9h0.9v6.9H88.6z"/>
		<path fill="#FFFFFF" d="M96,121.2l-0.6-1.5H92l-0.6,1.5h-1l2.8-6.9h1.1l2.8,6.9H96z M93.7,115.2l-1.5,3.7h2.9L93.7,115.2z"/>
	</g>
	<g>
		<path fill="#E2E3E4" d="M99,52.4l18.6-2.2l-9.2-8.3c-8.2,6.2-18.4,5.7-18.4,5.7"/>
		<polygon fill="#A6A8A9" points="92.5,50.6 87,48.7 110.8,48.4 113,52 		"/>
		<polygon fill="#E2E3E4" points="91.3,50.7 92.5,93.2 104.2,93.5 106.8,49.5 		"/>
		<polygon fill="#B8BABC" points="106.8,49.5 116.9,52.2 112.7,92.6 104.2,93.5 		"/>
		<polygon fill="#E2E3E4" points="91.9,72.8 90.7,80.4 93.8,80.3 		"/>
		<polygon fill="#E2E3E4" points="91.8,66.5 88.7,59.8 92.5,60.3 		"/>
		<polygon fill="#E2E3E4" points="92.4,87.7 90,88.8 93.3,89.5 		"/>
		<polygon fill="#B8BABC" points="91.6,60.3 101.3,61.3 91.5,58.5 		"/>
		<polygon fill="#B8BABC" points="92.2,80.4 97.6,80.2 92.2,81.5 		"/>
		<line fill="none" stroke="#B8BABC" stroke-width="0.1226" stroke-miterlimit="10" x1="93.8" y1="64.7" x2="100.6" y2="65.4"/>
		<line fill="none" stroke="#B8BABC" stroke-width="0.1226" stroke-miterlimit="10" x1="94.1" y1="53.1" x2="104.8" y2="52.3"/>
		<path fill="#E2E3E4" d="M105.6,69.5c0,0.1,1.2,5.7,1.2,5.7s-1.8-0.3-2.1,0.1C104.3,75.6,105.6,69.5,105.6,69.5z"/>
		<polygon fill="#B8BABC" points="106.8,75.2 101.7,74.9 106.1,76.2 		"/>
		<line fill="none" stroke="#B8BABC" stroke-width="0.1226" stroke-miterlimit="10" x1="93.3" y1="90.8" x2="103.1" y2="90.5"/>
		<line fill="none" stroke="#B8BABC" stroke-width="0.1226" stroke-miterlimit="10" x1="93.3" y1="88.6" x2="103.1" y2="88.7"/>
		<line fill="none" stroke="#B8BABC" stroke-width="0.1226" stroke-miterlimit="10" x1="93.3" y1="78.2" x2="103.8" y2="78.4"/>
		<line fill="none" stroke="#B8BABC" stroke-width="0.1226" stroke-miterlimit="10" x1="93.5" y1="71.8" x2="98.7" y2="71.7"/>
		<polygon fill="#B8BABC" points="116.9,52.2 118,55.8 116,55.4 		"/>
		<polygon fill="#B8BABC" points="115.2,68.3 115.4,75.5 114,76 		"/>
		<path fill="#B8BABC" d="M112.5,90.6c0-0.2,1.6,0,1.6,0l-1-7l-0.6,6.7"/>
		<polygon fill="#858585" points="114.7,75.7 108.9,76.4 114.4,76.3 		"/>
		<polyline fill="#858585" points="112.9,90.6 109.3,89.9 112.9,91.3 		"/>
		<polygon fill="#858585" points="116.5,55.5 112.7,54.5 116.5,56.1 		"/>
		<line fill="none" stroke="#E2E3E4" stroke-width="0.1645" stroke-miterlimit="10" x1="104.8" y1="64.8" x2="113.1" y2="65.9"/>
		<line fill="none" stroke="#E2E3E4" stroke-width="0.1645" stroke-miterlimit="10" x1="105.6" y1="54.3" x2="109.5" y2="54.6"/>
		<line fill="none" stroke="#E2E3E4" stroke-width="0.1645" stroke-miterlimit="10" x1="107" y1="83.7" x2="112.3" y2="83.5"/>
	</g>
	<path d="M50.7,92.5H24.1v-3.3c0-1.3,1-2.3,2.3-2.3h21.9c1.3,0,2.3,1,2.3,2.3V92.5z"/>
	<path fill="none" stroke="#000000" stroke-width="1.5826" stroke-miterlimit="10" d="M37.4,88c0.1-0.3-6.4-17.9-6.4-17.9l8.8-5.8"
		/>
	<path d="M39.3,68l-3-5.1l6.3-3.7c0.8-0.5,1.8-0.2,2.2,0.6l1.3,2.3c0.5,0.8,0.2,1.8-0.6,2.2L39.3,68z"/>
	
		<rect x="34.1" y="65.1" transform="matrix(0.5039 0.8638 -0.8638 0.5039 75.322 0.6876)" fill="#248DCA" width="5.9" height="1.6"/>
	<circle fill="#CC69CC" cx="20.6" cy="37.2" r="10.8"/>
	<polygon fill="#CC69CC" points="23.4,46.2 31.4,50.7 27.5,42.1 	"/>
	<polygon fill="#9DB53A" points="74.4,15.9 78.4,7.5 70,12.1 	"/>
	<circle fill="#F38420" cx="117.6" cy="30.2" r="8.5"/>
	<polygon fill="#F38420" points="110.3,31.4 105.8,37.3 113,35.1 	"/>
	<g>
		
			<line fill="none" stroke="#FFFFFF" stroke-width="1.0904" stroke-linecap="round" stroke-miterlimit="10" x1="14.6" y1="34" x2="26.6" y2="34"/>
		
			<line fill="none" stroke="#FFFFFF" stroke-width="1.0904" stroke-linecap="round" stroke-miterlimit="10" x1="14.6" y1="37.2" x2="26.6" y2="37.2"/>
		
			<line fill="none" stroke="#FFFFFF" stroke-width="1.0904" stroke-linecap="round" stroke-miterlimit="10" x1="14.6" y1="40.4" x2="26.6" y2="40.4"/>
	</g>
	<g>
		
			<line fill="none" stroke="#FFFFFF" stroke-width="0.8346" stroke-linecap="round" stroke-miterlimit="10" x1="113.4" y1="27.8" x2="122.6" y2="27.8"/>
		
			<line fill="none" stroke="#FFFFFF" stroke-width="0.8346" stroke-linecap="round" stroke-miterlimit="10" x1="113.4" y1="30.2" x2="122.6" y2="30.2"/>
		
			<line fill="none" stroke="#FFFFFF" stroke-width="0.8346" stroke-linecap="round" stroke-miterlimit="10" x1="113.4" y1="32.7" x2="122.6" y2="32.7"/>
	</g>
</g>
</svg>
