<?xml version="1.0" encoding="utf-8"?>
<!-- Generator: Adobe Illustrator 18.1.1, SVG Export Plug-In . SVG Version: 6.00 Build 0)  -->
<svg version="1.1" id="Layer_1" xmlns="http://www.w3.org/2000/svg" xmlns:xlink="http://www.w3.org/1999/xlink" x="0px" y="0px"
	 viewBox="0 0 310.2 350" enable-background="new 0 0 310.2 350" xml:space="preserve">
<g>
	<path opacity="0.2" fill="#221F1F" d="M276.3,228.8c-0.8-2.9-2.6-5.5-5.3-7.1l-1.4-0.9c-0.7-0.4-1-1.1-1-1.8s0.4-1.4,1-1.8l1.4-0.9
		c3.5-2.2,5.7-6,5.7-10.2v-24.7c0-4.2-2.2-8-5.7-10.2l-1.4-0.9c-0.7-0.4-1.1-1.1-1.1-1.8c0-0.8,0.4-1.4,1-1.8l1.4-0.9
		c3.5-2.2,5.7-6,5.7-10.2V131c0-4.2-2.2-8-5.7-10.2l-1.4-0.9c-0.7-0.4-1.1-1.1-1.1-1.8c0-0.8,0.4-1.4,1-1.8l1.4-0.9
		c3.5-2.2,5.7-6,5.7-10.2V80.5c0-4.2-2.2-8-5.7-10.2l-1.4-0.9c-0.7-0.4-1.1-1.1-1.1-1.8s0.4-1.4,1-1.8l1.4-0.9
		c3.5-2.2,5.7-6,5.7-10.2V29c0-1.2-0.2-2.4-0.5-3.5c-11.3,1-22.8,0.7-34.1,0.6c-3.9,0-7.8,0-11.6,0.2l-0.4,1.1
		c-0.3,0.9-1.1,1.5-2.1,1.5s-1.8-0.6-2.1-1.5l-0.3-0.9c-13.2,0.6-26.4,2-39.6,2.9c-39.5,2.9-79.1,5.1-118.7,6.2
		C55.7,36,46.5,27.5,43.5,17h-3.5c-6.6,0-12,5.4-12,12v25.6c0,4.2,2.2,8,5.7,10.2l1.4,0.9c0.7,0.4,1.1,1.1,1.1,1.8s-0.4,1.4-1,1.8
		l-1.4,0.9c-3.5,2.2-5.7,6-5.7,10.2v24.7c0,4.2,2.2,8,5.7,10.2l1.4,0.9c0.7,0.4,1.1,1.1,1.1,1.8c0,0.8-0.4,1.4-1,1.8l-1.4,0.9
		c-3.5,2.2-5.7,6-5.7,10.2v24.7c0,4.2,2.2,8,5.7,10.2l1.4,0.9c0.7,0.4,1.1,1.1,1.1,1.8c0,0.8-0.4,1.4-1,1.8l-1.4,0.9
		c-3.5,2.2-5.7,6-5.7,10.2v24.7c0,4.2,2.2,8,5.7,10.2l1.4,0.9c0.7,0.4,1,1.1,1,1.8c0,0.8-0.4,1.4-1,1.8l-1.4,0.9
		c-2.6,1.6-4.5,4.1-5.3,7h-2.2c-10.3,0-18.7,8.4-18.7,18.7v75.8c0,10.3,8.4,18.7,18.7,18.7H275c10.3,0,18.7-8.4,18.7-18.7v-75.8
		C293.7,237.6,286,229.5,276.3,228.8z"/>
	<path fill="#FFFFFF" d="M285.3,219.8c-0.8-2.9-2.6-5.5-5.3-7.1l-1.4-0.9c-0.7-0.4-1-1.1-1-1.8s0.4-1.4,1-1.8l1.4-0.9
		c3.5-2.2,5.7-6,5.7-10.2v-24.7c0-4.2-2.2-8-5.7-10.2l-1.4-0.9c-0.7-0.4-1.1-1.1-1.1-1.8c0-0.8,0.4-1.4,1-1.8l1.4-0.9
		c3.5-2.2,5.7-6,5.7-10.2V122c0-4.2-2.2-8-5.7-10.2l-1.4-0.9c-0.7-0.4-1.1-1.1-1.1-1.8c0-0.8,0.4-1.4,1-1.8l1.4-0.9
		c3.5-2.2,5.7-6,5.7-10.2V71.5c0-4.2-2.2-8-5.7-10.2l-1.4-0.9c-0.7-0.4-1.1-1.1-1.1-1.8s0.4-1.4,1-1.8l1.4-0.9
		c3.5-2.2,5.7-6,5.7-10.2V20c0-6.6-5.4-12-12-12h-22.5c-5.2,0-9.8,3.4-11.4,8.3l-0.7,2.1c-0.3,0.9-1.1,1.5-2.1,1.5s-1.8-0.6-2.1-1.5
		l-0.7-2.1c-1.6-5-6.2-8.3-11.4-8.3h-22.2c-5.2,0-9.8,3.4-11.4,8.3l-0.7,2.1c-0.3,0.9-1.1,1.5-2.1,1.5c-1,0-1.8-0.6-2.1-1.5
		l-0.7-2.1c-1.6-5-6.2-8.3-11.4-8.3h-22.2c-5.2,0-9.8,3.4-11.4,8.3l-0.7,2.1c-0.3,0.9-1.1,1.5-2.1,1.5s-1.8-0.6-2.1-1.5l-0.7-2.1
		c-1.6-5-6.2-8.3-11.4-8.3H99.7c-5.2,0-9.8,3.4-11.4,8.3l-0.7,2.1c-0.3,0.9-1.1,1.5-2.1,1.5c-1,0-1.8-0.6-2.1-1.5l-0.7-2.1
		c-1.6-5-6.2-8.3-11.4-8.3H48.9c-6.6,0-12,5.4-12,12v25.6c0,4.2,2.2,8,5.7,10.2l1.4,0.9c0.7,0.4,1.1,1.1,1.1,1.8s-0.4,1.4-1,1.8
		l-1.4,0.9c-3.5,2.2-5.7,6-5.7,10.2v24.7c0,4.2,2.2,8,5.7,10.2l1.4,0.9c0.7,0.4,1.1,1.1,1.1,1.8c0,0.8-0.4,1.4-1,1.8l-1.4,0.9
		c-3.5,2.2-5.7,6-5.7,10.2v24.7c0,4.2,2.2,8,5.7,10.2l1.4,0.9c0.7,0.4,1.1,1.1,1.1,1.8c0,0.8-0.4,1.4-1,1.8l-1.4,0.9
		c-3.5,2.2-5.7,6-5.7,10.2v24.7c0,4.2,2.2,8,5.7,10.2l1.4,0.9c0.7,0.4,1,1.1,1,1.8c0,0.8-0.4,1.4-1,1.8l-1.4,0.9
		c-2.6,1.6-4.5,4.1-5.3,7h-2.2c-10.3,0-18.7,8.4-18.7,18.7v75.8c0,10.3,8.4,18.7,18.7,18.7H284c10.3,0,18.7-8.4,18.7-18.7v-75.8
		C302.7,228.6,295,220.5,285.3,219.8z"/>
	<rect x="74.1" y="45.8" fill="#54C2BA" width="177" height="201.8"/>
	<g>
		<path d="M138.9,40.5c-3.3,1-6.6,1.2-10,0.4c-3.3-0.2-6.4-1.1-9.3-3c-1.7-1.3-3.4-2.6-5.1-3.9l-3.9-5.1c-0.4-0.6-0.8-1.3-1.1-1.9
			c-11.3,4.3-19.2,11-23.7,15.6c-2.7,2.8-2.8,7.2-0.2,10l22.9,25.4l34.8-15.4L140.3,40C139.8,40.2,139.4,40.4,138.9,40.5z"/>
		<path fill="#C8C9CA" d="M141.7,50.1c-17.7-1.4-33.2,10.8-41.4,18.8l8.2,9.2l4-1.7l30.8-13.8L141.7,50.1z"/>
		<g>
			<path d="M91.9,74c1-1,2.4-1.6,3.9-1.8c6.8-1.2,13.9,3.2,20.6,1.5c6.1-1.6,9.8-7.5,13.6-12.5c3.1-4.1,6.8-8.1,11.5-10
				c4.8-2,10.9-1.5,14.4,2.3c4.4,4.8,0.3,9-4.9,9.5c-9.6,0.9-18.5,5.3-26.6,10.4c-4.3,2.7-8.3,5.6-12.3,8.7c-2.9,2.2-6.8,7-10.7,6.8
				c-1.4-0.1-2.6-0.8-3.7-1.6c-2.3-1.5-4.6-3.1-6-5.5C90.2,79.3,90,76,91.9,74z"/>
		</g>
	</g>
	<g>
		<g>
			<path fill="#C92128" d="M71.8,197.7c-4.6,1-8.5-3.4-7.1-7.9l10.5-31.7l10.5-31.7c1.5-4.5,7.3-5.7,10.4-2.2l22.2,24.9l22.2,24.9
				c3.1,3.5-3,10-7.6,10.9L71.8,197.7z"/>
			<path fill="#C92128" d="M255.5,165.6c-0.8,0-1.6,0-2.2,0.1l-36.5,23l-37.8,6c-5.4,0.9-7.8,7.2-4.4,11.4l48.3,59.5
				c3.4,4.2,10.1,3.1,12.1-1.9l20.6-55V165.6z"/>
			<path fill="#C92128" d="M129.3,200.2c4.8,0.9,5.6-2,10.4-2.9c11-2.1,11,10.9,16.6,2.5l24.9-5.4c5.3-1.2,9.9,3.9,8.2,9l-11.6,36.5
				l-11.6,36.5c-1.6,5.2-8.3,6.6-11.9,2.6l-56.4-75c0.3-0.1,15.7,1.3,16.1,1.3C118.4,204.4,125.6,202.3,129.3,200.2z"/>
			<path fill="#C92128" d="M255.5,107.9c-0.2-0.2-0.5-0.3-0.7-0.5c-2.4-2.3-4.2-4.9-5.2-8c-1.5-2.9-2.2-5.9-2.2-9.2
				c-21.2-21.1-53.4-30.5-87-24.2c-51.8,9.8-87.1,53.5-77.6,103.7c9.5,50.2,57.9,76.4,109.7,66.7c26.5-5,48.7-18.4,62.8-37V107.9z"
				/>
			<g>
				<path opacity="0.2" fill="#221F1F" d="M133.2,191.5c0,0,45,58.6,94-13.7l-64.9,2.8L133.2,191.5z"/>
				<path fill="#4F0B0B" d="M225.6,81.3c-2.3,0.2-4.5,0-6.5-0.6c-0.1,0-0.2,0-0.2,0.1c-5.7,1.2-10.5-0.2-16-0.9
					c-2.1-0.2-4.2-0.3-6.3-0.3l0,0c-0.8,0.3-2.4,0.1-3.1,0.2c-8.4,0.8-16.8,2.6-25,4.8c-5,1.4-10,2.9-15,4.5
					c-0.2,0.1-0.3,0.1-0.4,0.1c-0.1,0-0.2,0.1-0.3,0.1c-1,0.3-2.1,0.7-3.1,1c-2.5,0.8-4.9,1.7-7.4,2.5c-5.8,2-11.5,3.9-17.3,5.8
					c-1.2,0.4-2.5,0.8-3.7,1.2c-0.5,0.2-2.8,0.8-2.6,0.7c-3.7,1.1-6.5,1.9-10.9,1.9c-0.7,0.4-1.5,0.7-2.3,1
					c16.4,33.8,15.2,46.3,20.5,83.3c44.5,30.5,80.7,22.3,110.1-20.6C227.6,129.9,222.5,118.6,225.6,81.3z"/>
				<path d="M185.3,113.1L185.3,113.1c-0.4-0.1-19.2-5.2-9.7,9.2c3.5,4.8,7.2,10.3,7.7,13c1.1,5.3-2.3,10.4-7.6,11.5
					c-5.3,1.1-10.4-2.3-11.5-7.6c-0.5-2.5,0.6-8.6,1.8-14.1c3.6-17.6-11.2-6.4-12.3-5.5c-7.9,7-12,17.6-9.8,28.3
					c3.3,16.2,19.8,26.5,36.8,23s28-19.4,24.7-35.7C203.3,124.5,195.3,116.4,185.3,113.1z"/>
				<path fill="#4F0B0B" d="M125.8,181.1c0.6,0.3,8.8-27.5,51.7-24.9c0,0,21.9-13.9,51.8-6.2l2.7,11.3l-62.1,29l-21.2-0.9l-22.8-7.5
					"/>
				<g>
					<defs>
						<path id="SVGID_1_" d="M185.6,201.6c-17.2,3.2-36.4-2.3-57.2-16.3c-0.9-6.5-1.7-12.3-2.3-17.5c-3-23.7-4.6-37.1-17.4-63.7
							c15-13.5,33.5-22.6,53.5-26.4c20-3.7,40.9-2,60.6,5.1c-2.4,30.6,0.9,44.2,6.8,68.4c1,4.3,2.2,9.2,3.5,14.5
							C218.8,186.3,202.8,198.3,185.6,201.6z"/>
					</defs>
					<clipPath id="SVGID_2_">
						<use xlink:href="#SVGID_1_"  overflow="visible"/>
					</clipPath>
					<path clip-path="url(#SVGID_2_)" fill="#F3A9C2" d="M125.3,193c8.6-29.8,35.1-33.9,49.3-33.8c-16.6,19.1-13.3,33.1-13.3,33.1
						c2.2-12.8,9.9-22,15.6-27.2c3.3-2.8,6.1-4.7,6.7-5.1l0.3,0.2l-0.1-0.3l0-0.1c34.3-19.5,62.1,1,63.1,1.8
						c-0.8-0.7-2.6-1.9-31.5,44.8C185.3,254.9,110.6,243.8,125.3,193z"/>
					<g clip-path="url(#SVGID_2_)">
						<path fill="#EC7198" d="M120.7,184c-1.8,1.8-2.4,4.4-2.2,6.9c0.2,2.5,1.2,4.8,2.1,7.2c2.1,5.2,4.2,10.5,7.9,14.6
							c3.6,4.1,8.4,6.8,13.4,9c12.8,5.6,27.1,7.7,40.9,5.9c13.8-1.8,27.1-7.4,38-16.2c6-4.8,11.1-10.6,15.9-16.6
							c2.7-3.3,5.3-6.8,6.8-10.8c1.5-4,1.9-8.6,0.3-12.5c-2.7-6.3-6.6-16.7-13.4-16c-8.2,0.8-16.7,11.4-22.4,16.7
							c-7,6.4-13.8,13.1-21.2,19c-4.3,3.5-9.4,6.3-14.9,6.7c-11.4,1-20.6-8.7-31.1-11.6c-2.7-0.8-5.6-1.2-8.4-1.2
							c-2.8,0-5.7,1.1-8.4,0.6C123.5,185.5,121.1,183.7,120.7,184z"/>
					</g>
				</g>
				<path fill="#FFFFFF" d="M105.4,103.6c35.6-23.9,81.7-31.9,120.2-22.5l0,0c-0.1,0.8-4.3,1.3-5.1,1.5c-2.6,0.6-5.2,1.3-7.7,2.4
					c-3.5,1.6-5.5,3.7-7.4,6.3c-1.7,2.3-3.6,4.8-7.2,5.7c-8.5,2-12.1-5.2-20.3-3.3c-8.2,1.9-7.8,9.9-16.3,11.4
					c-8.6,1.5-10.8-6.1-19.2-4.6c-8.3,1.4-9.3,9.6-17.9,10.6C116,112,113.8,102.7,105.4,103.6z"/>
				<path fill="#C5C6C8" d="M198.3,97c3.6-0.9,5.5-3.4,7.2-5.7c0.5-0.6,0.9-1.2,1.4-1.8c-0.2,0.1-0.4,0.1-0.5,0.2
					c-2.6,1-4.6,3.4-7.3,4.1c-2.4,0.6-4.9-0.4-7.3-1.1c-6.1-1.9-13.2-2.3-18.6,1.2c-2.2,1.5-4,3.5-6.2,4.9
					c-3.5,2.2-7.9,2.9-11.9,1.6c-2.6-0.8-4.9-2.4-7.6-2.9c-4.1-0.8-8.3,0.9-11.8,3.2c-3.5,2.2-6.7,5-10.5,6.8
					c-2.6,1.2-5.6,1.7-8.3,1.2c2.1,1.5,4.5,2.6,7.7,2.2c8.6-1,9.6-9.1,17.9-10.6c8.3-1.4,10.6,6.1,19.2,4.6
					c8.6-1.5,8.2-9.5,16.3-11.4C186.3,91.8,189.9,99,198.3,97z"/>
			</g>
		</g>
		<g opacity="0.2">
			<path fill="#221F1F" d="M98,204.2l-0.2-0.2c-1.7-2.3-3.4-4.8-4.9-7.3c7.5,5.1,13.9,12,20.3,18.6c7.2,7.5,15.3,15.2,25.2,18.8
				c15,5.4,23.1-6.5,35.6-11.3c9.2-3.5,20.1-3.1,28.8,1.5c9.5,5,13.2,16.8,18.9,25.3c2.1,3.2,4.9,6.3,8.7,6.9
				c2.9,0.5,5.6-0.6,8.1-2.3l-3.6,9.6c-1.9,5.1-8.6,6.1-12.1,1.9l-24.1-29.8l-0.6-0.8c-1.8,0.4-3.6,0.8-5.4,1.2
				c-4.8,0.9-9.6,1.5-14.4,1.8l-0.6,1.8l-11.6,36.5c-1.6,5.2-8.3,6.6-11.9,2.6l-56-74.5C98.1,204.4,98.1,204.3,98,204.2z"/>
		</g>
	</g>
	<path fill="#451E0F" d="M48.9,275.3V223l1.4-0.9c4.2-2.6,6.7-7.1,6.7-12c0-4.9-2.5-9.4-6.7-12l-1.4-0.9v-24.7l1.4-0.9
		c4.2-2.6,6.7-7.1,6.7-12c0-4.9-2.5-9.4-6.7-12l-1.4-0.9V122l1.4-0.9c4.2-2.6,6.7-7.1,6.7-12c0-4.9-2.5-9.4-6.7-12l-1.4-0.9V71.5
		l1.4-0.9c4.2-2.6,6.7-7.1,6.7-12c0-4.9-2.5-9.4-6.7-12l-1.4-0.9V20h22.5l0.7,2.1c1.9,5.9,7.3,9.8,13.5,9.8S97.1,28,99,22.1l0.7-2.1
		h22.2l0.7,2.1c1.9,5.9,7.3,9.8,13.5,9.8s11.6-3.9,13.5-9.8l0.7-2.1h22.2l0.7,2.1c1.9,5.9,7.3,9.8,13.5,9.8s11.6-3.9,13.5-9.8
		l0.7-2.1h22.2l0.7,2.1c1.9,5.9,7.3,9.8,13.5,9.8s11.6-3.9,13.5-9.8l0.7-2.1h22.5v25.6l-1.4,0.9c-4.2,2.6-6.7,7.1-6.7,12
		c0,4.9,2.5,9.4,6.7,12l1.4,0.9v24.7l-1.4,0.9c-4.2,2.6-6.7,7.1-6.7,12c0,4.9,2.5,9.4,6.7,12l1.4,0.9v24.7l-1.4,0.9
		c-4.2,2.6-6.7,7.1-6.7,12c0,4.9,2.5,9.4,6.7,12l1.4,0.9v24.7l-1.4,0.9c-4.2,2.6-6.7,7.1-6.7,12c0,4.9,2.5,9.4,6.7,12l1.4,0.9v52.4
		H48.9z M239.9,247.1V55.3H82.8v191.9H239.9z"/>
	<path fill="#FF9801" d="M270.7,43.9V23h-17.3c-2.2,6.9-8.7,11.9-16.3,11.9c-7.6,0-14.1-5-16.3-11.9h-17.8
		c-2.2,6.9-8.7,11.9-16.3,11.9c-7.6,0-14.1-5-16.3-11.9h-17.8c-2.2,6.9-8.7,11.9-16.3,11.9s-14.1-5-16.3-11.9h-17.8
		c-2.2,6.9-8.7,11.9-16.3,11.9c-7.6,0-14.1-5-16.3-11.9H51.9v20.9c4.9,3,8.2,8.4,8.2,14.6s-3.3,11.6-8.2,14.6v21.3
		c4.9,3,8.2,8.4,8.2,14.6s-3.3,11.6-8.2,14.6v21.3c4.9,3,8.2,8.4,8.2,14.6s-3.3,11.6-8.2,14.6v21.3c4.9,3,8.2,8.4,8.2,14.6
		s-3.3,11.6-8.2,14.6v47.7h218.7v-47.7c-4.9-3-8.2-8.4-8.2-14.6s3.3-11.6,8.2-14.6v-21.3c-4.9-3-8.2-8.4-8.2-14.6s3.3-11.6,8.2-14.6
		v-21.3c-4.9-3-8.2-8.4-8.2-14.6s3.3-11.6,8.2-14.6V73.1c-4.9-3-8.2-8.4-8.2-14.6S265.8,47,270.7,43.9z M242.9,250.1H79.8V62.9
		c-4.5-1.7-3.9-9.7,1.9-9.7c0.6,0,1.2,0,1.8,0c0.4,0,0.8,0,1.2,0c14.3,0,27.7,0.5,41.8,3.8c0.2,0.1,0.5,0.1,0.7,0.2
		c8.5-0.3,17.1-0.9,25.7-0.9c14.7,0,29.2,2.3,43.8,1.1c13.9-1.2,27.8-2.8,41.8-2.2c3.9,0.2,5.7,3.9,4.5,6.9V250.1z"/>
	<path fill="#955319" d="M264.7,40.9V29h-7.4c-4,7.3-11.7,11.9-20.3,11.9s-16.2-4.6-20.3-11.9h-10c-4,7.3-11.7,11.9-20.3,11.9
		s-16.2-4.6-20.3-11.9h-10c-4,7.3-11.7,11.9-20.3,11.9s-16.2-4.6-20.3-11.9h-10c-4,7.3-11.7,11.9-20.3,11.9
		c-8.6,0-16.2-4.6-20.3-11.9h-7.4v11.9c5.2,4.4,8.2,10.7,8.2,17.6s-3,13.3-8.2,17.6v15.2c5.2,4.4,8.2,10.7,8.2,17.6
		c0,6.9-3,13.3-8.2,17.6v15.2c5.2,4.4,8.2,10.7,8.2,17.6s-3,13.3-8.2,17.6v15.2c5.2,4.4,8.2,10.7,8.2,17.6c0,6.9-3,13.3-8.2,17.6
		v38.7h206.7v-38.7c-5.2-4.4-8.2-10.7-8.2-17.6c0-6.9,3-13.3,8.2-17.6v-15.2c-5.2-4.4-8.2-10.7-8.2-17.6s3-13.3,8.2-17.6v-15.2
		c-5.2-4.4-8.2-10.7-8.2-17.6c0-6.9,3-13.3,8.2-17.6V76.2c-5.2-4.4-8.2-10.7-8.2-17.6C256.5,51.6,259.5,45.3,264.7,40.9z
		 M243.4,67.1c-0.2,0-0.4,0-0.5,0v183.1H79.8V64.4c-0.4,0-1.6,0-1.2,0c1.2,0-6.4-10.2,0-10c27.5,0.7,54.9-1.7,82.4-1.2
		c27.5,0.5,54.9,3.8,82.4,3.9C249.8,57.1,249.8,67.1,243.4,67.1z"/>
	<path fill="#451E0F" d="M248.4,247.6H74.3V46.9h174.1V247.6z M85.3,236.6h152.1V57.9H85.3V236.6z"/>
	<path fill="#142547" d="M284,321H35.2c-3.7,0-6.7-3-6.7-6.7v-75.8c0-3.7,3-6.7,6.7-6.7H284c3.7,0,6.7,3,6.7,6.7v75.8
		C290.7,318,287.7,321,284,321z"/>
	<g>
		<path fill="#FFFFFF" d="M109.3,274.1v-25.7h19.5v6.8h-11.7v2.5h11.4v6.8h-11.4v2.8h11.7v6.8H109.3z"/>
		<path fill="#FFFFFF" d="M148.1,274.1l-4.7-7.9l-4.7,7.9h-9.2l8.6-13.2l-8-12.5h9.1l4.2,7.3l4.1-7.3h9.2l-8,12.5l8.6,13.2H148.1z"
			/>
		<path fill="#FFFFFF" d="M158.6,274.1v-25.7h13.7c6,0,9.2,4,9.2,8.8c0,4.8-3.2,8.8-9.2,8.8h-5.9v8.1H158.6z M173.7,257.2
			c0-1.4-1-2-2.3-2h-4.9v4h4.9C172.6,259.2,173.7,258.6,173.7,257.2z"/>
		<path fill="#FFFFFF" d="M182.7,261.3c0-7.9,6.1-13.3,14.1-13.3c7.9,0,14.1,5.4,14.1,13.3c0,7.9-6.1,13.3-14.1,13.3
			C188.8,274.6,182.7,269.2,182.7,261.3z M202.9,261.3c0-3.6-2.4-6.4-6.2-6.4c-3.7,0-6.2,2.8-6.2,6.4c0,3.6,2.4,6.4,6.2,6.4
			C200.5,267.7,202.9,264.9,202.9,261.3z"/>
	</g>
	<g>
		<path fill="#FFFFFF" d="M107.7,304.2l-4.4-6.9h-3.5v6.9h-2.2v-17.4h7c3.2,0,5.5,2,5.5,5.2c0,3.1-2.1,4.9-4.5,5.1l4.7,7.1H107.7z
			 M107.8,292.1c0-2-1.4-3.3-3.5-3.3h-4.6v6.7h4.6C106.4,295.4,107.8,294,107.8,292.1z"/>
		<path fill="#FFFFFF" d="M113.5,304.2v-17.4h2.2v17.4H113.5z"/>
		<path fill="#FFFFFF" d="M118.7,301.8l1.3-1.6c1.1,1.3,3,2.5,5.5,2.5c3.1,0,4.1-1.7,4.1-3c0-4.5-10.3-2-10.3-8.2
			c0-2.9,2.6-4.8,6-4.8c2.7,0,4.7,0.9,6.2,2.4l-1.3,1.6c-1.3-1.4-3.1-2.1-5-2.1c-2.1,0-3.6,1.1-3.6,2.8c0,3.9,10.3,1.7,10.3,8.2
			c0,2.5-1.7,5.1-6.4,5.1C122.3,304.5,120.1,303.4,118.7,301.8z"/>
		<path fill="#FFFFFF" d="M147.2,304.2l-1.5-3.9H137l-1.5,3.9H133l7-17.4h2.7l7,17.4H147.2z M141.3,289.1l-3.7,9.4h7.4L141.3,289.1z
			"/>
		<path fill="#FFFFFF" d="M151.9,304.2v-17.4h5.9c5.4,0,8.9,3.8,8.9,8.7c0,5-3.5,8.7-8.9,8.7H151.9z M164.6,295.5
			c0-3.8-2.4-6.8-6.7-6.8h-3.8v13.5h3.8C162.1,302.3,164.6,299.3,164.6,295.5z"/>
		<path fill="#FFFFFF" d="M181.6,304.2l-1.5-3.9h-8.7l-1.5,3.9h-2.5l7-17.4h2.7l7,17.4H181.6z M175.8,289.1l-3.7,9.4h7.4
			L175.8,289.1z"/>
		<path fill="#FFFFFF" d="M196.5,304.2l-4.4-6.9h-3.5v6.9h-2.2v-17.4h7c3.2,0,5.5,2,5.5,5.2c0,3.1-2.1,4.9-4.5,5.1l4.7,7.1H196.5z
			 M196.6,292.1c0-2-1.4-3.3-3.5-3.3h-4.6v6.7h4.6C195.2,295.4,196.6,294,196.6,292.1z"/>
		<path fill="#FFFFFF" d="M202.2,304.2v-17.4h2.2v17.4H202.2z"/>
		<path fill="#FFFFFF" d="M220.9,304.2l-1.5-3.9h-8.7l-1.5,3.9h-2.5l7-17.4h2.7l7,17.4H220.9z M215,289.1l-3.7,9.4h7.4L215,289.1z"
			/>
	</g>
	<polygon fill="#5E2A19" points="85.3,57.9 74.3,46.9 248.4,46.9 237.4,57.9 	"/>
</g>
</svg>
