<?xml version="1.0" encoding="utf-8"?>
<!-- Generator: Adobe Illustrator 18.0.0, SVG Export Plug-In . SVG Version: 6.00 Build 0)  -->
<!DOCTYPE svg PUBLIC "-//W3C//DTD SVG 1.1//EN" "http://www.w3.org/Graphics/SVG/1.1/DTD/svg11.dtd">
<svg version="1.1" id="Layer_1" xmlns="http://www.w3.org/2000/svg" xmlns:xlink="http://www.w3.org/1999/xlink" x="0px" y="0px"
	 viewBox="0 0 149 136" enable-background="new 0 0 149 136" xml:space="preserve">
<g>
	<path opacity="0.2" fill="#221F1F" d="M129.5,89.2c-2.3-0.3-4.5-1.3-6.2-2.9c-1.9-1.7-3-4.7-3-7.3c0-2.8,1.2-5.2,3-7.3
		c2.3-2.5,4.4-5.2,6.8-7.6c3.1-3.2,7.6-3.7,11.4-2c0.8-1.9,1.4-3.8,1.8-5.9c2.8-15.1-5-28-18.8-30.5c-0.7-0.1-1.5-0.2-2.2-0.3
		c0.2-1.9-0.4-3.8-1.6-5.4c-1.3-1.7-4.7-6-30.2-7.7c-0.1-0.3-0.3-0.7-0.5-1c-0.9-1.6-2.3-2.7-4-3.1c-0.5-0.1-1.1-0.2-1.7-0.2
		c-1.6,0-3.5,0.6-4.9,2.3C72.3,7.9,61.5,5,55.1,5c-7.8,0-9.5,4.5-9.9,6.4c-0.4,2.2,0.2,4.3,1.6,6.1c1.5,1.9,4,3.2,8,4.1
		c-1.5,1.1-2.9,2.3-4.1,3.7c-3.9,2.1-7.3,4.6-10.3,7.6c-2-10.4-9.8-17.6-19.6-17.6c-0.7,0-1.4,0-2.1,0.1C13.1,16,8.3,18.7,5.1,23
		C1.8,27.4,0.4,33,1,39.2c0.9,8.5,6.9,16,13.4,19.5c0.1,0.9,0.3,1.7,0.7,2.4c-2.1,2.3-4.8,6.2-3.9,11.4c1.1,6.1,6.1,10.6,11.8,10.6
		l0.2,0c2.3,0,4.9-0.9,6.9-2.3c0.5-0.4,1-0.8,1.4-1.2c0,0.1,0.1,0.1,0.1,0.2l2.7,7.2H21.5c-4.7,0-8.5,3.8-8.5,8.5v31.1
		c0,4.7,3.8,8.5,8.5,8.5h102.2c4.7,0,8.5-3.8,8.5-8.5V95.5C132.3,93,131.2,90.8,129.5,89.2z"/>
	<path fill="#FFFFFF" d="M27.2,79.1l0.2,0c2.3,0,4.9-0.9,6.9-2.3c0.5-0.4,1-0.8,1.4-1.2c0,0.1,0.1,0.1,0.1,0.2l2.7,7.2H25.6
		c-4.7,0-8.5,3.8-8.5,8.5v31.1c0,4.7,3.8,8.5,8.5,8.5h102.2c4.7,0,8.5-3.8,8.5-8.5V91.4c0-3.6-2.2-6.6-5.3-7.9c0.6-0.5,1-1,1.5-1.6
		c1.6-2.2,2-5,1.2-7.6l-0.6-1.8c6.6-4.2,12.8-11.3,14.5-20.3c2.8-15.1-5-28-18.8-30.5c-0.7-0.1-1.5-0.2-2.2-0.3
		c0.2-1.9-0.4-3.8-1.6-5.4c-1.3-1.7-4.7-6-30.2-7.7c-0.1-0.3-0.3-0.7-0.5-1c-0.9-1.6-2.3-2.7-4-3.1c-0.5-0.1-1.1-0.2-1.7-0.2
		c-1.6,0-3.5,0.6-4.9,2.3c-7.4-2.3-18.1-5.3-24.6-5.3c-7.8,0-9.5,4.5-9.9,6.4c-0.4,2.2,0.2,4.3,1.6,6.1c1.5,1.9,4,3.2,8,4.1
		c-1.5,1.1-2.9,2.3-4.1,3.7c-3.9,2.1-7.3,4.6-10.3,7.6c-2-10.4-9.8-17.6-19.6-17.6c-0.7,0-1.4,0-2.1,0.1c-5.5,0.6-10.3,3.2-13.6,7.6
		c-3.3,4.4-4.7,10-4.1,16.2c0.9,8.5,6.9,16,13.4,19.5c0.1,0.9,0.3,1.7,0.7,2.4c-2.1,2.3-4.8,6.2-3.9,11.4
		C16.4,74.6,21.4,79.1,27.2,79.1z"/>
	<g>
		<g>
			<path fill="#F38420" d="M141.9,51.2c2.4-12.7-4.2-22-14.2-23.8c-10-1.9-19.5,4.3-21.9,17c-2.1,11.4,6.4,22.8,11.9,25.8
				c-0.2,0.1-0.3,0.3-0.5,0.4c-0.7,0.5-2.6,2.4-2.1,3.5c0.5,1.3,1.5,0.4,2.2-0.3c0.8-0.7,1.4-1.4,1.9-2.2c-0.3,0.8-0.5,1.6-0.3,2.3
				c0.4,1.7,3.3,3.5,3.5,0.8c0.1-1-0.4-2.5-1-3.7C128.3,70.4,139.7,62.7,141.9,51.2z"/>
		</g>
		
			<ellipse transform="matrix(0.9978 -6.634591e-02 6.634591e-02 0.9978 -2.6942 9.192)" opacity="0.2" fill="#FFFFFF" cx="137" cy="45.2" rx="2.8" ry="6.8"/>
		
			<ellipse transform="matrix(0.9978 -6.634595e-02 6.634595e-02 0.9978 -2.2882 8.8134)" opacity="0.2" fill="#FFFFFF" cx="131.5" cy="38.9" rx="1.1" ry="2.4"/>
	</g>
	<g>
		<g>
			<g>
				
					<ellipse transform="matrix(-0.9825 -0.1865 0.1865 -0.9825 156.445 97.3901)" fill="#142547" cx="82.8" cy="41.3" rx="29.5" ry="25"/>
				<path fill="#1F6895" d="M87.4,16.9c16,3,26.9,16.5,24.3,30.1c-0.1,0.5-0.2,1-0.3,1.4c-3.9-1.5-10.8-4.2-10.6-4.1
					c0.3,0.2-3.8-10.6-3.8-10.6c0,0,0-0.3,0-0.8c0-2.5-0.8-10.3-9.8-16.1C87.3,16.9,87.4,16.9,87.4,16.9z"/>
				<path fill="#9DB53A" d="M87.1,16.9c-16-3-31.1,5.5-33.6,19.1c-0.1,0.5-0.2,1-0.2,1.4c4.2,0,11.6,0,11.4,0.1
					C64.3,37.6,72,29,72,29c0,0,0.1-0.3,0.2-0.7c0.9-2.3,4.5-9.3,15-11.4C87.2,16.9,87.2,16.9,87.1,16.9z"/>
				<path fill="#F38420" d="M112.2,42.6l-5.8-4.3c0,0-3-16-18.9-21.5C101.8,19.5,112,30.6,112.2,42.6z"/>
				<path fill="#B2B2A7" d="M87.7,13.6c0,0,34.3,1.2,33.1,7.3S87.7,13.6,87.7,13.6z"/>
				<path fill="#B2B2A7" d="M88.4,13.7c0,0-32.3-11.4-33.5-5.4S88.4,13.7,88.4,13.7z"/>
				<path fill="#142547" d="M87.1,18.5c0,0,3.9-8.3,1.7-8.9C86.8,9.1,87.1,18.5,87.1,18.5z"/>
				<path fill="#248DCA" d="M54.9,31.7l7-1.9c0,0,8.7-13.8,25.5-13.1C73,14,59.4,20.6,54.9,31.7z"/>
			</g>
			<path fill="#C92128" d="M45.5,36.3c1.2-1.5,1.5,5.2,2.2,7L52.8,56l5.1,12.6c0.7,1.8-0.8,3.7-2.7,3.4l-13.5-1.9l-13.5-1.9
				c-1.9-0.3-2.8-2.5-1.6-4L45.5,36.3z"/>
			<path fill="#C92128" d="M125.1,79.6c2,0.4,3.7-1.5,3.1-3.5l-4.6-13.8l-4.6-13.8c-0.6-2-3.2-2.5-4.5-0.9l-9.7,10.8l-9.7,10.8
				c-1.4,1.5,1.3,4.3,3.3,4.8L125.1,79.6z"/>
			<path fill="#C92128" d="M39.3,68.8c-0.8-2.2,4.5-3.5,6.8-3.1l15.9,10l16.5,2.6c2.3,0.4,3.4,3.1,1.9,5l-10.5,13l-10.5,13
				c-1.5,1.8-4.4,1.4-5.2-0.8L39.3,68.8z"/>
			<path fill="#C92128" d="M100.1,80.7c-2.1,0.4-2.4-0.9-4.5-1.3c-4.8-0.9-4.8,4.7-7.2,1.1l-10.8-2.4c-2.3-0.5-4.3,1.7-3.6,3.9
				L79,98l5.1,15.9c0.7,2.3,3.6,2.9,5.2,1.1l24.5-32.7c-0.1,0-6.9,0.6-7,0.5C104.8,82.5,101.7,81.6,100.1,80.7z"/>
			<path fill="#C92128" d="M120.3,67.4c-4.1,21.9-25.2,33.3-47.8,29S34.5,73.8,38.6,52s25.4-34,47.9-29.7S124.4,45.5,120.3,67.4z"/>
			<g>
				<path opacity="0.2" fill="#221F1F" d="M98.4,76.9c0,0-19.6,25.5-40.9-6l28.3,1.2L98.4,76.9z"/>
				<path fill="#4F0B0B" d="M58.2,28.9c1,0.1,1.9,0,2.8-0.3c0,0,0.1,0,0.1,0c2.5,0.5,4.6-0.1,7-0.4c0.9-0.1,1.8-0.1,2.7-0.1l0,0
					c0.3,0.1,1.1,0.1,1.3,0.1c3.7,0.4,7.3,1.1,10.9,2.1c2.2,0.6,4.4,1.3,6.5,2c0.1,0,0.1,0,0.2,0.1c0,0,0.1,0,0.1,0
					c0.4,0.2,0.9,0.3,1.3,0.5c1.1,0.4,2.2,0.7,3.2,1.1c2.5,0.8,5,1.7,7.5,2.5c0.5,0.2,1.1,0.3,1.6,0.5c0.2,0.1,1.2,0.3,1.1,0.3
					c1.6,0.5,2.8,0.8,4.8,0.8c0.3,0.2,0.7,0.3,1,0.4c-7.2,14.7-6.6,20.1-8.9,36.3c-19.4,13.3-35.1,9.7-47.9-8.9
					C57.3,50.1,59.5,45.2,58.2,28.9z"/>
				<path d="M75.7,42.8L75.7,42.8c0.2,0,8.4-2.2,4.2,4c-1.5,2.1-3.1,4.5-3.4,5.6c-0.5,2.3,1,4.5,3.3,5c2.3,0.5,4.5-1,5-3.3
					c0.2-1.1-0.2-3.7-0.8-6.2c-1.6-7.7,4.9-2.8,5.4-2.4c3.5,3,5.2,7.7,4.3,12.3c-1.4,7.1-8.6,11.5-16,10
					c-7.4-1.5-12.2-8.5-10.8-15.5C67.9,47.7,71.4,44.2,75.7,42.8z"/>
				<path fill="#4F0B0B" d="M101.6,72.4c-0.3,0.1-3.9-12-22.5-10.8c0,0-9.5-6-22.6-2.7l-1.2,4.9l27,12.6l9.2-0.4l9.9-3.3"/>
				<g>
					<defs>
						<path id="SVGID_192_" d="M75.6,81.3c7.5,1.4,15.9-1,24.9-7.1c0.4-2.8,0.7-5.4,1-7.6c1.3-10.3,2-16.1,7.6-27.7
							C102.5,33,94.5,29,85.8,27.4c-8.7-1.6-17.8-0.9-26.4,2.2c1,13.3-0.4,19.2-3,29.8c-0.5,1.9-1,4-1.5,6.3
							C61.2,74.6,68.1,79.9,75.6,81.3z"/>
					</defs>
					<clipPath id="SVGID_2_">
						<use xlink:href="#SVGID_192_"  overflow="visible"/>
					</clipPath>
					<path clip-path="url(#SVGID_2_)" fill="#F3A9C2" d="M101.9,77.5c-3.7-13-15.3-14.8-21.5-14.7c7.2,8.3,5.8,14.4,5.8,14.4
						c-0.9-5.6-4.3-9.6-6.8-11.9c-1.4-1.2-2.7-2.1-2.9-2.2l-0.1,0.1l0.1-0.1l0,0c-15-8.5-27,0.4-27.5,0.8c0.3-0.3,1.1-0.8,13.7,19.5
						C75.7,104.5,108.2,99.7,101.9,77.5z"/>
					<g clip-path="url(#SVGID_2_)">
						<path fill="#EC7198" d="M103.8,73.6c0.8,0.8,1,1.9,0.9,3s-0.5,2.1-0.9,3.1c-0.9,2.3-1.8,4.5-3.4,6.4c-1.6,1.8-3.7,3-5.8,3.9
							c-5.6,2.4-11.8,3.3-17.8,2.6c-6-0.8-11.8-3.2-16.5-7.1c-2.6-2.1-4.9-4.6-6.9-7.2c-1.2-1.5-2.3-3-3-4.7s-0.8-3.7-0.1-5.5
							c1.2-2.7,2.9-7.3,5.8-7c3.6,0.4,7.3,5,9.8,7.3c3,2.8,6,5.7,9.2,8.3c1.9,1.5,4.1,2.7,6.5,2.9c5,0.4,9-3.8,13.5-5.1
							c1.2-0.3,2.4-0.5,3.7-0.5c1.2,0,2.5,0.5,3.7,0.3C102.6,74.3,103.7,73.5,103.8,73.6z"/>
					</g>
				</g>
				<g>
					<path fill="#FFFFFF" d="M110.5,38.6C95,28.2,74.9,24.8,58.1,28.9l0,0c0.1,0.3,1.9,0.6,2.2,0.7c1.1,0.3,2.3,0.6,3.3,1.1
						c1.5,0.7,2.4,1.6,3.2,2.7c0.7,1,1.6,2.1,3.1,2.5c3.7,0.9,5.3-2.3,8.8-1.4c3.6,0.8,3.4,4.3,7.1,5c3.7,0.7,4.7-2.6,8.3-2
						c3.6,0.6,4,4.2,7.8,4.6C105.9,42.3,106.9,38.2,110.5,38.6z"/>
				</g>
				<path fill="#C5C6C8" d="M70.1,35.8c-1.6-0.4-2.4-1.5-3.1-2.5c-0.2-0.3-0.4-0.5-0.6-0.8c0.1,0,0.2,0,0.2,0.1
					c1.1,0.4,2,1.5,3.2,1.8c1.1,0.2,2.1-0.2,3.2-0.5c2.7-0.8,5.7-1,8.1,0.5c1,0.6,1.7,1.5,2.7,2.2c1.5,1,3.5,1.2,5.2,0.7
					c1.1-0.4,2.2-1,3.3-1.3c1.8-0.4,3.6,0.4,5.1,1.4c1.5,1,2.9,2.2,4.6,2.9c1.1,0.5,2.4,0.8,3.6,0.5c-0.9,0.6-1.9,1.1-3.4,1
					c-3.7-0.4-4.2-4-7.8-4.6c-3.6-0.6-4.6,2.7-8.3,2c-3.7-0.7-3.6-4.1-7.1-5C75.3,33.5,73.7,36.6,70.1,35.8z"/>
			</g>
			<path opacity="0.2" fill="#221F1F" d="M45.4,70.7c-0.2-1.2-0.5-2.4-1.3-3.4c-1.2-1.6-3.3-2.3-5.3-2.2c-2,0.1-3.9,0.8-5.7,1.5
				c-1.5,0.6-2.9,1.1-4.4,1.7l10.9,1.5c0.4,1.3,0.9,2.5,1.4,3.7l5.6,15.1C47,82.6,46.6,76.6,45.4,70.7z"/>
		</g>
		<g opacity="0.2">
			<path fill="#221F1F" d="M113.7,82.4L113.7,82.4c0.8-1.1,1.5-2.2,2.2-3.3c-3.3,2.2-6.1,5.2-8.8,8.1c-3.1,3.3-6.7,6.6-11,8.2
				c-6.5,2.3-10.1-2.8-15.5-4.9c-4-1.5-8.7-1.4-12.5,0.6c-4.2,2.2-5.8,7.3-8.2,11c-0.9,1.4-2.2,2.7-3.8,3c-1.3,0.2-2.4-0.3-3.5-1
				l1.6,4.2c0.8,2.2,3.8,2.7,5.2,0.8l10.5-13l0.3-0.3c0.8,0.2,1.6,0.4,2.4,0.5c2.1,0.4,4.2,0.7,6.3,0.8L79,98l5.1,15.9
				c0.7,2.3,3.6,2.9,5.2,1.1l24.4-32.4C113.7,82.5,113.7,82.5,113.7,82.4z"/>
		</g>
		<path fill="#9DB53A" d="M127.8,125.3H25.6c-1.5,0-2.8-1.2-2.8-2.8V91.4c0-1.5,1.2-2.8,2.8-2.8h102.2c1.5,0,2.8,1.2,2.8,2.8v31.1
			C130.6,124.1,129.4,125.3,127.8,125.3z"/>
		<g>
			<g>
				<path fill="#FFFFFF" d="M65.2,118.4l-2.4-3.7l-0.6,0.8v2.9H59v-10.6h3.2v4l2.8-4h3.9l-4,4.9l4.2,5.7H65.2z"/>
				<path fill="#FFFFFF" d="M69.6,118.4v-10.6h3.2v10.6H69.6z"/>
				<path fill="#FFFFFF" d="M74.5,118.4v-10.6h4.7c3.3,0,5.8,1.9,5.8,5.3c0,3.4-2.5,5.3-5.8,5.3H74.5z M81.8,113.1
					c0-1.4-0.8-2.5-2.5-2.5h-1.5v5h1.5C80.8,115.6,81.8,114.4,81.8,113.1z"/>
				<path fill="#FFFFFF" d="M85.4,116.9l1.7-2.4c0.8,0.8,2,1.4,3.4,1.4c0.6,0,1.2-0.2,1.2-0.6c0-1-5.9,0-5.9-4.1
					c0-1.8,1.5-3.5,4.4-3.5c1.7,0,3.3,0.5,4.5,1.5l-1.7,2.3c-0.9-0.7-2.1-1-3.1-1c-0.6,0-0.8,0.2-0.8,0.5c0,1,5.9,0.1,5.9,4.1
					c0,2.3-1.7,3.7-4.6,3.7C88,118.6,86.5,117.9,85.4,116.9z"/>
			</g>
			<g>
				<path fill="#FFFFFF" d="M55.4,102.6l-1.8-2.8h-1.4v2.8h-0.9v-7.2h2.9c1.3,0,2.2,0.8,2.2,2.2c0,1.3-0.9,2-1.9,2.1l1.9,2.9H55.4z
					 M55.5,97.6c0-0.8-0.6-1.4-1.4-1.4h-1.9V99H54C54.9,99,55.5,98.4,55.5,97.6z"/>
				<path fill="#FFFFFF" d="M57.8,102.6v-7.2h0.9v7.2H57.8z"/>
				<path fill="#FFFFFF" d="M59.9,101.6l0.5-0.7c0.5,0.5,1.2,1,2.3,1c1.3,0,1.7-0.7,1.7-1.2c0-1.8-4.2-0.8-4.2-3.4
					c0-1.2,1.1-2,2.5-2c1.1,0,1.9,0.4,2.5,1L64.6,97c-0.5-0.6-1.3-0.9-2.1-0.9c-0.9,0-1.5,0.5-1.5,1.1c0,1.6,4.2,0.7,4.2,3.4
					c0,1-0.7,2.1-2.6,2.1C61.4,102.8,60.5,102.3,59.9,101.6z"/>
				<path fill="#FFFFFF" d="M71.6,102.6L71,101h-3.6l-0.6,1.6h-1l2.9-7.2h1.1l2.9,7.2H71.6z M69.2,96.4l-1.5,3.8h3L69.2,96.4z"/>
				<path fill="#FFFFFF" d="M73.6,102.6v-7.2H76c2.2,0,3.7,1.6,3.7,3.6c0,2-1.4,3.6-3.7,3.6H73.6z M78.8,99.1c0-1.5-1-2.8-2.7-2.8
					h-1.6v5.6H76C77.8,101.8,78.8,100.6,78.8,99.1z"/>
				<path fill="#FFFFFF" d="M85.8,102.6l-0.6-1.6h-3.6l-0.6,1.6h-1l2.9-7.2h1.1l2.9,7.2H85.8z M83.4,96.4l-1.5,3.8h3L83.4,96.4z"/>
				<path fill="#FFFFFF" d="M91.9,102.6l-1.8-2.8h-1.4v2.8h-0.9v-7.2h2.9c1.3,0,2.2,0.8,2.2,2.2c0,1.3-0.9,2-1.9,2.1l1.9,2.9H91.9z
					 M91.9,97.6c0-0.8-0.6-1.4-1.4-1.4h-1.9V99h1.9C91.4,99,91.9,98.4,91.9,97.6z"/>
				<path fill="#FFFFFF" d="M94.3,102.6v-7.2h0.9v7.2H94.3z"/>
				<path fill="#FFFFFF" d="M101.9,102.6l-0.6-1.6h-3.6l-0.6,1.6h-1l2.9-7.2h1.1l2.9,7.2H101.9z M99.5,96.4l-1.5,3.8h3L99.5,96.4z"
					/>
			</g>
		</g>
	</g>
	<g>
		<path fill="#CCCECF" d="M25.7,50.3c2.2,1,2.9,3.5,2.3,5.7c-0.6,2.6-2.9,4-4.5,5.9c-0.9,1.1-1.7,2.3-1.9,3.7
			c-0.2,1.6,0.3,3.3,1.2,4.6c1.8,2.7,5.3,3.2,7.9,1.2c1.4-1.1,2-2.8,0.8-4.3c-1.3-1.6-3.3-1.2-4.5,0.3c-0.3,0.3-0.8-0.1-0.5-0.4
			c0.8-1.1,2.2-1.8,3.5-1.5c1.4,0.2,2.5,1.5,2.8,2.8c0.6,2.9-3,5-5.5,5.1c-3.3,0.1-5.7-2.8-6.2-5.9c-0.6-3.2,1.6-5.7,3.7-7.8
			c1.3-1.3,2.5-2.4,2.8-4.4c0.3-1.8-0.3-3.6-2.1-4.4C25.1,50.7,25.3,50.1,25.7,50.3L25.7,50.3z"/>
		<g>
			<path fill="#248DCA" d="M10.8,34.5c-1-10,4.7-16.7,12.5-17.5c7.8-0.8,14.7,4.6,15.8,14.5c0.9,8.9-6.4,17.2-10.8,19.1
				c0.1,0.1,0.2,0.2,0.3,0.3c0.5,0.4,1.8,2,1.4,2.9c-0.5,0.9-1.2,0.2-1.7-0.4c-0.5-0.6-1-1.2-1.4-1.8c0.2,0.6,0.3,1.2,0.1,1.8
				c-0.4,1.3-2.8,2.5-2.7,0.4c0-0.8,0.5-1.9,1-2.8C20.1,50.2,11.8,43.5,10.8,34.5z"/>
		</g>
		
			<ellipse transform="matrix(-0.9888 -0.1493 0.1493 -0.9888 25.2783 62.3004)" opacity="0.2" fill="#FFFFFF" cx="15" cy="30.2" rx="2.2" ry="5.2"/>
		
			<ellipse transform="matrix(-0.9888 -0.1493 0.1493 -0.9888 35.1855 54.0382)" opacity="0.2" fill="#FFFFFF" cx="19.6" cy="25.7" rx="0.8" ry="1.8"/>
	</g>
</g>
</svg>
