<?xml version="1.0" encoding="utf-8"?>
<!-- Generator: Adobe Illustrator 18.0.0, SVG Export Plug-In . SVG Version: 6.00 Build 0)  -->
<!DOCTYPE svg PUBLIC "-//W3C//DTD SVG 1.1//EN" "http://www.w3.org/Graphics/SVG/1.1/DTD/svg11.dtd">
<svg version="1.1" id="Layer_1" xmlns="http://www.w3.org/2000/svg" xmlns:xlink="http://www.w3.org/1999/xlink" x="0px" y="0px"
	 viewBox="0 0 123 137" enable-background="new 0 0 123 137" xml:space="preserve">
<g>
	<g>
		<path opacity="0.2" fill="#221F1F" d="M112.4,51.2l5.5-14c0.7-1.8,0.6-3.9-0.3-5.6c-0.9-1.7-2.5-3-4.4-3.5l-0.5-0.1
			c-1.1-1.2-2.5-2.1-4.1-2.5c-0.7-0.2-1.4-0.3-2.1-0.3c-0.9,0-1.8,0.2-2.7,0.4l-0.5-0.1c-0.6-0.2-1.2-0.2-1.8-0.2
			c-1.3,0-2.6,0.4-3.8,1.1c-1.6,1.1-2.7,2.8-3,4.7l-1.2,8.2l-11.2,0.7c-4.7-3.5-10.1-6-16-7.4c0.4-1.3,0.7-2.9,0.5-4.8
			c-0.5-3.5-2.9-6.2-6.1-6.9l0.2-3.6c0.2-4.4-3-8.3-7.4-8.9C52.2,8.1,50.8,8,49.4,8c-5.3,0-13.1,1.2-20.7,7c-2.8,2.2-3.9,5.8-3,9.1
			c-2.5-1.6-5.4-2.5-8.6-2.5c-9,0-16.2,7.3-16.2,16.2c0,8.6,6.7,15.6,15.2,16.2c-1.6,3.3-2.7,6.9-3.3,10.5L4.2,81.5
			c-1.2,2.3-1.1,5.1,0.3,7.3c1.4,2.3,3.8,3.6,6.4,3.6c0.1,0,0.2,0,0.4,0l0.2,0v0.8c-2.6,1.2-4.4,3.9-4.4,7v28.3
			c0,4.3,3.5,7.7,7.7,7.7h92.8c4.3,0,7.7-3.5,7.7-7.7v-28.3c0-1.8-0.6-3.5-1.7-4.8c0.2-0.4,0.4-0.7,0.5-1.1c1.3-2.8,1.8-5.7,1.4-8.4
			c-0.6-5.3-4-9.9-9.7-13.3l5.1-19.1C111.6,52.9,112.1,52.1,112.4,51.2z"/>
		<path fill="#FFFFFF" d="M116.2,47.5l5.5-14c0.7-1.8,0.6-3.9-0.3-5.6c-0.9-1.7-2.5-3-4.4-3.5l-0.5-0.1c-1.1-1.2-2.5-2.1-4.1-2.5
			c-0.7-0.2-1.4-0.3-2.1-0.3c-0.9,0-1.8,0.2-2.7,0.4l-0.5-0.1c-0.6-0.2-1.2-0.2-1.8-0.2c-1.3,0-2.6,0.4-3.8,1.1
			c-1.6,1.1-2.7,2.8-3,4.7l-1.2,8.2l-11.2,0.7c-4.7-3.5-10.1-6-16-7.4c0.4-1.3,0.7-2.9,0.5-4.8c-0.5-3.5-2.9-6.2-6.1-6.9l0.2-3.6
			c0.2-4.4-3-8.3-7.4-8.9c-1.4-0.2-2.8-0.3-4.2-0.3c-5.3,0-13.1,1.2-20.7,7c-3.4,2.6-4.3,7.4-2.1,11.1l2.5,4.1
			c-1.4,1.7-2.3,3.7-2.4,5.8c-0.1,1.5,0.2,2.9,0.8,4.1c-0.2,0.1-0.3,0.3-0.5,0.4C23,42.9,18,51.4,16.4,60.9L7.9,77.8
			c-1.2,2.3-1.1,5.1,0.3,7.3c1.4,2.3,3.8,3.6,6.4,3.6c0.1,0,0.2,0,0.4,0l0.2,0v0.8c-2.6,1.2-4.4,3.9-4.4,7v28.3
			c0,4.3,3.5,7.7,7.7,7.7h92.8c4.3,0,7.7-3.5,7.7-7.7V96.5c0-1.8-0.6-3.5-1.7-4.8c0.2-0.4,0.4-0.7,0.5-1.1c1.3-2.8,1.8-5.7,1.4-8.4
			c-0.6-5.3-4-9.9-9.7-13.3l5.1-19.1C115.3,49.1,115.8,48.4,116.2,47.5z"/>
		<circle fill="#FFFFFF" cx="20.1" cy="35.2" r="16.2"/>
		<circle fill="#FFFFFF" cx="85.4" cy="21" r="20.2"/>
		<g>
			<path fill="#C92128" d="M22.3,60.8c0.8-1.6,4.6-4.3,5.5-2.8l6.7,10.4l6.7,10.4c0.9,1.5-0.1,3.4-1.8,3.5L27,82.9l-12.3,0.6
				c-1.7,0.1-2.9-1.8-2.1-3.3L22.3,60.8z"/>
			<path fill="#C92128" d="M104.6,40.2c1.9-0.1,3.1,1.8,2.3,3.5L101,55.5l-5.9,11.8c-0.8,1.7-3.2,1.8-4.2,0.2l-7.3-11l-7.3-11
				c-1-1.6,1.7-3.7,3.6-3.8L104.6,40.2z"/>
			<path fill="#C92128" d="M24.6,82.1c-1.1-1.8,3.4-3.9,5.5-3.9L46,84.4L61.2,84c2.1-0.1,3.5,2.2,2.5,4.1l-7.2,13.3l-7.2,13.3
				c-1,1.9-3.7,2-4.8,0.1L24.6,82.1z"/>
			<path fill="#C92128" d="M80.9,82.5c-1.8,0.7-2.3-0.4-4.2-0.4c-4.4,0-3.5,5-6.3,2.2L60.3,84c-2.1-0.1-3.5,2.2-2.5,4.1l7.2,13.3
				l7.2,13.3c1,1.9,3.7,2,4.8,0.1l16.4-33.3c-0.1,0-6,1.7-6.1,1.7C85.4,83.3,82.5,83,80.9,82.5z"/>
			<path fill="#C92128" d="M96.6,67.2c0,20.2-16.9,33.9-37.7,33.9c-20.8,0-37.7-13.7-37.7-33.9S38,32.6,58.9,32.6
				C79.7,32.6,96.6,47,96.6,67.2z"/>
			<path opacity="0.2" fill="#221F1F" d="M78.2,79c0,0-13.2,26-37.5,1.5l25.4-3.6L78.2,79z"/>
			<path fill="#4F0B0B" d="M34.3,42.9c0.9-0.1,1.7-0.3,2.5-0.7c0,0,0.1,0,0.1,0c2.3,0,4.1-0.9,6.2-1.5c0.8-0.2,1.6-0.4,2.4-0.6l0,0
				c0.3,0.1,1-0.1,1.2-0.1c3.3-0.3,6.7-0.2,10.1,0.1c2.1,0.2,4.1,0.4,6.1,0.7c0.1,0,0.1,0,0.2,0c0,0,0.1,0,0.1,0
				c0.4,0.1,0.9,0.1,1.3,0.2c1,0.1,2,0.3,3.1,0.4c2.4,0.3,4.8,0.7,7.1,1c0.5,0.1,1,0.1,1.5,0.2c0.2,0,1.1,0.1,1.1,0.1
				c1.5,0.2,2.7,0.3,4.4,0c0.3,0.1,0.6,0.2,1,0.2c-3.9,14.3-2.5,19.1-1.9,33.9c-15.1,15.1-29.7,14.5-44.2,0
				C37.1,61.9,38.2,57.2,34.3,42.9z"/>
			<path d="M52.3,52.3L52.3,52.3c0.1-0.1,7.1-3.4,4.4,2.9c-1,2.1-2,4.5-2.1,5.6c0,2.1,1.6,3.9,3.8,3.9c2.1,0,3.9-1.6,3.9-3.8
				c0-1-0.8-3.3-1.7-5.4c-2.7-6.6,3.9-3.3,4.4-3c3.6,2.1,5.9,6,5.9,10.3c-0.1,6.5-5.8,11.7-12.6,11.6c-6.8-0.1-12.3-5.5-12.2-12.1
				C46.2,58.1,48.6,54.3,52.3,52.3z"/>
			<path fill="#4F0B0B" d="M80.3,74.5c-0.2,0.2-5.4-10-21.9-5.9c0,0-9.5-3.8-20.6,1.3l-0.2,4.6l26.2,6.8l8.2-1.9l8.3-4.6"/>
			<g>
				<defs>
					<path id="SVGID_198_" d="M58.6,86.7c6.9,0,14-3.5,21-10.5c-0.1-2.6-0.3-4.9-0.4-7c-0.6-9.4-0.9-14.7,2.1-26
						c-6.8-4.2-14.6-6.4-22.7-6.4c-8,0-16,2.2-23.2,6.4c3.1,11.7,2.8,17.2,2.3,27.1c-0.1,1.8-0.2,3.7-0.3,5.9
						C44.6,83.2,51.7,86.7,58.6,86.7z"/>
				</defs>
				<clipPath id="SVGID_2_">
					<use xlink:href="#SVGID_198_"  overflow="visible"/>
				</clipPath>
				<path clip-path="url(#SVGID_2_)" fill="#F3A9C2" d="M81.4,79c-5.5-11-16.1-10.6-21.6-9.6c7.8,6.2,7.6,11.9,7.6,11.9
					c-1.8-4.8-5.4-7.8-8-9.4c-1.5-0.9-2.7-1.4-3-1.5l-0.1,0.1l0-0.1l0,0c-14.8-5.1-24,4.9-24.4,5.3c0.3-0.3,0.9-0.9,15.5,15.1
					C62.6,107.4,90.8,97.7,81.4,79z"/>
				<g clip-path="url(#SVGID_2_)">
					<path fill="#EC7198" d="M82.5,75.2c0.8,0.6,1.2,1.5,1.3,2.5c0.1,1-0.1,2-0.3,2.9c-0.4,2.2-0.9,4.4-2,6.3
						c-1.1,1.8-2.8,3.3-4.5,4.5c-4.6,3.1-10,4.9-15.5,5.3c-5.5,0.3-11.1-0.9-15.9-3.5c-2.7-1.5-5.1-3.3-7.4-5.3
						c-1.3-1.1-2.5-2.3-3.4-3.7c-0.9-1.4-1.4-3.2-1-4.8c0.6-2.6,1.4-7,4-7.2c3.3-0.3,7.3,3.2,9.9,4.9c3.2,2,6.3,4.1,9.6,5.9
						c1.9,1,4.1,1.8,6.3,1.5c4.5-0.5,7.4-4.9,11.2-6.8c1-0.5,2.1-0.9,3.2-1.1c1.1-0.2,2.3,0,3.3-0.4C81.6,76,82.4,75.1,82.5,75.2z"
						/>
				</g>
			</g>
			<g>
				<path fill="#FFFFFF" d="M82.6,42.9c-15.6-6.7-34.1-6.5-48.3,0l0,0c0.1,0.3,1.8,0.2,2.1,0.2c1.1,0,2.1,0.1,3.1,0.4
					c1.5,0.4,2.4,1,3.3,1.9c0.8,0.8,1.7,1.6,3.2,1.7c3.4,0.2,4.3-2.9,7.6-2.8c3.3,0.1,3.7,3.3,7.2,3.2c3.4,0,3.8-3.1,7.1-3.2
					c3.3,0,4.3,3,7.7,2.8C79.1,46.9,79.3,43.1,82.6,42.9z"/>
			</g>
			<path fill="#C5C6C8" d="M46.1,47c-1.5-0.1-2.4-0.9-3.2-1.7c-0.2-0.2-0.4-0.4-0.7-0.6c0.1,0,0.2,0,0.2,0c1.1,0.2,2,1,3.1,1
				c1,0,1.9-0.5,2.7-0.9c2.2-1.2,5-1.8,7.3-0.9c1,0.4,1.8,1.1,2.8,1.5c1.5,0.6,3.3,0.5,4.7-0.2c1-0.5,1.8-1.3,2.7-1.7
				c1.5-0.6,3.3-0.2,4.8,0.4c1.5,0.6,3,1.5,4.6,1.9c1.1,0.3,2.3,0.3,3.3-0.1c-0.7,0.7-1.5,1.3-2.8,1.4c-3.4,0.2-4.4-2.9-7.7-2.8
				c-3.3,0-3.7,3.2-7.1,3.2c-3.4,0-3.9-3.1-7.2-3.2C50.4,44.1,49.5,47.2,46.1,47z"/>
			<path opacity="0.2" fill="#221F1F" d="M30.4,82.8c-0.4-1-0.9-2.1-1.7-2.8c-1.3-1.2-3.3-1.5-5.1-1.1c-1.8,0.4-3.3,1.4-4.9,2.3
				c-1.2,0.7-2.4,1.5-3.6,2.2l10-0.5c0.6,1.1,1.2,2.1,1.9,3l7.6,12.5C33.9,93.1,32.5,87.8,30.4,82.8z"/>
			<g>
				<path d="M93.3,81.7L93.3,81.7c0.6-1.1,1-2.2,1.4-3.3c-2.5,2.5-4.5,5.7-6.5,8.7c-2.3,3.4-4.8,7-8.4,9.2
					c-5.4,3.2-9.5-0.8-14.7-1.8c-3.8-0.7-8,0.3-11.1,2.7c-3.3,2.7-3.9,7.5-5.5,11.2c-0.6,1.4-1.5,2.8-2.9,3.3
					c-1.1,0.4-2.2,0.2-3.3-0.3l2.1,3.5c1.1,1.8,3.8,1.7,4.8-0.1l7.2-13.3l0.2-0.3c0.7,0,1.5,0.1,2.2,0.1c1.9,0,3.9-0.1,5.7-0.4
					l0.3,0.6l7.2,13.3c1,1.9,3.7,2,4.8,0.1l16.3-33C93.3,81.8,93.3,81.8,93.3,81.7z"/>
			</g>
			<g opacity="0.2">
				<path fill="#221F1F" d="M103.1,51.4c-1.5,1.1-3,2.3-4.5,3.4c-1.6,1.2-3.2,2.5-3.9,4.3c-0.9,2.3-0.1,5,0.9,7.3
					c0.3,0.7,0.7,1.3,1,2c0-0.4,0-0.7,0-1.1c0-0.9,0-1.9-0.1-2.8l4.5-8.9L103.1,51.4z"/>
			</g>
			<g>
				<path d="M58.6,28.1l0.8-15c0.1-1.7-1.1-3.2-2.8-3.4c-4.4-0.5-12.9-0.5-21,5.7c-1.3,1-1.6,2.8-0.8,4.2l7.7,12.8L58.6,28.1z"/>
				<path fill="#C5C6C8" d="M39.6,27.6c5.7-5.3,14.3-5.4,19.3-4.9l-0.3,5.4l-1.8,0.5l-14.3,3.7L39.6,27.6z"/>
				<g>
					<path d="M63.2,22.1c-0.6-0.1-1.3,0.1-1.8,0.4c-2.7,1.5-3.9,4.9-6.7,6.2c-2.5,1.1-5.4,0.1-8.1-0.5c-2.2-0.6-4.5-0.9-6.7-0.3
						c-2.2,0.6-4.1,2.5-4.3,4.8c-0.2,2.8,2.4,3.1,4.3,1.9c3.5-2.3,7.8-3.3,11.9-3.8c2.2-0.3,4.4-0.4,6.6-0.4c1.6,0,4.3,0.5,5.5-0.6
						c0.5-0.4,0.7-1,0.8-1.6c0.4-1.1,0.7-2.3,0.6-3.5C65.2,23.4,64.4,22.3,63.2,22.1z"/>
				</g>
			</g>
		</g>
		<g>
			<path fill="#C2B667" d="M85.7,121.9c-6-1.6-11.3-5.7-14-11c-1.8-3.6-2.4-7.7-1.4-11.5c0.8-3.2,2.7-5.5,4.6-7.7
				c0.6-0.7,1.3-1.5,1.9-2.3c1.6-2.1,1.6-4.4,1.6-7c0-1,0-2.1,0.1-3.2c0.2-2.1,0.9-4,1.9-5.4c5-6.6,15.8-4.4,18.9-3.5
				S113,74.6,114,82.8c0.2,1.8-0.1,3.7-1,5.6c-0.5,1-1,2-1.5,2.9c-1.3,2.3-2.4,4.3-2.1,6.9c0.1,1,0.3,2,0.5,2.9
				c0.5,2.9,1.1,5.9,0.2,9c-2.6,8.9-12.7,13.3-21,12.4C87.9,122.4,86.8,122.2,85.7,121.9L85.7,121.9z"/>
			<path fill="#DDD377" d="M108.2,98.4c-0.5-4.1,2.2-6.9,3.7-10.4c0.7-1.6,1.1-3.3,0.9-5c-0.8-6.3-8.1-10-13.7-11.5
				c-5.6-1.5-13.8-2-17.6,3.1c-1,1.4-1.5,3.1-1.7,4.7c-0.4,3.8,0.5,7.6-2,10.9c-2.4,3.1-5.3,5.7-6.3,9.6c-0.9,3.5-0.3,7.3,1.3,10.6
				c3.1,6,9.5,10.2,16.3,11c8.2,0.9,17.4-3.5,19.7-11.5C109.9,105.9,108.6,102.2,108.2,98.4z"/>
			<path fill="none" stroke="#E6DFA9" stroke-width="0.6949" stroke-miterlimit="10" d="M86.7,118.3c-5-1.3-9.4-4.8-11.6-9.1
				c-1.4-2.8-1.8-6-1.1-8.8c0.6-2.3,2.1-4.1,3.8-6.2c0.7-0.8,1.4-1.6,2-2.5c2.3-3.1,2.3-6.4,2.4-9.3c0-1,0-2,0.1-2.9
				c0.1-1.4,0.6-2.6,1.2-3.5c2.8-3.8,9.6-3.6,15-2.1c5.4,1.4,11.3,4.6,11.9,9.3c0.1,1.1-0.1,2.3-0.7,3.6c-0.4,0.9-0.9,1.7-1.4,2.6
				c-1.4,2.5-3.1,5.4-2.6,9.2c0.1,1.1,0.3,2.1,0.5,3.1c0.5,2.7,0.9,5,0.2,7.3c-2,7-10.2,10.4-17,9.7
				C88.5,118.7,87.6,118.5,86.7,118.3L86.7,118.3z"/>
			<circle fill="#C2B667" cx="94.9" cy="87.1" r="7.6"/>
			<circle fill="#60592E" cx="94.9" cy="87.1" r="4.7"/>
			
				<rect x="79.8" y="106.5" transform="matrix(0.9659 0.259 -0.259 0.9659 31.0599 -19.5401)" fill="#60592E" width="19.8" height="3.1"/>
			
				<rect x="80.6" y="107.3" transform="matrix(0.9659 0.259 -0.259 0.9659 31.0601 -19.5402)" fill="#C2B667" width="18.2" height="1.6"/>
			
				<rect x="97.9" y="42.2" transform="matrix(0.9659 0.259 -0.259 0.9659 19.056 -24.399)" fill="#C2B667" width="8.5" height="35.9"/>
			
				<rect x="98.8" y="43.3" transform="matrix(0.9659 0.259 -0.259 0.9659 19.0564 -24.3993)" fill="#60592E" width="6.6" height="33.7"/>
			
				<rect x="102.5" y="51.2" transform="matrix(0.9659 0.259 -0.259 0.9659 17.0722 -25.2213)" fill="#DDD377" width="3.5" height="1.9"/>
			
				<rect x="101.2" y="56" transform="matrix(0.9659 0.259 -0.259 0.9659 18.2616 -24.728)" fill="#DDD377" width="3.5" height="1.9"/>
			
				<rect x="99.9" y="60.8" transform="matrix(0.9659 0.259 -0.259 0.9659 19.4521 -24.2356)" fill="#DDD377" width="3.5" height="1.9"/>
			
				<rect x="98.7" y="65.5" transform="matrix(0.9659 0.259 -0.259 0.9659 20.6418 -23.7425)" fill="#DDD377" width="3.5" height="1.9"/>
			<g>
				<path fill="#C2B667" d="M105.6,47.1c-1-0.3-1.8-1.1-2.1-2l-0.8-0.2c-0.8-0.2-1.3-1-1.2-1.9l2.3-14.9c0.1-0.5,0.3-0.9,0.7-1.1
					c0.4-0.3,0.9-0.3,1.3-0.2l2.4,0.7c0.7-0.7,1.8-1,2.8-0.7c1,0.3,1.8,1.1,2.1,2l2.4,0.7c0.5,0.1,0.8,0.4,1.1,0.9
					c0.2,0.4,0.2,0.9,0.1,1.4l-5.5,14c-0.3,0.8-1.2,1.2-2,1l-0.8-0.2C107.7,47,106.7,47.3,105.6,47.1z"/>
				<path fill="#DDD377" d="M111.7,30c0.2-0.7-0.2-1.5-1-1.7c-0.7-0.2-1.5,0.2-1.7,1l-3.6-1l-2.3,14.9l2,0.5c-0.2,0.7,0.2,1.5,1,1.7
					c0.7,0.2,1.5-0.2,1.7-1l2,0.5l5.5-14L111.7,30z"/>
				<g>
					
						<line fill="none" stroke="#60592E" stroke-width="0.918" stroke-linecap="round" stroke-miterlimit="10" x1="107.3" y1="31.5" x2="105.5" y2="41.1"/>
					
						<line fill="none" stroke="#60592E" stroke-width="0.918" stroke-linecap="round" stroke-miterlimit="10" x1="112" y1="32.8" x2="108.7" y2="42"/>
				</g>
			</g>
		</g>
		<g>
			<path fill="#22783F" d="M111.2,127.3H18.4c-1.4,0-2.5-1.1-2.5-2.5V96.5c0-1.4,1.1-2.5,2.5-2.5h92.8c1.4,0,2.5,1.1,2.5,2.5v28.3
				C113.7,126.1,112.6,127.3,111.2,127.3z"/>
			<g>
				<path fill="#FFFFFF" d="M45.3,121v-5.8l-2.1,5.8h-1.3l-2.1-5.8v5.8h-2.9v-9.6h4l1.7,4.6l1.7-4.6h4v9.6H45.3z"/>
				<path fill="#FFFFFF" d="M49.7,117.1v-5.6h2.9v5.5c0,0.9,0.6,1.7,1.8,1.7c1.2,0,1.8-0.7,1.8-1.7v-5.5h2.9v5.6
					c0,2.4-1.5,4.1-4.7,4.1C51.3,121.2,49.7,119.4,49.7,117.1z M55.2,110.6h-1.7l1.7-2.1h2.2L55.2,110.6z"/>
				<path fill="#FFFFFF" d="M60,119.6l1.5-2.2c0.7,0.7,1.8,1.2,3.1,1.2c0.5,0,1.1-0.1,1.1-0.5c0-0.9-5.3,0-5.3-3.8
					c0-1.6,1.4-3.2,4-3.2c1.6,0,3,0.4,4.1,1.3l-1.6,2.1c-0.8-0.6-1.9-0.9-2.8-0.9c-0.6,0-0.7,0.2-0.7,0.4c0,0.9,5.3,0.1,5.3,3.7
					c0,2.1-1.6,3.3-4.1,3.3C62.4,121.2,61,120.6,60,119.6z"/>
				<path fill="#FFFFFF" d="M69.6,121v-9.6h2.9v9.6H69.6z"/>
				<path fill="#FFFFFF" d="M73.5,116.2c0-3,2.3-5,5.3-5c2.5,0,3.8,1.5,4.4,2.8l-2.5,1.2c-0.2-0.7-1-1.4-1.9-1.4
					c-1.4,0-2.3,1.1-2.3,2.4c0,1.3,0.9,2.4,2.3,2.4c0.9,0,1.6-0.6,1.9-1.4l2.5,1.1c-0.6,1.3-1.8,2.8-4.4,2.8
					C75.8,121.2,73.5,119.2,73.5,116.2z"/>
				<path fill="#FFFFFF" d="M90.3,121l-0.3-1.1h-3.4l-0.3,1.1h-3.3l3.5-9.6H90l3.5,9.6H90.3z M88.2,114.3l-0.9,3.1h1.9L88.2,114.3z"
					/>
			</g>
			<g>
				<path fill="#FFFFFF" d="M45.4,106.7l-1.7-2.6h-1.3v2.6h-0.8v-6.5h2.6c1.2,0,2,0.8,2,2c0,1.2-0.8,1.8-1.7,1.9l1.8,2.6H45.4z
					 M45.5,102.2c0-0.7-0.5-1.2-1.3-1.2h-1.7v2.5h1.7C45,103.4,45.5,102.9,45.5,102.2z"/>
				<path fill="#FFFFFF" d="M47.6,106.7v-6.5h0.8v6.5H47.6z"/>
				<path fill="#FFFFFF" d="M49.5,105.8l0.5-0.6c0.4,0.5,1.1,0.9,2,0.9c1.2,0,1.5-0.6,1.5-1.1c0-1.7-3.8-0.7-3.8-3.1
					c0-1.1,1-1.8,2.2-1.8c1,0,1.8,0.3,2.3,0.9l-0.5,0.6c-0.5-0.5-1.2-0.8-1.9-0.8c-0.8,0-1.3,0.4-1.3,1c0,1.5,3.8,0.6,3.8,3
					c0,0.9-0.6,1.9-2.4,1.9C50.9,106.8,50.1,106.4,49.5,105.8z"/>
				<path fill="#FFFFFF" d="M60.2,106.7l-0.6-1.4h-3.2l-0.6,1.4h-0.9l2.6-6.5h1l2.6,6.5H60.2z M58,101l-1.4,3.5h2.8L58,101z"/>
				<path fill="#FFFFFF" d="M61.9,106.7v-6.5h2.2c2,0,3.3,1.4,3.3,3.3c0,1.8-1.3,3.2-3.3,3.2H61.9z M66.6,103.4
					c0-1.4-0.9-2.5-2.5-2.5h-1.4v5.1h1.4C65.7,106,66.6,104.8,66.6,103.4z"/>
				<path fill="#FFFFFF" d="M73,106.7l-0.6-1.4h-3.2l-0.6,1.4h-0.9l2.6-6.5h1l2.6,6.5H73z M70.8,101l-1.4,3.5h2.8L70.8,101z"/>
				<path fill="#FFFFFF" d="M78.5,106.7l-1.7-2.6h-1.3v2.6h-0.8v-6.5h2.6c1.2,0,2,0.8,2,2c0,1.2-0.8,1.8-1.7,1.9l1.8,2.6H78.5z
					 M78.6,102.2c0-0.7-0.5-1.2-1.3-1.2h-1.7v2.5h1.7C78.1,103.4,78.6,102.9,78.6,102.2z"/>
				<path fill="#FFFFFF" d="M80.7,106.7v-6.5h0.8v6.5H80.7z"/>
				<path fill="#FFFFFF" d="M87.7,106.7l-0.6-1.4h-3.2l-0.6,1.4h-0.9l2.6-6.5h1l2.6,6.5H87.7z M85.5,101l-1.4,3.5h2.8L85.5,101z"/>
			</g>
		</g>
	</g>
	<circle fill="#FFDA17" cx="85.4" cy="21" r="15.5"/>
	<g>
		<g>
			<path d="M80.6,13.1v12.1c-0.8-0.4-1.9-0.4-3,0.2c-1.6,0.8-2.1,2.3-1.5,3.3c0.6,1,2.3,1.4,3.9,0.5c1.2-0.6,1.7-1.6,1.7-2.4v-9.2
				l9.5-1.9V24c-0.8-0.4-1.9-0.4-3,0.2c-1.6,0.8-2.1,2.3-1.5,3.3c0.6,1,2.3,1.4,3.9,0.5c1.2-0.6,1.7-1.6,1.7-2.4V10.7L80.6,13.1z
				 M80.6,13.1"/>
		</g>
	</g>
	<circle fill="#D3DB23" cx="20.1" cy="35.2" r="11.6"/>
	<g>
		<g>
			<path fill="#FFFFFF" d="M16.6,29.4"/>
		</g>
	</g>
	<g>
		<path d="M20.6,27.3h-1.1v10.9c-0.6-0.4-1.4-0.6-2.3-0.6c-1.9,0-3.4,1-3.4,2.3c0,1.3,1.5,2.3,3.4,2.3c1.9,0,3.4-1,3.4-2.3v-9.2
			c2.9-0.5,4.6,2.9,5.7,4.6C25.6,27.3,20.6,27.3,20.6,27.3L20.6,27.3z M20.6,27.3"/>
	</g>
</g>
</svg>
