<?xml version="1.0" encoding="utf-8"?>
<!-- Generator: Adobe Illustrator 18.0.0, SVG Export Plug-In . SVG Version: 6.00 Build 0)  -->
<!DOCTYPE svg PUBLIC "-//W3C//DTD SVG 1.1//EN" "http://www.w3.org/Graphics/SVG/1.1/DTD/svg11.dtd">
<svg version="1.1" id="Layer_1" xmlns="http://www.w3.org/2000/svg" xmlns:xlink="http://www.w3.org/1999/xlink" x="0px" y="0px"
	 viewBox="0 0 117 141" enable-background="new 0 0 117 141" xml:space="preserve">
<g>
	<path opacity="0.2" fill="#221F1F" d="M108,97.3v-31c0-1.7-0.8-3.2-2.1-4.2l3-4.5c1.5-2.3,1.7-5.2,0.5-7.6
		c-1.2-2.4-3.6-4.1-6.4-4.2l-3.7-0.2c0.7-2.1,0.5-4.7-0.5-7.9c0.6-1,1-2.3,1.3-3.8c0.1-0.3,0.1-0.5,0.2-0.8c0.1-0.5,0.1-1.1,0.1-1.3
		c0.1-2.5-0.3-5.2-0.8-7.4c-0.2,0.6-0.5,1.3-0.8,1.9c-0.5,0.6-1,1.3-1.5,1.9c-1.2,1.2-2.5,2-4.1,2.4l-2.5,0.3
		c-1.3,0-2.5-0.2-3.6-0.8c-1.2-0.4-2.2-1-3-1.9c-0.9-0.8-1.6-1.8-1.9-3c-0.6-1.1-0.9-2.3-0.8-3.6v-0.4c0-1.6,0.4-3,1.1-4.4
		c-0.2-0.6-0.4-1.2-0.7-1.8c0-0.1,0-0.1-0.1-0.1c2.6-0.5,4.4-2.8,4.2-5.5c-0.2-2.8-2.5-4.9-5.2-4.9h0C79.4,4.5,73,4.6,67.9,7
		c-0.2,0.1-0.7,0.3-1.2,0.6c-0.2,0.1-0.5,0.3-0.7,0.4c-3.5,2.3-4.7,5.2-5.1,7.3c-0.6,3,0.2,6.2,2.2,9.6c-0.3,0.6-0.6,1.2-0.8,1.9
		c-0.2,0.3-0.3,0.6-0.4,1l-0.2,0.5c-0.2,0.6-0.3,1.1-0.3,1.7c-0.5,1.3-1.2,3-1.9,4.8c-0.3,0-0.6,0-0.9,0c-0.6,0-1.1,0-1.7,0
		c0-1.4,0-3.3-0.8-5.3c-1.3-3-4.2-5.1-7.3-5.1c-0.1,0-0.3,0-0.4,0L47.6,21c-0.8-3.9-4.3-6.7-8.3-6.7c-0.4,0-0.8,0-1.2,0.1
		c-5.1,0.7-14.9,3.4-22.2,13c-2.6,3.4-2.2,8.2,0.9,11.2l3.5,3.3c-0.9,2-1.2,4.1-0.8,6.2c0.4,1.7,1.2,3.2,2.3,4.3
		c-0.5,0.7-1,1.4-1.4,2.1L6.2,59.4c-2.5,0.7-4.4,2.7-5.1,5.2C0.4,67.2,1.2,70,3,71.9l5.8,5.8v19.5c-2.7,1.2-4.6,3.9-4.6,7.1v28.3
		c0,4.3,3.5,7.7,7.7,7.7h92.8c4.3,0,7.7-3.5,7.7-7.7v-28.3C112.4,101.2,110.6,98.5,108,97.3z"/>
	<path fill="#FFFFFF" d="M116.1,128.8v-28.3c0-3.1-1.8-5.7-4.4-7v-31c0-1.7-0.8-3.2-2.1-4.2l3-4.5c1.5-2.3,1.7-5.2,0.5-7.6
		c-1.2-2.4-3.6-4.1-6.4-4.2l-3.7-0.2c0.7-2.1,0.5-4.7-0.5-7.9c0.6-1,1-2.3,1.3-3.8c0.1-0.3,0.1-0.5,0.2-0.8c0.1-0.5,0.1-1.1,0.1-1.3
		c0.3-5.5-2-11.3-2.5-12.6c0,0,0-0.1,0-0.1c-0.8-2-2.8-3.3-4.8-3.3c-0.5,0-1.1,0.1-1.6,0.2c-2.6,0.8-4.1,3.4-3.5,6
		c-0.1,0-0.1,0-0.2,0c-0.2,0-0.5,0-0.7,0c-1.7,0-3.2,0.3-4.4,0.8c0.5-2,0.6-4.7-0.9-7.8c0-0.1,0-0.1-0.1-0.1
		c2.6-0.5,4.4-2.8,4.2-5.5c-0.2-2.8-2.5-4.9-5.2-4.9c0,0,0,0,0,0c-1.2,0-7.6,0.1-12.7,2.5c-0.2,0.1-0.7,0.3-1.2,0.6
		C70.2,4,70,4.2,69.8,4.3c-3.5,2.3-4.7,5.2-5.1,7.3c-0.6,3,0.2,6.2,2.2,9.6c-0.3,0.6-0.6,1.2-0.8,1.9c-0.2,0.3-0.3,0.6-0.4,1
		l-0.2,0.5c-0.2,0.6-0.3,1.1-0.3,1.7c-0.5,1.3-1.2,3-1.9,4.8c-0.3,0-0.6,0-0.9,0c-0.6,0-1.1,0-1.7,0c0-1.4,0-3.3-0.8-5.3
		c-1.3-3-4.2-5.1-7.3-5.1c-0.1,0-0.3,0-0.4,0l-0.8-3.5c-0.8-3.9-4.3-6.7-8.3-6.7c-0.4,0-0.8,0-1.2,0.1c-5.1,0.7-14.9,3.4-22.2,13
		c-2.6,3.4-2.2,8.2,0.9,11.2l3.5,3.3c-0.9,2-1.2,4.1-0.8,6.2c0.4,1.7,1.2,3.2,2.3,4.3c-0.5,0.7-1,1.4-1.4,2.1L9.9,55.7
		c-2.5,0.7-4.4,2.7-5.1,5.2c-0.7,2.6,0.1,5.4,1.9,7.2l5.8,5.8v19.5c-2.7,1.2-4.6,3.9-4.6,7.1v28.3c0,4.3,3.5,7.7,7.7,7.7h92.8
		C112.7,136.5,116.1,133,116.1,128.8z"/>
	<g>
		<g>
			<g>
				<path fill="#A57C50" d="M81.2,34.7l2.5,2.5c0,0-44.3,43.6-47.8,44.2C32.3,81.9,81.2,34.7,81.2,34.7z"/>
				<path fill="#CCCECF" d="M81.1,35.1c0,0,1.6-3.1,4.4-3.6l1.7,1.6c0,0-1.6,4.2-4.3,4.4L81.1,35.1z"/>
				<path fill="#111111" d="M97.5,27.3c-0.7-1.2-1.3-1.3-2.4-2c-0.7-0.5-1.3-1.1-1.5-1.9c-0.7,0.2-1.5,0.2-2.4,0.2
					c-7.5-0.4-6.3,8.1-6.3,8.1l2.1,1.8c8.8,2.5,11.5-1,11.8-5.3C98.3,28.1,97.8,27.8,97.5,27.3z"/>
				<path fill="#FFDA17" d="M93.2,23.4c1.6,1.2,3.2,2.5,4.8,3.8c0.3,0.2,0.5,0.4,0.8,0.6c0.3-4.8-2.2-10.6-2.2-10.6
					S98.3,22.6,93.2,23.4z"/>
				<path fill="#FFDA17" d="M93.2,23.4c-0.3,0.3-0.8,0.4-1.1,0.7c-0.7,0.7-0.1,0.5,0.4,0.5c1.7-0.1,0.7,1.3,0.3,2.1
					c-1.2,1.9,1.4,0.2,2.1,0.7c0.5,0.4,0.3,1.1,1.1,0.9c0.8-0.2,0.9-1,1.8-0.3c0.3,0.2,1,1.1,1,0.6c0-0.3,0-0.7,0-0.8l-0.9-2.2
					c0,0-1.5-0.6-1.7-0.7C96.2,24.9,93.2,23.4,93.2,23.4z"/>
			</g>
			<g>
				<path fill="#A57C50" d="M74.3,27l-3.2-1.4c0,0-23.2,57.7-22.4,61.2C49.5,90.3,74.3,27,74.3,27z"/>
				<path fill="#CCCECF" d="M74,27.2c0,0,2.2-2.6,1.6-5.4l-2.1-0.9c0,0-3.3,3.1-2.4,5.6L74,27.2z"/>
				<path fill="#111111" d="M80.1,11.7c-0.2,0-0.5,0-0.7,0c-1-0.2-2-0.3-2.8-1c-0.5-0.4-0.6-0.8-0.9-1.3c-0.1-0.1-0.2-0.3-0.3-0.4
					c-0.3-0.2-0.7-0.4-1-0.6C74.1,8.4,74,8.2,73.8,8c-4.1,2-6.5,5.8-0.7,13.1l2.5,1.2c0,0,8.3-2.1,5.1-8.9
					C80.4,12.8,80.2,12.2,80.1,11.7z"/>
				<path fill="#9DB53A" d="M80,11.6c-1.8-1-3.6-2-5.4-3c-0.3-0.2-0.6-0.3-0.9-0.5C78.1,6,84.4,6,84.4,6S78.9,6.6,80,11.6z"/>
				<path fill="#9DB53A" d="M80.1,11.6c-0.1,0.4-0.1,0.9-0.2,1.3c-0.4,0.9-0.4,0.3-0.6-0.2c-0.5-1.6-1.5-0.2-2,0.5
					c-1.3,1.8-0.8-1.2-1.5-1.6c-0.5-0.3-1.1,0.2-1.2-0.7C74.3,10.1,75,9.7,74,9.1c-0.3-0.2-1.4-0.5-1-0.7c0.2-0.1,0.6-0.3,0.7-0.3
					l2.4,0c0,0,1.2,1.2,1.3,1.3C77.5,9.4,80.1,11.6,80.1,11.6z"/>
			</g>
			<path fill="#CCCECF" d="M73.9,27.8l-3.3-1.1c-0.2-0.1-0.3-0.2-0.2-0.4l0.2-0.5c0.1-0.2,0.2-0.3,0.4-0.2l3.3,1.1
				c0.2,0.1,0.3,0.2,0.2,0.4l-0.2,0.5C74.3,27.8,74.1,27.9,73.9,27.8z"/>
			
				<rect x="80.2" y="35.7" transform="matrix(0.6923 0.7216 -0.7216 0.6923 51.5011 -48.2432)" fill="#CCCECF" width="4.1" height="1.2"/>
		</g>
		<path fill="#FFDA17" d="M97.1,34L97.1,34C97.1,34,97.1,34,97.1,34c-0.2-0.4-0.3-0.8-0.5-1.1c-0.4-1.5-0.2-2.8-0.1-3.3
			c0.3-1.1,0.7-2.3,1.4-3.1h-4.1c0,0,0.8,1.1,1.5,2.8c0.1,0.2,0.2,0.5,0.2,0.7c0.3,1.1,0,2.3-0.3,3.1c-0.1,0.3-0.3,0.6-0.4,1v0l0,0
			c-1.1,3-2.3,7.7,1.1,7.7C99.4,41.7,98.2,37,97.1,34z"/>
		<g>
			<path fill="#C92128" d="M41.9,50.3c1.7-0.5-3.3,5-3.8,6.7L35,69l-3.2,11.9c-0.5,1.7-2.6,2.3-3.8,1l-8.7-8.7l-8.7-8.7
				c-1.2-1.2-0.7-3.3,1-3.8L41.9,50.3z"/>
			<path fill="#C92128" d="M108.3,51c1-1.6,0-3.6-1.9-3.8l-13.1-0.8l-13.1-0.8c-1.9-0.1-3.2,1.8-2.3,3.5l5.8,11.8l5.8,11.8
				c0.8,1.7,4.1,0.4,5.1-1.2L108.3,51z"/>
			<path fill="#C92128" d="M31.1,92.8c-1.3-1.7,0.8-7.1,2.9-7.4l16.5,4.3l15-2.3c2.1-0.3,3.8,1.8,3,3.8L63,105.2l-5.5,14.1
				c-0.8,2-3.4,2.4-4.8,0.7L31.1,92.8z"/>
			<path fill="#C92128" d="M84.9,83.4c-1.7,0.9-2.3-0.1-4.3,0.2c-4.4,0.5-2.8,5.4-6,2.9l-10,0.9c-2.1,0.2-3.3,2.6-2,4.4l8.8,12.3
				l8.8,12.3c1.2,1.7,3.9,1.5,4.8-0.5l12.2-35c-0.1,0-5.8,2.4-5.9,2.4C89.4,83.7,86.5,83.8,84.9,83.4z"/>
			<path fill="#C92128" d="M98.6,66.4c2.5,20.1-12.6,35.7-33.3,38.3c-20.7,2.6-39.1-9-41.6-29c-2.5-20.1,12.5-36.4,33.2-39
				S96.1,46.3,98.6,66.4z"/>
			<g>
				<path opacity="0.2" fill="#221F1F" d="M82.4,80.6c0,0-9.9,27.5-37,6.2L70.1,80L82.4,80.6z"/>
				<path fill="#4F0B0B" d="M34.3,50.3c0.9-0.2,1.7-0.5,2.4-1c0,0,0.1,0,0.1,0c2.3-0.2,3.9-1.4,5.9-2.3c0.8-0.3,1.5-0.6,2.3-0.9l0,0
					c0.3,0,0.9-0.2,1.2-0.3c3.3-0.7,6.6-1,10-1.2c2.1-0.1,4.1-0.1,6.2-0.1c0.1,0,0.1,0,0.2,0c0,0,0.1,0,0.1,0c0.4,0,0.9,0,1.3,0
					c1,0,2.1,0,3.1,0.1c2.4,0,4.8,0.1,7.2,0.1c0.5,0,1,0,1.6,0c0.2,0,1.2,0,1.1,0c1.5,0,2.7-0.1,4.3-0.6c0.3,0.1,0.7,0.1,1,0.1
					c-2.1,14.7-0.1,19.2,2.3,33.8c-13.1,16.8-27.7,18.1-43.9,5.5C39.4,68.8,39.9,63.9,34.3,50.3z"/>
				<path d="M53.3,57.4L53.3,57.4c0.1-0.1,6.6-4.3,4.8,2.3c-0.7,2.2-1.5,4.7-1.3,5.8c0.2,2.1,2.1,3.6,4.2,3.4
					c2.1-0.2,3.6-2.1,3.4-4.2c-0.1-1-1.2-3.2-2.4-5.1c-3.5-6.2,3.4-3.8,4-3.6c3.8,1.7,6.6,5.2,7.1,9.5C73.7,72,68.8,77.9,62,78.6
					c-6.8,0.7-12.9-3.9-13.6-10.4C47.9,63.8,49.9,59.8,53.3,57.4z"/>
				<path fill="#4F0B0B" d="M83.9,75.8c-0.2,0.2-6.6-9.3-22.4-3.1c0,0-9.9-2.6-20.3,3.9l0.3,4.6l26.8,3.5l7.9-2.9l7.7-5.6"/>
				<g>
					<defs>
						<path id="SVGID_184_" d="M63.8,90.7c6.9-0.9,13.4-5.2,19.6-13c-0.4-2.6-0.9-4.8-1.2-6.9c-1.7-9.3-2.7-14.5-1.1-26.1
							c-7.3-3.3-15.3-4.5-23.3-3.5c-8,1-15.6,4.2-22.2,9.2c4.6,11.2,5,16.7,5.7,26.6c0.1,1.8,0.3,3.7,0.4,5.9
							C49.5,89,57,91.6,63.8,90.7z"/>
					</defs>
					<clipPath id="SVGID_2_">
						<use xlink:href="#SVGID_184_"  overflow="visible"/>
					</clipPath>
					<path clip-path="url(#SVGID_2_)" fill="#F3A9C2" d="M85.5,80.2c-6.8-10.2-17.3-8.5-22.6-6.8c8.5,5.2,9,10.8,9,10.8
						c-2.3-4.6-6.4-7.1-9.2-8.4c-1.6-0.7-2.9-1-3.1-1.1l-0.1,0.1l0-0.1l0,0C44.2,71.5,36.3,82.6,36,83c0.2-0.3,0.8-1,17.2,13.1
						C70.4,110.7,97.1,97.6,85.5,80.2z"/>
					<g clip-path="url(#SVGID_2_)">
						<path fill="#EC7198" d="M86.1,76.3c0.9,0.4,1.4,1.4,1.6,2.3c0.2,1,0.1,2,0.1,2.9c-0.2,2.2-0.3,4.4-1.2,6.5c-0.9,2-2.3,3.6-4,5
							c-4.1,3.6-9.3,6.1-14.7,7.1c-5.4,1-11.1,0.5-16.2-1.5c-2.8-1.1-5.5-2.6-8-4.3c-1.4-0.9-2.8-1.9-3.9-3.3s-1.8-3-1.6-4.7
							c0.3-2.7,0.5-7.1,3.1-7.6c3.2-0.7,7.6,2.3,10.4,3.6c3.4,1.6,6.8,3.3,10.3,4.6c2,0.8,4.3,1.2,6.4,0.8c4.4-1,6.7-5.7,10.3-8.1
							c0.9-0.6,2-1.1,3-1.5c1.1-0.3,2.3-0.3,3.2-0.8C85.3,77.2,86,76.2,86.1,76.3z"/>
					</g>
				</g>
				<g>
					<path fill="#FFFFFF" d="M82.2,44.2c-16.3-4.7-34.6-2.2-48,6l0,0c0.1,0.3,1.8,0,2.1,0c1.1-0.1,2.1-0.1,3.2,0
						c1.5,0.2,2.5,0.7,3.5,1.5c0.9,0.7,1.9,1.4,3.4,1.3c3.4-0.3,3.9-3.4,7.2-3.7c3.3-0.3,4.1,2.8,7.5,2.3c3.4-0.5,3.3-3.6,6.7-4.1
						c3.3-0.5,4.7,2.5,8,1.8C79.2,48.6,78.9,44.9,82.2,44.2z"/>
				</g>
				<path fill="#C5C6C8" d="M46.5,52.9C45,53,44,52.3,43.1,51.6c-0.2-0.2-0.5-0.3-0.7-0.5c0.1,0,0.2,0,0.2,0
					c1.1,0.1,2.1,0.7,3.2,0.7c1-0.1,1.8-0.7,2.6-1.3c2.1-1.4,4.7-2.4,7.1-1.8c1,0.3,1.9,0.8,2.9,1.1c1.6,0.4,3.3,0.1,4.7-0.8
					c0.9-0.6,1.6-1.5,2.5-2c1.4-0.8,3.2-0.7,4.8-0.2c1.6,0.4,3.1,1.1,4.8,1.3c1.1,0.1,2.3,0,3.3-0.5c-0.6,0.8-1.4,1.5-2.6,1.8
					c-3.4,0.7-4.7-2.3-8-1.8c-3.3,0.5-3.2,3.6-6.7,4.1c-3.4,0.5-4.2-2.6-7.5-2.3C50.4,49.5,49.9,52.6,46.5,52.9z"/>
			</g>
			<g opacity="0.2">
				<path fill="#221F1F" d="M92.7,87.2c-1.8,3.7-3.9,7.6-7.2,10.1c-3.1,2.4-6,1.9-9,1.2c0.1,0.2,0.2,0.5,0.3,0.8
					c0.6,1.9,0.3,4.4-0.5,6.3c3.5,1.9,6.8,4.2,10.1,6.4l10.7-30.6c0,0,0-0.1,0-0.1c0,0,0-0.1,0-0.1c0.4-1.1,0.7-2.2,0.9-3.4
					C95.9,80.5,94.3,83.9,92.7,87.2z"/>
			</g>
			<g>
				<path d="M49.4,33l-3.1-14.7c-0.4-1.7-1.9-2.8-3.6-2.5c-4.4,0.6-12.6,2.9-18.8,11c-1,1.3-0.8,3.2,0.3,4.3L35,41.4L49.4,33z"/>
				<path fill="#C5C6C8" d="M30.9,37.5c4.1-6.6,12.4-9,17.4-9.8l1.1,5.3l-1.6,1l-12.9,7.4L30.9,37.5z"/>
				<g>
					<path d="M52.2,26c-0.6,0.1-1.2,0.5-1.6,0.9c-2.2,2.1-2.5,5.8-4.8,7.7c-2.1,1.8-5.2,1.6-8,1.6c-2.3,0-4.6,0.3-6.5,1.5
						c-1.9,1.2-3.3,3.5-2.9,5.7c0.6,2.8,3.1,2.4,4.6,0.7c2.8-3.2,6.7-5.2,10.5-6.8c2.1-0.8,4.2-1.5,6.3-2.1c1.5-0.5,4.2-0.6,5.2-2.1
						c0.3-0.5,0.4-1.1,0.4-1.7c0-1.2,0.1-2.4-0.4-3.6S53.4,25.9,52.2,26z"/>
				</g>
			</g>
		</g>
		<path fill="#528C95" d="M108.4,131.3H15.6c-1.4,0-2.5-1.1-2.5-2.5v-28.3c0-1.4,1.1-2.5,2.5-2.5h92.8c1.4,0,2.5,1.1,2.5,2.5v28.3
			C110.9,130.2,109.8,131.3,108.4,131.3z"/>
		<g>
			<path fill="#FFFFFF" d="M28.1,109c0-2.9,2.3-5,5.2-5c3,0,5.2,2,5.2,5c0,2.9-2.3,5-5.2,5C30.4,114,28.1,112,28.1,109z M35.6,109
				c0-1.3-0.9-2.4-2.3-2.4c-1.4,0-2.3,1.1-2.3,2.4c0,1.3,0.9,2.4,2.3,2.4C34.7,111.4,35.6,110.3,35.6,109z"/>
			<path fill="#FFFFFF" d="M39.6,113.8v-9.6h7.3v2.5h-4.4v0.9h4.3v2.5h-4.3v3.6H39.6z"/>
			<path fill="#FFFFFF" d="M48.1,113.8v-9.6H51v9.6H48.1z"/>
			<path fill="#FFFFFF" d="M52.1,109c0-3,2.3-5,5.3-5c2.5,0,3.8,1.5,4.4,2.8l-2.5,1.2c-0.2-0.7-1-1.4-1.9-1.4
				c-1.4,0-2.3,1.1-2.3,2.4c0,1.3,0.9,2.4,2.3,2.4c0.9,0,1.6-0.6,1.9-1.4l2.5,1.1c-0.6,1.3-1.8,2.8-4.4,2.8
				C54.3,114,52.1,112,52.1,109z"/>
			<path fill="#FFFFFF" d="M62.6,113.8v-9.6h2.9v9.6H62.6z"/>
			<path fill="#FFFFFF" d="M73.5,113.8l-3.5-4.9v4.9H67v-9.6h3l3.3,4.5v-4.5h2.9v9.6H73.5z"/>
			<path fill="#FFFFFF" d="M84.2,113.8l-0.3-1.1h-3.4l-0.3,1.1h-3.3l3.5-9.6H84l3.5,9.6H84.2z M82.1,107.1l-0.9,3.1h1.9L82.1,107.1z
				"/>
			<path fill="#FFFFFF" d="M87.3,112.4l1.5-2.2c0.7,0.7,1.8,1.2,3.1,1.2c0.5,0,1.1-0.1,1.1-0.5c0-0.9-5.3,0-5.3-3.8
				c0-1.6,1.4-3.2,4-3.2c1.6,0,3,0.4,4.1,1.3l-1.6,2.1c-0.8-0.6-1.9-0.9-2.8-0.9c-0.6,0-0.7,0.2-0.7,0.4c0,0.9,5.3,0.1,5.3,3.7
				c0,2.1-1.6,3.3-4.1,3.3C89.7,114,88.3,113.4,87.3,112.4z"/>
		</g>
		<g>
			<path fill="#FFFFFF" d="M42.7,125l-1.7-2.6h-1.3v2.6h-0.8v-6.5h2.6c1.2,0,2,0.8,2,2c0,1.2-0.8,1.8-1.7,1.9l1.8,2.6H42.7z
				 M42.7,120.5c0-0.7-0.5-1.2-1.3-1.2h-1.7v2.5h1.7C42.2,121.7,42.7,121.2,42.7,120.5z"/>
			<path fill="#FFFFFF" d="M44.8,125v-6.5h0.8v6.5H44.8z"/>
			<path fill="#FFFFFF" d="M46.8,124.1l0.5-0.6c0.4,0.5,1.1,0.9,2,0.9c1.2,0,1.5-0.6,1.5-1.1c0-1.7-3.8-0.7-3.8-3.1
				c0-1.1,1-1.8,2.2-1.8c1,0,1.8,0.3,2.3,0.9l-0.5,0.6c-0.5-0.5-1.2-0.8-1.9-0.8c-0.8,0-1.3,0.4-1.3,1c0,1.5,3.8,0.6,3.8,3
				c0,0.9-0.6,1.9-2.4,1.9C48.1,125.1,47.3,124.7,46.8,124.1z"/>
			<path fill="#FFFFFF" d="M57.4,125l-0.6-1.4h-3.2L53,125h-0.9l2.6-6.5h1l2.6,6.5H57.4z M55.2,119.4l-1.4,3.5h2.8L55.2,119.4z"/>
			<path fill="#FFFFFF" d="M59.2,125v-6.5h2.2c2,0,3.3,1.4,3.3,3.3c0,1.8-1.3,3.2-3.3,3.2H59.2z M63.9,121.8c0-1.4-0.9-2.5-2.5-2.5
				H60v5.1h1.4C63,124.3,63.9,123.2,63.9,121.8z"/>
			<path fill="#FFFFFF" d="M70.2,125l-0.6-1.4h-3.2l-0.6,1.4h-0.9l2.6-6.5h1l2.6,6.5H70.2z M68,119.4l-1.4,3.5h2.8L68,119.4z"/>
			<path fill="#FFFFFF" d="M75.8,125l-1.7-2.6h-1.3v2.6H72v-6.5h2.6c1.2,0,2,0.8,2,2c0,1.2-0.8,1.8-1.7,1.9l1.8,2.6H75.8z
				 M75.8,120.5c0-0.7-0.5-1.2-1.3-1.2h-1.7v2.5h1.7C75.3,121.7,75.8,121.2,75.8,120.5z"/>
			<path fill="#FFFFFF" d="M77.9,125v-6.5h0.8v6.5H77.9z"/>
			<path fill="#FFFFFF" d="M84.9,125l-0.6-1.4h-3.2l-0.6,1.4h-0.9l2.6-6.5h1l2.6,6.5H84.9z M82.7,119.4l-1.4,3.5h2.8L82.7,119.4z"/>
		</g>
		<g>
			<rect x="90" y="62.9" fill="#F38420" width="16.5" height="35.2"/>
			<g>
				<path fill="#FFDA17" d="M90,64.7c0.6,0.1,1.3,0,2-0.2c0.3-0.1,0.6-0.2,0.9-0.2c1,0,1.7,1,1.9,2.1c0.2,1,0,2.1,0.3,3
					c0.3,1,1.4,1.8,2.3,1.4c1.1-0.6,0.8-2.5,1.9-3.3c0.8-0.6,1.9,0,2.7,0.7c0.7,0.7,1.3,1.6,2.3,1.9c0.8,0.3,1.7,0,2.3-0.5v-6.6H90
					V64.7z"/>
			</g>
			<path fill="#F3EDE5" d="M92.8,74c-1,0-2,0.2-2.9,0.6v14.3c0.9,0.4,1.9,0.6,2.9,0.6c4.2,0,7.7-3.4,7.7-7.7
				C100.5,77.5,97.1,74,92.8,74z"/>
			<polygon opacity="0.2" fill="#7A4A3B" points="98.5,98.1 106.5,98.1 106.5,62.9 100.4,62.9 			"/>
			<rect x="91.4" y="93" fill="#F3EDE5" width="6.8" height="0.9"/>
		</g>
		<g>
			<g>
				<polygon fill="#C5A869" points="38.9,69.5 22.2,69.5 22.2,99.8 38.9,99.1 				"/>
				<polygon fill="#B19561" points="17.8,98.4 22.2,99.8 22.2,69.5 17.8,71.1 				"/>
				<polygon fill="#F2E4D3" points="38.9,77.3 22.2,82.7 22.2,96.1 38.9,92.3 				"/>
				<line fill="none" stroke="#F2E4D3" stroke-width="0.1064" stroke-miterlimit="10" x1="38.9" y1="75.6" x2="22.2" y2="81.3"/>
				<line fill="none" stroke="#F2E4D3" stroke-width="0.1064" stroke-miterlimit="10" x1="38.9" y1="94.1" x2="22.2" y2="97.5"/>
				<polygon fill="#F2E4D3" points="24.1,72 24.5,73.2 23.2,73.3 24.1,74.3 23,74.9 24.2,75.4 23.4,76.4 24.7,76.4 24.4,77.6 
					25.6,77.1 25.8,78.3 26.6,77.3 27.4,78.4 27.7,77.2 28.9,77.9 28.7,76.6 30,76.7 29.3,75.6 30.5,75.3 29.5,74.5 30.5,73.7 
					29.2,73.5 29.7,72.3 28.5,72.6 28.5,71.3 27.5,72.1 27,70.9 26.4,72 25.4,71.1 25.3,72.4 				"/>
			</g>
			<polygon fill="#C5A869" points="21.4,71.7 21.4,74.8 18.3,75.1 18.4,72.3 			"/>
			<polygon fill="#C5A869" points="21.4,76.2 18.4,76.2 18.9,97.1 21.4,98.2 			"/>
		</g>
		<g>
			<g>
				<polygon fill="#C5A869" points="50.2,78.4 38.7,78.4 38.7,99.4 50.2,99 				"/>
				<polygon fill="#B19561" points="35.6,98.4 38.7,99.4 38.7,78.4 35.6,79.6 				"/>
				<polygon fill="#F2E4D3" points="50.2,83.9 38.7,87.6 38.7,96.9 50.2,94.2 				"/>
				
					<line fill="none" stroke="#F2E4D3" stroke-width="7.358304e-02" stroke-miterlimit="10" x1="50.2" y1="82.7" x2="38.7" y2="86.6"/>
				
					<line fill="none" stroke="#F2E4D3" stroke-width="7.358304e-02" stroke-miterlimit="10" x1="50.2" y1="95.5" x2="38.7" y2="97.9"/>
				<polygon fill="#F2E4D3" points="40,80.2 40.3,81 39.4,81.1 40,81.7 39.2,82.2 40.1,82.5 39.5,83.2 40.4,83.2 40.2,84.1 41,83.7 
					41.2,84.6 41.8,83.9 42.3,84.6 42.5,83.8 43.3,84.2 43.2,83.3 44.1,83.5 43.6,82.7 44.5,82.5 43.7,81.9 44.4,81.4 43.5,81.2 
					43.9,80.4 43,80.6 43.1,79.7 42.3,80.2 42,79.4 41.6,80.2 40.9,79.6 40.9,80.5 				"/>
			</g>
			<polygon fill="#C5A869" points="38.1,80 38.1,82.1 36,82.3 36.1,80.4 			"/>
			<polygon fill="#C5A869" points="38.1,83.1 36.1,83.1 36.4,97.6 38.1,98.3 			"/>
		</g>
	</g>
</g>
</svg>
