<?xml version="1.0" encoding="utf-8"?>
<!-- Generator: Adobe Illustrator 18.0.0, SVG Export Plug-In . SVG Version: 6.00 Build 0)  -->
<!DOCTYPE svg PUBLIC "-//W3C//DTD SVG 1.1//EN" "http://www.w3.org/Graphics/SVG/1.1/DTD/svg11.dtd">
<svg version="1.1" id="Layer_1" xmlns="http://www.w3.org/2000/svg" xmlns:xlink="http://www.w3.org/1999/xlink" x="0px" y="0px"
	 viewBox="0 0 113 121" enable-background="new 0 0 113 121" xml:space="preserve">
<g>
	<path opacity="0.2" fill="#221F1F" d="M94.7,4.4H14.6C8.7,4.4,3.9,9.2,3.9,15V78c-2.1,1.4-3.4,3.7-3.4,6.4v28.3
		c0,4.3,3.5,7.7,7.7,7.7H101c4.3,0,7.7-3.5,7.7-7.7V84.4c0-2.7-1.4-5-3.4-6.4V15C105.4,9.2,100.6,4.4,94.7,4.4z"/>
	<path fill="#FFFFFF" d="M98.4,0.6H18.3c-5.9,0-10.7,4.8-10.7,10.7v62.9c-2.1,1.4-3.4,3.7-3.4,6.4v28.3c0,4.3,3.5,7.7,7.7,7.7h92.8
		c4.3,0,7.7-3.5,7.7-7.7V80.6c0-2.7-1.4-5-3.4-6.4V11.3C109.1,5.4,104.3,0.6,98.4,0.6z"/>
	<path d="M86.3,67.4c0.4-1,0.9-2.1,1.7-2.8c1.3-1.2,3.3-1.5,5.1-1.1c1.8,0.4,3.3,1.4,4.9,2.3c1.2,0.7,2.4,1.5,3.6,2.2l-10-0.5
		c-0.6,1.1-1.2,2.1-1.9,3l-7.6,12.5C82.8,77.7,84.2,72.4,86.3,67.4z"/>
	<g>
		<rect x="16.8" y="40" fill="#B89B77" width="83.1" height="38.6"/>
		<rect x="16.8" y="68.5" fill="#988056" width="83.1" height="10.1"/>
		<rect x="16.8" y="77.1" fill="#7F6846" width="83.1" height="1.6"/>
		<path fill="none" stroke="#988056" stroke-width="0.373" stroke-miterlimit="10" d="M17.8,43c27.1-0.2,54-0.2,80.9-0.2"/>
		<path fill="none" stroke="#988056" stroke-width="0.373" stroke-miterlimit="10" d="M98.8,65.7c-26.9,0-53.9,0-80.9,0.1"/>
		<path fill="none" stroke="#988056" stroke-width="0.373" stroke-miterlimit="10" d="M51.5,43c0.2,0-5.8,22.9-5.8,22.9"/>
		<path fill="none" stroke="#988056" stroke-width="0.373" stroke-miterlimit="10" d="M42.1,43c0.2,0-11.9,22.9-11.9,22.9"/>
		<path fill="none" stroke="#988056" stroke-width="0.373" stroke-miterlimit="10" d="M30.3,43c-3.7,5-8.4,9.6-12.5,14.2"/>
		<path fill="none" stroke="#988056" stroke-width="0.373" stroke-miterlimit="10" d="M61,43c-0.2,0,5.8,22.9,5.8,22.9"/>
		<path fill="none" stroke="#988056" stroke-width="0.373" stroke-miterlimit="10" d="M70.4,43c-0.2,0,11.9,22.9,11.9,22.9"/>
		<path fill="none" stroke="#988056" stroke-width="0.373" stroke-miterlimit="10" d="M82.1,43c3.6,5,8.3,9.4,12.4,14
			c1.5,1.7,3,3.3,4.5,5"/>
	</g>
	<g>
		<path fill="#C92128" d="M63.4,40.9c1.7-0.3-3.8,4.7-4.4,6.3l-4.2,11.6l-4.2,11.6c-0.6,1.6-2.8,2-3.9,0.7l-7.9-9.5l-7.9-9.5
			c-1.1-1.3-0.4-3.4,1.3-3.7L63.4,40.9z"/>
		<path fill="#C92128" d="M101,39.6c-1.4,0.3-2.4,1.8-1.8,3.3l1.8,4.7V39.6z"/>
		<path fill="#C92128" d="M101,33.7c-6.2-3.5-13.6-5.3-21.5-5C58.7,29.3,42.3,44.3,43,64.5c0.7,20.2,18,33.3,38.9,32.6
			C88.9,96.9,95.5,95,101,92V33.7z"/>
		<g>
			<path d="M100.9,74.7c0,0-12.3,26.5-37.4,2.9L88.8,73L100.9,74.7z"/>
			<path fill="#4F0B0B" d="M101,38.4c-0.8,0-1.5,0-2.4-0.1c0.1,0-0.9,0-1.1-0.1c-0.5,0-1-0.1-1.5-0.1c-2.4-0.2-4.8-0.5-7.2-0.7
				c-1-0.1-2.1-0.2-3.1-0.3c-0.4,0-0.9-0.1-1.3-0.1c0,0-0.1,0-0.1,0c0,0-0.1,0-0.2,0c-2.1-0.2-4.1-0.4-6.2-0.5
				c-3.3-0.2-6.7-0.1-10,0.3c-0.3,0-0.9,0.2-1.2,0.2l0,0c-0.8,0.2-1.6,0.4-2.4,0.7c-2.1,0.7-3.8,1.7-6.1,1.7c0,0-0.1,0-0.1,0
				c-0.7,0.4-1.6,0.7-2.5,0.8c4.4,14.1,3.5,18.9,3.4,33.7c14.3,13.3,28.2,14,41.9,0.7V38.4z"/>
			<path d="M74,49L74,49c0.1-0.1,7-3.7,4.5,2.7c-0.9,2.2-1.9,4.6-1.9,5.7c0,2.1,1.8,3.8,3.9,3.8c2.1,0,3.8-1.8,3.8-3.9
				c0-1-1-3.3-1.9-5.3c-2.9-6.5,3.7-3.5,4.3-3.2c3.7,2,6.2,5.7,6.2,10.1c0.1,6.5-5.3,11.9-12.2,12.1C74,71,68.3,65.8,68.2,59.2
				C68.1,54.9,70.5,51.1,74,49z"/>
			<path fill="#4F0B0B" d="M101,68.1c-2.8-2.6-8.9-6.4-20.2-3.1c0,0-9.7-3.5-20.5,2.1l-0.1,4.6l26.4,5.8l8.1-2.2l6.3-3.8V68.1z"/>
			<g>
				<defs>
					<path id="SVGID_186_" d="M81.6,83.1c6.9-0.3,13.9-4,20.6-11.2c-0.2-2.6-0.4-4.9-0.6-7c-0.9-9.4-1.4-14.7,1.2-26.1
						c-7-3.9-14.9-5.8-22.9-5.5c-8,0.3-15.9,2.8-22.9,7.2c3.6,11.6,3.5,17.1,3.3,27c0,1.8-0.1,3.7-0.1,5.9
						C67.5,80.1,74.7,83.3,81.6,83.1z"/>
				</defs>
				<clipPath id="SVGID_2_">
					<use xlink:href="#SVGID_186_"  overflow="visible"/>
				</clipPath>
				<path clip-path="url(#SVGID_2_)" fill="#F3A9C2" d="M101,70.3c-6-6.3-14.3-5.6-18.9-4.5c8,5.9,8,11.6,8,11.6
					c-1.9-4.7-5.7-7.6-8.4-9.1c-1.5-0.8-2.8-1.3-3-1.4l-0.1,0.1l0-0.1l0,0c-14.9-4.6-23.9,5.7-24.2,6.1c0.3-0.3,0.9-0.9,16,14.6
					c9.4,9.6,23.1,9.7,30.5,4.3V70.3z"/>
				<g clip-path="url(#SVGID_2_)">
					<path fill="#EC7198" d="M101,72c-0.1,0-0.2,0-0.4,0.1c-1.1,0.3-2.2,0.7-3.1,1.2c-3.8,2-6.5,6.6-11,7.2
						c-2.2,0.3-4.4-0.3-6.3-1.3c-3.4-1.7-6.6-3.6-9.8-5.5c-2.7-1.5-6.8-4.9-10.1-4.5c-2.7,0.3-3.3,4.7-3.8,7.3
						c-0.3,1.7,0.2,3.4,1.2,4.8c0.9,1.4,2.2,2.5,3.6,3.6c2.4,1.9,4.9,3.7,7.6,5c4.9,2.5,10.6,3.5,16,3c5.5-0.5,10.8-2.6,15.3-5.8
						c0.3-0.2,0.6-0.4,0.9-0.7V72z"/>
				</g>
			</g>
			<g>
				<path fill="#FFFFFF" d="M101,37.3c-15.1-4.9-32.2-3.7-45.3,2.8l0,0c0.1,0.3,1.8,0.1,2.1,0.1c1.1,0,2.1,0.1,3.2,0.3
					c1.5,0.3,2.5,0.9,3.4,1.8c0.8,0.7,1.8,1.5,3.3,1.6c3.4,0,4.2-3.1,7.5-3c3.3,0,3.9,3.1,7.3,3c3.4-0.2,3.6-3.3,7-3.4
					c3.3-0.2,4.4,2.9,7.8,2.5c1.9-0.2,2.8-1.5,3.8-2.7V37.3z"/>
			</g>
			<path fill="#C5C6C8" d="M67.6,43.9c-1.5,0-2.4-0.8-3.3-1.6c-0.2-0.2-0.5-0.4-0.7-0.6c0.1,0,0.2,0,0.2,0c1.1,0.2,2.1,0.9,3.2,0.9
				c1,0,1.9-0.6,2.7-1c2.2-1.3,4.9-2,7.3-1.1c1,0.4,1.8,1,2.8,1.4c1.5,0.6,3.3,0.4,4.7-0.4c0.9-0.5,1.7-1.3,2.7-1.8
				c1.5-0.7,3.3-0.4,4.8,0.2c1.6,0.6,3,1.4,4.7,1.7c1.1,0.2,2.3,0.2,3.3-0.2c-0.7,0.8-1.5,1.4-2.8,1.5c-3.4,0.4-4.5-2.7-7.8-2.5
				c-3.3,0.2-3.6,3.3-7,3.4c-3.4,0.2-4-2.9-7.3-3C71.8,40.8,71.1,43.9,67.6,43.9z"/>
		</g>
		<g>
			<path d="M72.3,24.3L70.5,9.4c-0.2-1.7-1.7-2.9-3.4-2.8c-4.4,0.2-12.8,1.8-19.7,9.3c-1.1,1.2-1.1,3.1,0,4.3l9.8,11.2L72.3,24.3z"
				/>
			<path fill="#C5C6C8" d="M53.5,27.2c4.6-6.3,13.2-7.9,18.2-8.3l0.7,5.4l-1.7,0.8l-13.5,6.2L53.5,27.2z"/>
			<g>
				<path d="M75.8,17.6c-0.6,0-1.2,0.3-1.7,0.7c-2.4,1.9-3,5.5-5.5,7.3c-2.3,1.6-5.3,1.1-8.1,0.9c-2.3-0.2-4.6-0.1-6.7,0.9
					c-2,1-3.6,3.2-3.4,5.4c0.3,2.8,2.9,2.7,4.5,1.1c3.1-2.9,7.1-4.6,11.1-5.8c2.1-0.6,4.3-1.1,6.4-1.6c1.6-0.3,4.3-0.3,5.3-1.6
					c0.4-0.5,0.5-1.1,0.5-1.7c0.2-1.2,0.3-2.4-0.1-3.6C78,18.6,77,17.6,75.8,17.6z"/>
			</g>
		</g>
	</g>
	<path fill="#1F6895" d="M104.8,111.4H12c-1.4,0-2.5-1.1-2.5-2.5V80.6c0-1.4,1.1-2.5,2.5-2.5h92.8c1.4,0,2.5,1.1,2.5,2.5v28.3
		C107.3,110.3,106.1,111.4,104.8,111.4z"/>
	<g>
		<path fill="#FFFFFF" d="M35.5,93.9v-9.6h5.1c2.2,0,3.4,1.5,3.4,3.3c0,1.8-1.2,3.3-3.4,3.3h-2.2v3H35.5z M41.1,87.6
			c0-0.5-0.4-0.8-0.9-0.8h-1.8v1.5h1.8C40.7,88.4,41.1,88.1,41.1,87.6z"/>
		<path fill="#FFFFFF" d="M50.4,93.9L50,92.8h-3.4l-0.3,1.1H43l3.5-9.6h3.6l3.5,9.6H50.4z M48.3,87.2l-0.9,3.1h1.9L48.3,87.2z"/>
		<path fill="#FFFFFF" d="M54.2,93.9v-9.6h2.9v7.1h3.6v2.5H54.2z"/>
		<path fill="#FFFFFF" d="M61.1,89.1c0-3,2.3-5,5.3-5c2.5,0,3.8,1.5,4.4,2.8l-2.5,1.2c-0.2-0.7-1-1.4-1.9-1.4
			c-1.4,0-2.3,1.1-2.3,2.4c0,1.3,0.9,2.4,2.3,2.4c0.9,0,1.6-0.6,1.9-1.4l2.5,1.1c-0.6,1.3-1.8,2.8-4.4,2.8
			C63.4,94.1,61.1,92.1,61.1,89.1z"/>
		<path fill="#FFFFFF" d="M71.1,89.1c0-2.9,2.3-5,5.2-5c3,0,5.2,2,5.2,5c0,2.9-2.3,5-5.2,5C73.4,94.1,71.1,92.1,71.1,89.1z
			 M78.6,89.1c0-1.3-0.9-2.4-2.3-2.4c-1.4,0-2.3,1.1-2.3,2.4c0,1.3,0.9,2.4,2.3,2.4C77.7,91.5,78.6,90.5,78.6,89.1z"/>
	</g>
	<g>
		<path fill="#FFFFFF" d="M39,105.1l-1.7-2.6h-1.3v2.6h-0.8v-6.5h2.6c1.2,0,2,0.8,2,2c0,1.2-0.8,1.8-1.7,1.9l1.8,2.6H39z
			 M39.1,100.6c0-0.7-0.5-1.2-1.3-1.2h-1.7v2.5h1.7C38.5,101.9,39.1,101.3,39.1,100.6z"/>
		<path fill="#FFFFFF" d="M41.2,105.1v-6.5H42v6.5H41.2z"/>
		<path fill="#FFFFFF" d="M43.1,104.2l0.5-0.6c0.4,0.5,1.1,0.9,2,0.9c1.2,0,1.5-0.6,1.5-1.1c0-1.7-3.8-0.7-3.8-3.1
			c0-1.1,1-1.8,2.2-1.8c1,0,1.8,0.3,2.3,0.9l-0.5,0.6c-0.5-0.5-1.2-0.8-1.9-0.8c-0.8,0-1.3,0.4-1.3,1c0,1.5,3.8,0.6,3.8,3
			c0,0.9-0.6,1.9-2.4,1.9C44.5,105.3,43.6,104.8,43.1,104.2z"/>
		<path fill="#FFFFFF" d="M53.7,105.1l-0.6-1.4h-3.2l-0.6,1.4h-0.9l2.6-6.5h1l2.6,6.5H53.7z M51.5,99.5l-1.4,3.5h2.8L51.5,99.5z"/>
		<path fill="#FFFFFF" d="M55.5,105.1v-6.5h2.2c2,0,3.3,1.4,3.3,3.3c0,1.8-1.3,3.2-3.3,3.2H55.5z M60.2,101.9c0-1.4-0.9-2.5-2.5-2.5
			h-1.4v5.1h1.4C59.3,104.4,60.2,103.3,60.2,101.9z"/>
		<path fill="#FFFFFF" d="M66.6,105.1l-0.6-1.4h-3.2l-0.6,1.4h-0.9l2.6-6.5h1l2.6,6.5H66.6z M64.4,99.5L63,103h2.8L64.4,99.5z"/>
		<path fill="#FFFFFF" d="M72.1,105.1l-1.7-2.6h-1.3v2.6h-0.8v-6.5H71c1.2,0,2,0.8,2,2c0,1.2-0.8,1.8-1.7,1.9l1.8,2.6H72.1z
			 M72.2,100.6c0-0.7-0.5-1.2-1.3-1.2h-1.7v2.5h1.7C71.6,101.9,72.2,101.3,72.2,100.6z"/>
		<path fill="#FFFFFF" d="M74.3,105.1v-6.5h0.8v6.5H74.3z"/>
		<path fill="#FFFFFF" d="M81.2,105.1l-0.6-1.4h-3.2l-0.6,1.4h-0.9l2.6-6.5h1l2.6,6.5H81.2z M79,99.5l-1.4,3.5h2.8L79,99.5z"/>
	</g>
	<g>
		<g>
			<g>
				<defs>
					<path id="SVGID_188_" d="M54.4,103H12.9V11.2c0-3,2.4-5.4,5.4-5.4h36.1V103z"/>
				</defs>
				<clipPath id="SVGID_4_">
					<use xlink:href="#SVGID_188_"  overflow="visible"/>
				</clipPath>
				<g clip-path="url(#SVGID_4_)">
					<g>
						<g>
							<path opacity="0.15" d="M50.4,5.9c0,0,4.6,36.5-28.9,43.9l4.8,44.6h-5.9l-4.2-58.1L38.6,5.9H50.4z"/>
							<path fill="#FFDA17" d="M43.9,5.9c0,0-1,36.3-23.4,43.3l3.7,45.2H12.9V5.9H43.9z"/>
							<path opacity="0.2" fill="#1D1C1A" d="M38.6,5.9c0,0-1.4,31.9-19.4,43.5c0,0,15.6-12.4,16-43.5H38.6z"/>
							<path opacity="0.2" fill="#1D1C1A" d="M28.8,5.9c0,0,0.5,28.2-10.3,43.5c0,0,8.4-17.5,5.8-43.5H28.8z"/>
							<path opacity="0.2" fill="#1D1C1A" d="M20,5.9c0,0,2,27.9-3.9,43.7c0,0,4.3-17.9,1-43.7H20z"/>
							<path fill="#875E3C" d="M12.9,44c0,0,3,5.1,8.6,4.8C21.5,48.8,15.7,52.2,12.9,44z"/>
							<polyline opacity="0.2" fill="#1D1C1A" points="19.9,50.2 21.5,94.4 19.9,94.3 19.9,49.5 							"/>
							<polyline opacity="0.2" fill="#1D1C1A" points="17.8,50.2 16.5,94.4 14.9,94.2 17.9,49.5 							"/>
						</g>
					</g>
				</g>
			</g>
		</g>
		<g>
			<g>
				<defs>
					<path id="SVGID_190_" d="M62.3,103h41.5V11.2c0-3-2.4-5.4-5.4-5.4H62.3V103z"/>
				</defs>
				<clipPath id="SVGID_6_">
					<use xlink:href="#SVGID_190_"  overflow="visible"/>
				</clipPath>
				<g clip-path="url(#SVGID_6_)">
					<g>
						<g>
							<path opacity="0.15" d="M66.3,5.9c0,0-4.6,36.5,28.9,43.9l-4.8,44.6h5.9l4.2-58.1L78.2,5.9H66.3z"/>
							<path fill="#FFDA17" d="M72.8,5.9c0,0,1,36.3,23.4,43.3l-3.7,45.2h11.4V5.9H72.8z"/>
							<path opacity="0.2" fill="#1D1C1A" d="M78.2,5.9c0,0,1.4,31.9,19.4,43.5c0,0-15.6-12.4-16-43.5H78.2z"/>
							<path opacity="0.2" fill="#1D1C1A" d="M87.9,5.9c0,0-0.5,28.2,10.3,43.5c0,0-8.4-17.5-5.8-43.5H87.9z"/>
							<path opacity="0.2" fill="#1D1C1A" d="M96.7,5.9c0,0-2,27.9,3.9,43.7c0,0-4.3-17.9-1-43.7H96.7z"/>
							<path fill="#875E3C" d="M103.9,44c0,0-3,5.1-8.6,4.8C95.2,48.8,101,52.2,103.9,44z"/>
							<polyline opacity="0.2" fill="#1D1C1A" points="96.9,50.2 95.2,94.4 96.8,94.3 96.8,49.5 							"/>
							<polyline opacity="0.2" fill="#1D1C1A" points="98.9,50.2 100.3,94.4 101.9,94.2 98.9,49.5 							"/>
						</g>
					</g>
				</g>
			</g>
		</g>
	</g>
</g>
</svg>
