<?xml version="1.0" encoding="utf-8"?>
<!-- Generator: Adobe Illustrator 18.0.0, SVG Export Plug-In . SVG Version: 6.00 Build 0)  -->
<!DOCTYPE svg PUBLIC "-//W3C//DTD SVG 1.1//EN" "http://www.w3.org/Graphics/SVG/1.1/DTD/svg11.dtd">
<svg version="1.1" id="Layer_1" xmlns="http://www.w3.org/2000/svg" xmlns:xlink="http://www.w3.org/1999/xlink" x="0px" y="0px"
	 viewBox="0 0 117 132" enable-background="new 0 0 117 132" xml:space="preserve">
<g>
	<path opacity="0.2" fill="#221F1F" d="M106.4,81l6-22.8c0.6-2.3,0.3-4.8-0.9-6.9c-1.2-2.1-3.2-3.6-5.5-4.2l-7.9-2.1l3.8-15.2
		c0.6-2.3,0.1-4.7-1.4-6.6c-1.5-1.9-3.7-2.9-6-2.9c-0.7,0-1.4,0.1-2.1,0.3L67,27.9c-0.3,0.1-0.6,0.2-0.9,0.3c-2.3-0.6-4.6-1-6.9-1.2
		c0.2-1.2,0.3-2.6,0-4.2c-0.7-3.4-3.4-6-6.6-6.5l0-3.6c-0.1-4.4-3.6-8.1-8-8.3c-0.6,0-1.2,0-1.8,0c-5.9,0-14.5,1.5-22.5,8.5
		c-3.2,2.8-3.8,7.6-1.3,11.2l2.8,4c-1.3,1.7-2,3.8-2,5.9c0,2.3,0.8,4.3,2.2,5.6c-4,3.9-7.1,8.5-9.1,13.6c-0.8,2.1-1.4,4.2-1.9,6.4
		L3.9,83.8c-0.6,1.7-0.5,3.5,0.1,5.1c-2.1,1.4-3.5,3.8-3.5,6.5v28.3c0,4.3,3.5,7.7,7.7,7.7h92.8c4.3,0,7.7-3.5,7.7-7.7V95.4
		c0-4.3-3.5-7.7-7.7-7.7h-1.7C102.7,87,105.5,84.5,106.4,81z"/>
	<path fill="#FFFFFF" d="M110.1,77.3l6-22.8c0.6-2.3,0.3-4.8-0.9-6.9c-1.2-2.1-3.2-3.6-5.5-4.2l-7.9-2.1l3.8-15.2
		c0.6-2.3,0.1-4.7-1.4-6.6c-1.5-1.9-3.7-2.9-6-2.9c-0.7,0-1.4,0.1-2.1,0.3l-25.3,7.3c-0.3,0.1-0.6,0.2-0.9,0.3
		c-2.3-0.6-4.6-1-6.9-1.2c0.2-1.2,0.3-2.6,0-4.2c-0.7-3.4-3.4-6-6.6-6.5l0-3.6c-0.1-4.4-3.6-8.1-8-8.3c-0.6,0-1.2,0-1.8,0
		C40.7,0.6,32,2.1,24,9.1c-3.2,2.8-3.8,7.6-1.3,11.2l2.8,4c-1.3,1.7-2,3.8-2,5.9c0,2.3,0.8,4.3,2.2,5.6c-4,3.9-7.1,8.5-9.1,13.6
		c-0.8,2.1-1.4,4.2-1.9,6.4L7.6,80.1c-0.6,1.7-0.5,3.5,0.1,5.1c-2.1,1.4-3.5,3.8-3.5,6.5v28.3c0,4.3,3.5,7.7,7.7,7.7h92.8
		c4.3,0,7.7-3.5,7.7-7.7V91.6c0-4.3-3.5-7.7-7.7-7.7h-1.7C106.5,83.3,109.2,80.7,110.1,77.3z"/>
	<g>
		<path fill="#C92128" d="M100.6,24.9c0.5-1.8-1.2-3.4-3-2.9l-12.7,3.6l-12.7,3.6c-1.8,0.5-2.4,2.8-1,4.1l9.5,9.2l9.5,9.2
			c1.3,1.3,4-1,4.4-2.8L100.6,24.9z"/>
		<path fill="#C92128" d="M21.4,51.3c0.6-1.6,2.4,5.1,3.5,6.5l8,9.5l8,9.5c1.1,1.3,0.4,3.4-1.3,3.7l-12.2,2.2l-12.2,2.2
			c-1.7,0.3-3.1-1.4-2.5-3L21.4,51.3z"/>
		<path fill="#C92128" d="M24.8,82.1c-1.3-1.7,2.9-4.3,5-4.6l16.5,4.2l15-2.4c2.1-0.3,3.8,1.7,3,3.7l-5.4,14.1l-5.4,14.1
			c-0.8,2-3.4,2.4-4.8,0.8L24.8,82.1z"/>
		<path fill="#C92128" d="M80.6,75.2c-1.7,0.9-2.3-0.1-4.3,0.2c-4.4,0.6-2.8,5.4-5.9,3l-10,1c-2.1,0.2-3.2,2.7-2,4.4l8.8,12.3
			l8.8,12.3c1.3,1.7,3.9,1.5,4.8-0.5l12-35.1c-0.1,0-5.8,2.4-5.9,2.4C85.2,75.5,82.3,75.6,80.6,75.2z"/>
		<path fill="#C92128" d="M94.3,58.1c2.6,20-12.4,35.8-33.1,38.5c-20.7,2.7-39.2-8.8-41.8-28.8c-2.6-20,12.3-36.5,33-39.1
			C73.1,26,91.7,38.1,94.3,58.1z"/>
		<g>
			<path opacity="0.2" fill="#221F1F" d="M38.5,78.3c0,0,17.7,23.2,37.2-5.2L50,74L38.5,78.3z"/>
			<path fill="#4F0B0B" d="M75.3,34.9c-0.9,0.1-1.8,0-2.6-0.3c0,0-0.1,0-0.1,0c-2.2,0.5-4.1-0.1-6.3-0.4c-0.8-0.1-1.7-0.1-2.5-0.1h0
				c-0.3,0.1-1,0-1.2,0.1c-3.3,0.3-6.7,1-9.9,1.9c-2,0.5-4,1.1-5.9,1.8c-0.1,0-0.1,0-0.2,0.1c0,0-0.1,0-0.1,0
				c-0.4,0.1-0.8,0.3-1.2,0.4c-1,0.3-2,0.7-2.9,1c-2.3,0.8-4.6,1.5-6.9,2.2c-0.5,0.2-1,0.3-1.5,0.5c-0.2,0.1-1.1,0.3-1,0.3
				c-1.5,0.4-2.6,0.7-4.3,0.7c-0.3,0.2-0.6,0.3-0.9,0.4c6.4,13.4,5.9,18.3,7.9,33c17.5,12.1,31.8,9,43.5-7.9
				C76,54.1,74,49.7,75.3,34.9z"/>
			<path d="M59.3,47.4L59.3,47.4c-0.1,0-7.6-2.1-3.8,3.6c1.4,1.9,2.8,4.1,3,5.1c0.4,2.1-0.9,4.1-3,4.5c-2.1,0.4-4.1-0.9-4.5-3
				c-0.2-1,0.2-3.4,0.7-5.6c1.5-7-4.4-2.6-4.9-2.2c-3.1,2.7-4.8,6.9-3.9,11.2c1.3,6.4,7.8,10.5,14.5,9.2c6.7-1.3,11.1-7.6,9.8-14
				C66.4,51.9,63.3,48.7,59.3,47.4z"/>
			<path fill="#4F0B0B" d="M35.6,74.2c0.2,0.1,3.6-10.9,20.5-9.7c0,0,8.7-5.4,20.5-2.4l1,4.5L53.1,77.9l-8.4-0.4l-9-3"/>
			<g>
				<defs>
					<path id="SVGID_200_" d="M59.2,82.4c-6.8,1.2-14.4-1-22.6-6.5c-0.4-2.6-0.6-4.9-0.9-6.9C34.7,59.5,34,54.2,29,43.7
						c6-5.3,13.3-8.9,21.2-10.3c7.9-1.4,16.2-0.7,24,2.1c-1,12.1,0.3,17.5,2.6,27.1c0.4,1.7,0.9,3.6,1.3,5.7
						C72.4,76.4,66,81.1,59.2,82.4z"/>
				</defs>
				<clipPath id="SVGID_2_">
					<use xlink:href="#SVGID_200_"  overflow="visible"/>
				</clipPath>
				<path clip-path="url(#SVGID_2_)" fill="#F3A9C2" d="M35.4,78.8C38.9,67.1,49.4,65.5,55,65.6c-6.6,7.5-5.3,13-5.3,13
					c0.9-5.1,3.9-8.7,6.2-10.7c1.3-1.1,2.4-1.9,2.7-2l0.1,0.1l-0.1-0.1l0,0c13.6-7.6,24.5,0.5,24.9,0.8c-0.3-0.3-1-0.7-12.5,17.6
					C59,103.4,29.5,98.9,35.4,78.8z"/>
				<g clip-path="url(#SVGID_2_)">
					<path fill="#EC7198" d="M33.6,75.3C32.9,76,32.7,77,32.8,78s0.4,1.9,0.8,2.8c0.8,2,1.6,4.1,3.1,5.8c1.4,1.6,3.3,2.7,5.3,3.6
						c5,2.2,10.7,3.1,16.1,2.4c5.5-0.7,10.7-2.9,15-6.3c2.4-1.9,4.4-4.2,6.3-6.5c1.1-1.3,2.1-2.7,2.7-4.3c0.6-1.6,0.8-3.4,0.1-4.9
						c-1.1-2.5-2.6-6.6-5.3-6.4c-3.3,0.3-6.6,4.5-8.9,6.5c-2.8,2.5-5.5,5.1-8.4,7.5c-1.7,1.4-3.7,2.5-5.9,2.6
						c-4.5,0.4-8.1-3.5-12.3-4.7c-1.1-0.3-2.2-0.5-3.3-0.5c-1.1,0-2.3,0.4-3.3,0.2C34.7,75.9,33.8,75.2,33.6,75.3z"/>
				</g>
			</g>
			<g>
				<path fill="#FFFFFF" d="M27.8,43.5c14.1-9.4,32.4-12.4,47.6-8.6l0,0c-0.1,0.3-1.7,0.5-2,0.6c-1,0.2-2.1,0.5-3,0.9
					c-1.4,0.6-2.2,1.4-2.9,2.5c-0.7,0.9-1.4,1.9-2.9,2.2c-3.3,0.8-4.8-2.1-8-1.4c-3.2,0.7-3.1,3.9-6.5,4.5c-3.4,0.6-4.3-2.4-7.6-1.9
					c-3.3,0.6-3.7,3.8-7.1,4.1C31.9,46.8,31.1,43.1,27.8,43.5z"/>
			</g>
			<path fill="#C5C6C8" d="M64.5,41.1c1.4-0.3,2.2-1.3,2.9-2.2c0.2-0.2,0.4-0.5,0.6-0.7c-0.1,0-0.1,0-0.2,0.1
				c-1,0.4-1.8,1.3-2.9,1.6c-1,0.2-1.9-0.2-2.9-0.4c-2.4-0.8-5.2-0.9-7.3,0.5c-0.9,0.6-1.6,1.4-2.5,1.9c-1.4,0.9-3.1,1.1-4.7,0.6
				c-1-0.3-2-0.9-3-1.2c-1.6-0.3-3.3,0.3-4.7,1.2c-1.4,0.9-2.7,2-4.2,2.6c-1,0.5-2.2,0.7-3.3,0.5c0.8,0.6,1.8,1,3.1,0.9
				c3.4-0.4,3.8-3.6,7.1-4.1c3.3-0.6,4.2,2.5,7.6,1.9c3.4-0.6,3.3-3.7,6.5-4.5C59.7,39,61.1,41.8,64.5,41.1z"/>
		</g>
		<path opacity="0.2" fill="#221F1F" d="M30.8,82c-0.5-1-1.1-1.9-2-2.6c-1.5-1.1-3.5-1-5.2-0.4c-1.7,0.6-3.1,1.8-4.5,2.9
			c-1.1,0.9-2.2,1.8-3.3,2.7l9.8-1.7c0.7,1,1.5,1.9,2.3,2.8l9.1,11.4C35.5,91.8,33.5,86.8,30.8,82z"/>
		<g opacity="0.2">
			<path fill="#221F1F" d="M92.9,72.9l0-0.1c0.4-1.1,0.7-2.2,0.9-3.4c-2.2,2.8-3.7,6.2-5.3,9.5c-1.8,3.7-3.9,7.6-7.2,10.2
				c-5,3.9-9.5,0.4-14.8,0.1c-3.9-0.2-7.9,1.3-10.6,4.1c-3,3.1-2.9,7.9-4,11.8c-0.4,1.5-1.1,3-2.4,3.6c-1,0.5-2.2,0.4-3.3,0.1
				l2.5,3.2c1.3,1.7,4,1.2,4.8-0.8l5.4-14.1l0.1-0.4c0.7-0.1,1.5-0.1,2.2-0.2c1.9-0.2,3.8-0.6,5.6-1.1l0.4,0.6l8.8,12.3
				c1.3,1.7,3.9,1.5,4.8-0.5L92.8,73C92.9,73,92.9,73,92.9,72.9z"/>
		</g>
		<g>
			<path d="M51.3,24.1l-0.2-15c0-1.7-1.3-3.1-3-3.2C43.7,5.6,35.2,6.2,27.5,13c-1.2,1.1-1.4,2.9-0.5,4.3l8.5,12.2L51.3,24.1z"/>
			<path fill="#C5C6C8" d="M32.3,24.9c5.3-5.7,13.9-6.4,19-6.2l0.1,5.4l-1.8,0.7l-14.1,4.7L32.3,24.9z"/>
			<g>
				<path d="M55.5,17.8c-0.6,0-1.3,0.2-1.8,0.6c-2.6,1.6-3.5,5.2-6.2,6.6c-2.4,1.3-5.4,0.5-8.1,0c-2.2-0.4-4.6-0.6-6.7,0.2
					c-2.1,0.8-3.9,2.8-3.9,5c0,2.8,2.6,3,4.4,1.6c3.4-2.6,7.6-3.8,11.7-4.6c2.2-0.4,4.4-0.7,6.6-0.9c1.6-0.1,4.3,0.2,5.5-1
					c0.4-0.4,0.6-1,0.7-1.6c0.3-1.2,0.6-2.4,0.3-3.6C57.6,19,56.7,17.8,55.5,17.8z"/>
			</g>
		</g>
		<g>
			<path fill="#808081" d="M88.2,106.7l7.1-26.9l-5.7-1.5l-7.5,28.4C84.2,106.6,86.2,106.7,88.2,106.7z"/>
			<path opacity="0.1" fill="#3F3F3F" d="M84.9,106.7L92.2,79l-2.6-0.7l-7.5,28.4C83.1,106.7,84,106.7,84.9,106.7z"/>
			<g>
				<polygon fill="#A7A9AC" points="97.4,76.8 97.3,76.8 95,76.2 91.6,75.3 89.3,74.7 87.9,79.9 87.1,82.9 89.4,83.5 90.2,80.5 
					93.7,81.4 92.9,84.4 95.2,85 95.9,82 96,82 				"/>
				<g>
					<path fill="#A7A9AC" d="M100.4,78.7l-15.1-4c-2.1-0.5-3.3-2.7-2.8-4.7l6-22.8c0.5-2.1,2.7-3.3,4.7-2.8l15.1,4
						c2.1,0.5,3.3,2.7,2.8,4.7l-6,22.8C104.5,78,102.4,79.3,100.4,78.7z"/>
					<path fill="none" stroke="#E3DED4" stroke-width="1.0137" stroke-miterlimit="10" d="M86.9,68l4.4-16.7
						c0.5-1.8,2.3-2.8,4.1-2.4l9.1,2.4"/>
					
						<rect x="95.3" y="45.3" transform="matrix(0.9669 0.2552 -0.2552 0.9669 15.2948 -22.893)" fill="#414042" width="1.1" height="4.4"/>
					
						<rect x="97.6" y="45.9" transform="matrix(0.9669 0.2552 -0.2552 0.9669 15.5243 -23.457)" fill="#414042" width="1.1" height="4.4"/>
					
						<rect x="99.9" y="46.5" transform="matrix(0.9669 0.2552 -0.2552 0.9669 15.7544 -24.0216)" fill="#414042" width="1.1" height="4.4"/>
					
						<rect x="102.2" y="47.1" transform="matrix(0.9669 0.2552 -0.2552 0.9669 15.9846 -24.5861)" fill="#414042" width="1.1" height="4.4"/>
					
						<rect x="104.5" y="47.7" transform="matrix(0.9669 0.2552 -0.2552 0.9669 16.2147 -25.1508)" fill="#414042" width="1.1" height="4.4"/>
					
						<rect x="88.5" y="71.3" transform="matrix(0.9669 0.2552 -0.2552 0.9669 21.6915 -20.285)" fill="#414042" width="1.1" height="4.4"/>
					
						<rect x="90.7" y="71.9" transform="matrix(0.9669 0.2552 -0.2552 0.9669 21.9217 -20.8496)" fill="#414042" width="1.1" height="4.4"/>
					
						<rect x="93" y="72.5" transform="matrix(0.9669 0.2552 -0.2552 0.9669 22.1518 -21.4141)" fill="#414042" width="1.1" height="4.4"/>
					
						<rect x="95.3" y="73.1" transform="matrix(0.9669 0.2552 -0.2552 0.9669 22.3818 -21.9788)" fill="#414042" width="1.1" height="4.4"/>
					
						<rect x="97.6" y="73.7" transform="matrix(0.9669 0.2552 -0.2552 0.9669 22.612 -22.5434)" fill="#414042" width="1.1" height="4.4"/>
					<g>
						
							<rect x="91.1" y="50.3" transform="matrix(-0.2552 0.9669 -0.9669 -0.2552 168.53 -19.1009)" fill="#414042" width="1.1" height="10.1"/>
						
							<rect x="91.6" y="48.1" transform="matrix(-0.2552 0.9669 -0.9669 -0.2552 167.1095 -22.4763)" fill="#414042" width="1.1" height="10.1"/>
						
							<rect x="88.1" y="61.7" transform="matrix(-0.2552 0.9669 -0.9669 -0.2552 175.7532 -1.9406)" fill="#414042" width="1.1" height="10.1"/>
						
							<rect x="90.4" y="52.6" transform="matrix(-0.2552 0.9669 -0.9669 -0.2552 169.9865 -15.6408)" fill="#414042" width="1.1" height="10.1"/>
						
							<rect x="89.8" y="54.9" transform="matrix(-0.2552 0.9669 -0.9669 -0.2552 171.4429 -12.1808)" fill="#414042" width="1.1" height="10.1"/>
						
							<rect x="89.2" y="57.2" transform="matrix(-0.2552 0.9669 -0.9669 -0.2552 172.8992 -8.7196)" fill="#414042" width="1.1" height="10.1"/>
						
							<rect x="88.6" y="59.5" transform="matrix(-0.2552 0.9669 -0.9669 -0.2552 174.3557 -5.2595)" fill="#414042" width="1.1" height="10.1"/>
					</g>
					<g>
						
							<rect x="103.8" y="53.7" transform="matrix(-0.2552 0.9669 -0.9669 -0.2552 187.8433 -27.2297)" fill="#414042" width="1.1" height="10.1"/>
						
							<rect x="104.4" y="51.4" transform="matrix(-0.2552 0.9669 -0.9669 -0.2552 186.4228 -30.6051)" fill="#414042" width="1.1" height="10.1"/>
						
							<rect x="100.8" y="65" transform="matrix(-0.2552 0.9669 -0.9669 -0.2552 195.0659 -10.0689)" fill="#414042" width="1.1" height="10.1"/>
						
							<rect x="103.2" y="56" transform="matrix(-0.2552 0.9669 -0.9669 -0.2552 189.2998 -23.7696)" fill="#414042" width="1.1" height="10.1"/>
						
							<rect x="102.6" y="58.3" transform="matrix(-0.2552 0.9669 -0.9669 -0.2552 190.7556 -20.3091)" fill="#414042" width="1.1" height="10.1"/>
						
							<rect x="102" y="60.6" transform="matrix(-0.2552 0.9669 -0.9669 -0.2552 192.2125 -16.8484)" fill="#414042" width="1.1" height="10.1"/>
						
							<rect x="101.4" y="62.8" transform="matrix(-0.2552 0.9669 -0.9669 -0.2552 193.669 -13.3883)" fill="#414042" width="1.1" height="10.1"/>
					</g>
				</g>
			</g>
		</g>
		<path fill="#FAA519" d="M104.8,122.4H12c-1.4,0-2.5-1.1-2.5-2.5V91.6c0-1.4,1.1-2.5,2.5-2.5h92.8c1.4,0,2.5,1.1,2.5,2.5v28.3
			C107.3,121.3,106.2,122.4,104.8,122.4z"/>
		<g>
			<g>
				<path fill="#FFFFFF" d="M22,114.8l1.5-2.2c0.7,0.7,1.8,1.2,3.1,1.2c0.5,0,1.1-0.1,1.1-0.5c0-0.9-5.3,0-5.3-3.8
					c0-1.6,1.3-3.2,4-3.2c1.6,0,3,0.4,4.1,1.3l-1.6,2.1c-0.8-0.6-1.9-0.9-2.8-0.9c-0.6,0-0.7,0.2-0.7,0.4c0,0.9,5.3,0.1,5.3,3.7
					c0,2.1-1.6,3.3-4.1,3.3C24.5,116.3,23.1,115.7,22,114.8z"/>
				<path fill="#FFFFFF" d="M33.3,116.2v-7.1h-2.6v-2.5h8v2.5h-2.6v7.1H33.3z"/>
				<path fill="#FFFFFF" d="M45.4,116.2L45,115h-3.4l-0.3,1.1h-3.3l3.5-9.6h3.6l3.5,9.6H45.4z M43.3,109.4l-0.9,3.1h1.9L43.3,109.4z
					"/>
				<path fill="#FFFFFF" d="M55.6,116.2l-3.5-4.9v4.9h-2.9v-9.6h3l3.3,4.5v-4.5h2.9v9.6H55.6z"/>
				<path fill="#FFFFFF" d="M59.9,116.2v-9.6h4.3c3,0,5.3,1.7,5.3,4.8c0,3.1-2.2,4.8-5.2,4.8H59.9z M66.5,111.4
					c0-1.3-0.7-2.3-2.3-2.3h-1.4v4.5h1.4C65.7,113.6,66.5,112.6,66.5,111.4z"/>
				<path fill="#FFFFFF" d="M70.2,113.8v-2.2h3.4v2.2H70.2z"/>
				<path fill="#FFFFFF" d="M74.8,112.2v-5.6h2.9v5.5c0,0.9,0.6,1.7,1.8,1.7c1.2,0,1.8-0.7,1.8-1.7v-5.5h2.9v5.6
					c0,2.4-1.5,4.1-4.7,4.1C76.3,116.3,74.8,114.6,74.8,112.2z"/>
				<path fill="#FFFFFF" d="M85.8,116.2v-9.6H91c2.2,0,3.4,1.5,3.4,3.3c0,1.8-1.2,3.3-3.4,3.3h-2.2v3H85.8z M91.5,109.9
					c0-0.5-0.4-0.8-0.9-0.8h-1.8v1.5h1.8C91.1,110.6,91.5,110.4,91.5,109.9z"/>
			</g>
			<g>
				<path fill="#FFFFFF" d="M39.1,101.9l-1.7-2.6h-1.3v2.6h-0.8v-6.5h2.6c1.2,0,2,0.8,2,2c0,1.2-0.8,1.8-1.7,1.9l1.8,2.6H39.1z
					 M39.1,97.3c0-0.7-0.5-1.2-1.3-1.2h-1.7v2.5h1.7C38.6,98.6,39.1,98,39.1,97.3z"/>
				<path fill="#FFFFFF" d="M41.2,101.9v-6.5H42v6.5H41.2z"/>
				<path fill="#FFFFFF" d="M43.2,100.9l0.5-0.6c0.4,0.5,1.1,0.9,2,0.9c1.2,0,1.5-0.6,1.5-1.1c0-1.7-3.8-0.7-3.8-3.1
					c0-1.1,1-1.8,2.2-1.8c1,0,1.8,0.3,2.3,0.9l-0.5,0.6c-0.5-0.5-1.2-0.8-1.9-0.8c-0.8,0-1.3,0.4-1.3,1c0,1.5,3.8,0.6,3.8,3
					c0,0.9-0.6,1.9-2.4,1.9C44.5,102,43.7,101.5,43.2,100.9z"/>
				<path fill="#FFFFFF" d="M53.8,101.9l-0.6-1.4H50l-0.6,1.4h-0.9l2.6-6.5h1l2.6,6.5H53.8z M51.6,96.2l-1.4,3.5H53L51.6,96.2z"/>
				<path fill="#FFFFFF" d="M55.5,101.9v-6.5h2.2c2,0,3.3,1.4,3.3,3.3c0,1.8-1.3,3.2-3.3,3.2H55.5z M60.3,98.6
					c0-1.4-0.9-2.5-2.5-2.5h-1.4v5.1h1.4C59.3,101.1,60.3,100,60.3,98.6z"/>
				<path fill="#FFFFFF" d="M66.6,101.9l-0.6-1.4h-3.2l-0.6,1.4h-0.9l2.6-6.5h1l2.6,6.5H66.6z M64.4,96.2l-1.4,3.5h2.8L64.4,96.2z"
					/>
				<path fill="#FFFFFF" d="M72.2,101.9l-1.7-2.6h-1.3v2.6h-0.8v-6.5H71c1.2,0,2,0.8,2,2c0,1.2-0.8,1.8-1.7,1.9l1.8,2.6H72.2z
					 M72.2,97.3c0-0.7-0.5-1.2-1.3-1.2h-1.7v2.5h1.7C71.7,98.6,72.2,98,72.2,97.3z"/>
				<path fill="#FFFFFF" d="M74.3,101.9v-6.5h0.8v6.5H74.3z"/>
				<path fill="#FFFFFF" d="M81.3,101.9l-0.6-1.4h-3.2l-0.6,1.4H76l2.6-6.5h1l2.6,6.5H81.3z M79.1,96.2l-1.4,3.5h2.8L79.1,96.2z"/>
			</g>
		</g>
		<path fill="#72CDEE" d="M85.4,36.8c-1.9,0.7-7.7,5.9-7.7,5.9s7.8,0.5,9.7-0.1s3.1-2.5,2.5-4.1C89.4,36.8,87.3,36.1,85.4,36.8z"/>
		<path fill="#72CDEE" d="M80.3,30.3c-0.8,1.2-1.9,6.6-1.9,6.6s4.6-2.9,5.5-4.1c0.8-1.2,0.7-2.7-0.3-3.4
			C82.6,28.6,81.1,29.1,80.3,30.3z"/>
	</g>
</g>
</svg>
