<?xml version="1.0" encoding="utf-8"?>
<!-- Generator: Adobe Illustrator 18.0.0, SVG Export Plug-In . SVG Version: 6.00 Build 0)  -->
<!DOCTYPE svg PUBLIC "-//W3C//DTD SVG 1.1//EN" "http://www.w3.org/Graphics/SVG/1.1/DTD/svg11.dtd">
<svg version="1.1" id="Layer_1" xmlns="http://www.w3.org/2000/svg" xmlns:xlink="http://www.w3.org/1999/xlink" x="0px" y="0px"
	 viewBox="0 0 122 137" enable-background="new 0 0 122 137" xml:space="preserve">
<g>
	<path opacity="0.2" fill="#221F1F" d="M22.8,19.9c0.2-0.2,0.4-0.4,0.6-0.6c-0.6-0.6-0.7-1.7,0-2.6c0.2-0.2,0.4-0.5,0.6-0.7
		c-0.3,0.2-0.5,0.4-0.8,0.6c-0.3,0.7-0.4,1.4-0.4,2.1L22.8,19.9z"/>
	<path opacity="0.2" fill="#221F1F" d="M113.4,53.5c-0.4-1.2-1.1-2.3-2-3.1c-0.1,0.1-0.2,0.1-0.2,0.2c-1.4,1-2.8-0.5-2.7-1.9
		c-0.3-0.1-0.5-0.2-0.8-0.2l-0.8-0.2l0.1-0.1c-1.5,0.7-3.3-1.5-2-3.2c2.6-3.3,6.2-6.1,10.3-7c0.5-0.1,1.1,0,1.5,0.3
		c-0.1-0.3-0.3-0.5-0.5-0.8l-2-2.7l1.1-3.2c0.6-1.9,0.2-4-1.3-5.4c-1-1-2.3-1.5-3.7-1.5c-0.6,0-1.1,0.1-1.7,0.3l-3.2,1.1l-2.7-2
		c-0.9-0.7-2-1-3.1-1c-0.8,0-1.6,0.2-2.4,0.6c-0.1,0.1-0.3,0.1-0.4,0.2c-0.3-0.5-0.7-0.9-1.2-1.3l-1.5-1.1l0.1-1.9
		c0.1-2-1-3.8-2.8-4.8c-0.8-0.4-1.6-0.6-2.5-0.6c-1.1,0-2.1,0.3-3,1l-1.5,1.1l-1.8-0.6c-0.6-0.2-1.2-0.3-1.8-0.3c-0.1,0-0.3,0-0.4,0
		v-2c0-2.9-2.3-5.2-5.2-5.2c-1.3,0-2.5,0.3-3.6,0.7c0,0.1-0.1,0.2-0.2,0.3c-0.7,1-2,1.6-3,2.3c-1.4,0.9-2.8,1.7-4.3,2.4
		c-1.1,0.5-2.5-0.1-2.8-1.2c0,0-0.1,0-0.1,0.1c-1.6,0.9-3.6-1-2.6-2.6c0.3-0.5,0.6-0.9,0.9-1.3c-0.3,0.1-0.5,0.3-0.8,0.4
		c-4,4.5-8.7,8.4-13.6,11.8c-1.9,1.3-3.4-1.4-2.3-2.9c1.5-1.9,3.1-3.6,4.7-5.4c-0.1-0.3-0.1-0.5-0.1-0.8c-0.7,0.2-1.4,0.3-2.2,0.2
		c-0.3,0-0.6-0.1-0.8-0.2c-2.2,1.8-4.5,3.6-7,5.1c-0.4,0.2-0.8,0.3-1.1,0.3c-1,0.7-2.1,1.4-3.3,1.9c-1.5,0.7-2.8-0.4-2.7-1.6
		c-0.5,0.4-1.1,0.7-1.6,1c-4.1,5.2-9.4,9.9-15,6.7l-1,0.7l-3.2-1.1c-0.5-0.2-1.1-0.3-1.7-0.3c-1.4,0-2.7,0.5-3.7,1.5
		c-1.4,1.4-1.9,3.5-1.3,5.4l1.1,3.2l-2,2.7c-1.2,1.6-1.4,3.7-0.5,5.5C2.5,44.9,4.3,46,6.2,46c0,0,3.5,0,3.5,0l2,2.8
		c0.2,0.3,0.5,0.6,0.7,0.8l-2.5,0.5c-2.6,0.4-4.7,2.2-5.7,4.6c-1,2.5-0.6,5.3,1,7.4l1.5,2c-0.9,4-1.4,8.1-1.4,12.2
		c0,6.2,1,12.2,3.1,17.9c-2,1.4-3.2,3.7-3.2,6.3v28.3c0,4.3,3.5,7.7,7.7,7.7h92.8c4.3,0,7.7-3.5,7.7-7.7v-28.3c0-3-1.7-5.5-4.1-6.8
		c1.9-5.5,2.9-11.4,2.9-17.4c0-4.5-0.6-9-1.7-13.4l1.5-1.8C113.8,59,114.3,56.1,113.4,53.5z"/>
	<path fill="#FFFFFF" d="M120,33.9l-2-2.7l1.1-3.2c0.6-1.9,0.2-4-1.3-5.4c-1-1-2.3-1.5-3.7-1.5c-0.6,0-1.1,0.1-1.7,0.3l-3.2,1.1
		l-2.7-2c-0.9-0.7-2-1-3.1-1c-0.8,0-1.6,0.2-2.4,0.6c-0.1,0.1-0.3,0.1-0.4,0.2c-0.3-0.5-0.7-0.9-1.2-1.3l-1.5-1.1l0.1-1.9
		c0.1-2-1-3.8-2.8-4.8c-0.8-0.4-1.6-0.6-2.5-0.6c-1.1,0-2.1,0.3-3,1l-1.5,1.1l-1.8-0.6c-0.6-0.2-1.2-0.3-1.8-0.3c-0.1,0-0.3,0-0.4,0
		v-2c0-2.9-2.3-5.2-5.2-5.2c-2.8,0-5.3,1.3-7,3.3c-1.2-4.1-5-7.1-9.5-7.1c-4.5,0-8.3,3-9.5,7.1c-1.7-2-4.2-3.3-7-3.3
		c-2.9,0-5.2,2.3-5.2,5.2v1.2c-0.3-0.1-0.7-0.1-1-0.1c-0.6,0-1.2,0.1-1.8,0.3l-1.8,0.6l-1.5-1.1c-0.9-0.6-2-1-3-1
		c-0.8,0-1.7,0.2-2.5,0.6c-1.8,0.9-2.8,2.8-2.8,4.8l0.1,1.9L25,18c-0.6,0.4-1,0.9-1.4,1.5c-0.4-0.1-0.8-0.1-1.2-0.1
		c-1.1,0-2.2,0.4-3.1,1l-2.7,2l-3.2-1.1c-0.5-0.2-1.1-0.3-1.7-0.3C10.3,21,9,21.6,8,22.6c-1.4,1.4-1.9,3.5-1.3,5.4l1.1,3.2l-2,2.7
		c-1.2,1.6-1.4,3.7-0.5,5.5c0.9,1.8,2.7,2.9,4.7,2.9c0,0,3.5,0,3.5,0l2,2.8c0.2,0.3,0.5,0.6,0.7,0.8l-2.5,0.5
		c-2.6,0.4-4.7,2.2-5.7,4.6c-1,2.5-0.6,5.3,1,7.4l1.5,2C9.5,64.3,9,68.4,9,72.5c0,6.2,1,12.2,3.1,17.9c-2,1.4-3.2,3.7-3.2,6.3v28.3
		c0,4.3,3.5,7.7,7.7,7.7h92.8c4.3,0,7.7-3.5,7.7-7.7V96.7c0-3-1.7-5.5-4.1-6.8c1.9-5.5,2.9-11.4,2.9-17.4c0-4.5-0.6-9-1.7-13.4
		l1.5-1.8c1.8-2.1,2.3-4.9,1.4-7.5c-0.9-2.6-3.1-4.5-5.8-5l-0.8-0.2l1.7-2.5c0,0,3.5,0,3.5,0c2,0,3.8-1.1,4.7-2.9
		C121.3,37.6,121.2,35.5,120,33.9z"/>
	<g>
		<circle fill="#9DB53A" cx="62.5" cy="72.5" r="48.2"/>
		<g>
			<path fill="#C92128" d="M46,45c1.7-0.2-3.9,4.5-4.6,6.2l-4.6,11.5l-4.6,11.5c-0.7,1.6-2.8,1.9-3.9,0.5l-7.6-9.7L13,55.1
				c-1.1-1.4-0.3-3.4,1.5-3.6L46,45z"/>
			<path fill="#C92128" d="M111.8,53.9c1.2-1.4,0.4-3.6-1.4-4l-12.9-2.5L84.5,45c-1.8-0.3-3.4,1.4-2.7,3.2l4.3,12.4l4.3,12.4
				c0.6,1.8,4,0.9,5.2-0.5L111.8,53.9z"/>
			<path fill="#C92128" d="M28.3,82.7c-1.1-1.8,3.4-3.9,5.5-3.9l15.8,6.3l15.1-0.4c2.1-0.1,3.5,2.2,2.5,4.1l-7.2,13.3l-7.2,13.3
				c-1,1.9-3.7,2-4.8,0.1L28.3,82.7z"/>
			<path fill="#C92128" d="M84.5,83.1c-1.8,0.7-2.3-0.4-4.2-0.4c-4.4,0-3.5,5-6.3,2.2l-10.1-0.3c-2.1-0.1-3.6,2.2-2.5,4.1l7.2,13.3
				l7.2,13.3c1,1.9,3.7,2,4.8,0.1L97,82.3c-0.1,0-6,1.7-6.1,1.7C89,84,86.1,83.7,84.5,83.1z"/>
			<path fill="#C92128" d="M100.3,67.9c0,20.2-16.9,33.9-37.8,33.9c-20.8,0-37.7-13.8-37.7-34c0-20.2,16.9-34.6,37.8-34.6
				C83.4,33.3,100.3,47.7,100.3,67.9z"/>
			<g>
				<path opacity="0.2" fill="#221F1F" d="M82.4,80.1c0,0-13.2,26-37.5,1.5l25.4-3.7L82.4,80.1z"/>
				<path fill="#4F0B0B" d="M38.4,44c0.9-0.1,1.7-0.3,2.5-0.7c0,0,0.1,0,0.1,0c2.3,0,4.1-0.9,6.2-1.5c0.8-0.2,1.6-0.4,2.4-0.6l0,0
					c0.3,0.1,1-0.1,1.2-0.2c3.3-0.3,6.7-0.2,10.1,0.1c2.1,0.2,4.1,0.4,6.1,0.7c0.1,0,0.1,0,0.2,0c0,0,0.1,0,0.1,0
					c0.4,0.1,0.9,0.1,1.3,0.2c1,0.1,2,0.3,3.1,0.4c2.4,0.3,4.8,0.7,7.1,1c0.5,0.1,1,0.1,1.5,0.2c0.2,0,1.1,0.1,1.1,0.1
					c1.5,0.2,2.7,0.3,4.4-0.1c0.3,0.1,0.6,0.2,1,0.2c-3.9,14.3-2.5,19.1-1.9,33.9c-15.1,15.1-29.7,14.6-44.2,0
					C41.2,63,42.4,58.3,38.4,44z"/>
				<path d="M56.4,53.4L56.4,53.4c0.1-0.1,7.1-3.4,4.4,2.9c-1,2.1-2,4.5-2.1,5.6c0,2.1,1.7,3.9,3.8,3.9c2.1,0,3.9-1.7,3.9-3.8
					c0-1-0.8-3.3-1.7-5.4c-2.7-6.6,3.9-3.3,4.4-3c3.6,2.1,5.9,5.9,5.9,10.3c-0.1,6.5-5.7,11.7-12.6,11.6c-6.8-0.1-12.3-5.5-12.2-12
					C50.3,59.1,52.8,55.4,56.4,53.4z"/>
				<path fill="#4F0B0B" d="M84.5,75.5c-0.2,0.2-5.4-10-21.9-5.9c0,0-9.5-3.8-20.6,1.4l-0.2,4.6L68,82.3l8.2-1.9l8.3-4.6"/>
				<g>
					<defs>
						<path id="SVGID_196_" d="M62.7,87.8c6.9,0,14-3.5,21-10.5c-0.1-2.6-0.3-4.9-0.4-7c-0.6-9.4-0.9-14.7,2.1-26
							C78.7,40.2,70.9,38,62.8,38c-8,0-16,2.2-23.2,6.4c3.2,11.7,2.9,17.2,2.3,27.1c-0.1,1.8-0.2,3.7-0.3,5.9
							C48.8,84.3,55.8,87.8,62.7,87.8z"/>
					</defs>
					<clipPath id="SVGID_2_">
						<use xlink:href="#SVGID_196_"  overflow="visible"/>
					</clipPath>
					<path clip-path="url(#SVGID_2_)" fill="#F3A9C2" d="M85.5,80.1c-5.5-11-16.1-10.6-21.6-9.5c7.8,6.2,7.6,11.9,7.6,11.9
						c-1.8-4.8-5.4-7.8-8.1-9.4c-1.5-0.9-2.7-1.4-3-1.5l-0.1,0.1l0-0.1l0,0c-14.8-5.1-24,4.9-24.4,5.3c0.3-0.3,0.9-0.9,15.5,15.1
						C66.8,108.5,94.9,98.7,85.5,80.1z"/>
					<g clip-path="url(#SVGID_2_)">
						<path fill="#EC7198" d="M86.7,76.2c0.8,0.6,1.2,1.5,1.3,2.5c0.1,1-0.1,2-0.3,2.9c-0.4,2.2-0.9,4.4-2,6.3
							c-1.1,1.8-2.8,3.3-4.5,4.5c-4.6,3.1-9.9,5-15.4,5.3c-5.5,0.3-11.1-0.9-15.9-3.5c-2.7-1.4-5.1-3.3-7.4-5.3
							c-1.3-1.1-2.5-2.3-3.4-3.7c-0.9-1.4-1.4-3.2-1-4.8c0.6-2.6,1.4-7,4-7.2c3.3-0.3,7.3,3.2,9.9,4.8c3.2,2,6.3,4.1,9.6,5.9
							c1.9,1,4.1,1.8,6.3,1.5c4.5-0.5,7.4-4.9,11.2-6.8c1-0.5,2.1-0.9,3.2-1.1c1.1-0.2,2.3,0,3.3-0.4C85.7,77,86.5,76.1,86.7,76.2z"
							/>
					</g>
				</g>
				<g>
					<path fill="#FFFFFF" d="M86.7,43.9c-15.6-6.7-34.1-6.4-48.3,0l0,0c0.1,0.3,1.8,0.2,2.1,0.2c1.1,0,2.1,0.1,3.1,0.4
						c1.5,0.4,2.4,1,3.3,1.9c0.8,0.8,1.7,1.6,3.2,1.7c3.4,0.2,4.3-2.9,7.6-2.8c3.3,0.1,3.7,3.3,7.2,3.2c3.4,0,3.8-3.2,7.1-3.2
						c3.3,0,4.3,3,7.7,2.8C83.2,47.9,83.4,44.1,86.7,43.9z"/>
				</g>
				<path fill="#C5C6C8" d="M50.2,48.1c-1.5-0.1-2.4-0.9-3.2-1.7c-0.2-0.2-0.4-0.4-0.7-0.6c0.1,0,0.2,0,0.2,0c1.1,0.2,2,1,3.1,1
					c1,0,1.9-0.5,2.7-1c2.2-1.2,5-1.8,7.3-0.9c1,0.4,1.8,1.1,2.8,1.5c1.5,0.6,3.3,0.5,4.7-0.2c1-0.5,1.8-1.3,2.7-1.7
					c1.5-0.6,3.3-0.2,4.8,0.4c1.5,0.6,3,1.5,4.6,1.9c1.1,0.3,2.3,0.3,3.3-0.1c-0.7,0.7-1.5,1.3-2.8,1.4c-3.4,0.2-4.4-2.8-7.7-2.8
					c-3.3,0-3.7,3.2-7.1,3.2c-3.4,0-3.9-3.1-7.2-3.2C54.5,45.2,53.6,48.3,50.2,48.1z"/>
			</g>
			<g opacity="0.2">
				<path fill="#221F1F" d="M97,82.4C97,82.4,97,82.3,97,82.4c0.6-1.1,1-2.2,1.4-3.3c-2.5,2.5-4.5,5.7-6.5,8.7
					c-2.3,3.4-4.8,7-8.4,9.2c-5.4,3.2-9.5-0.9-14.7-1.8c-3.8-0.7-8,0.3-11.1,2.7c-3.3,2.7-3.9,7.5-5.5,11.2
					c-0.6,1.4-1.5,2.8-2.9,3.3c-1.1,0.4-2.2,0.2-3.3-0.3l2.1,3.5c1.1,1.8,3.8,1.8,4.8-0.1l7.2-13.3l0.2-0.3c0.7,0,1.5,0.1,2.2,0.1
					c1.9,0,3.9-0.1,5.7-0.3l0.3,0.6l7.2,13.3c1,1.9,3.7,2,4.8,0.1l16.3-33C96.9,82.5,96.9,82.5,97,82.4z"/>
			</g>
			<path fill="#8E278B" d="M109.4,127.4H16.6c-1.4,0-2.5-1.1-2.5-2.5V96.7c0-1.4,1.1-2.5,2.5-2.5h92.8c1.4,0,2.5,1.1,2.5,2.5v28.3
				C111.9,126.3,110.8,127.4,109.4,127.4z"/>
		</g>
		<polygon fill="#F38420" points="11.7,26.3 17.5,28.2 22.4,24.6 22.3,30.7 27.4,34.3 21.5,36.1 19.7,42 16.1,37 9.9,37 13.6,32.1 
					"/>
		<polygon fill="#F38420" points="31.7,14.8 35.4,17.5 39.8,15.9 38.4,20.4 41.2,24 36.6,24 34,27.9 32.5,23.5 28.1,22.2 31.8,19.5 
					"/>
		<polygon fill="#F38420" points="92.7,15.7 88.9,18.3 84.5,16.8 85.9,21.2 83.1,24.8 87.7,24.9 90.3,28.7 91.8,24.3 96.2,23 
			92.5,20.3 		"/>
		<polygon fill="#F38420" points="114.1,26.3 108.2,28.2 103.3,24.6 103.4,30.7 98.4,34.3 104.2,36.1 106.1,42 109.6,37 115.8,37 
			112.1,32.1 		"/>
		<g>
			<path fill="#F0AA22" d="M75.1,13.5c0,1.2,0.6,2.3,1.4,3v0c-7,4.3-10.8,0-11.9-1.8c1.5-0.8,2.6-2.3,2.6-4.2c0-2.6-2.1-4.7-4.7-4.7
				c-2.6,0-4.7,2.1-4.7,4.7c0,1.8,1,3.4,2.6,4.2c-1.2,1.8-4.9,6.1-11.9,1.8l0,0c0.9-0.7,1.4-1.8,1.4-3c0-2.1-1.7-3.9-3.9-3.9v7.7
				v12.1h16.4h16.4V17.3V9.6C76.8,9.6,75.1,11.3,75.1,13.5z"/>
			<ellipse fill="#C28112" cx="62.5" cy="29.5" rx="16.4" ry="2.6"/>
			<path fill="#C28112" d="M78.9,25.3c-0.8-0.3-2.1-0.7-4.1-1c-3.3-0.5-7.7-0.8-12.3-0.8s-9,0.3-12.3,0.8c-1.5,0.2-3.1,0.5-4.1,1
				v1.2c0.5-0.3,1.7-0.8,4.7-1.2c3.2-0.5,7.4-0.7,11.8-0.7c4.4,0,8.6,0.3,11.8,0.7c3,0.4,4.2,0.9,4.7,1.2V25.3z"/>
			<path fill="#C28112" d="M78.9,23c-0.8-0.3-2.1-0.7-4.1-1c-3.3-0.5-7.7-0.8-12.3-0.8s-9,0.3-12.3,0.8c-1.5,0.2-3.1,0.5-4.1,1v1.2
				c0.5-0.3,1.7-0.8,4.7-1.2c3.2-0.5,7.4-0.7,11.8-0.7c4.4,0,8.6,0.3,11.8,0.7c3,0.4,4.2,0.9,4.7,1.2V23z"/>
		</g>
		<g>
			<path fill="#FFFFFF" d="M17.6,119.6l1.6-2.6c0.7,0.8,1.9,1.5,3.2,1.5c0.6,0,1.1-0.2,1.1-0.6c0-1.1-5.6,0-5.6-4.5
				c0-2,1.4-3.8,4.2-3.8c1.6,0,3.1,0.5,4.2,1.6l-1.6,2.5c-0.9-0.8-2-1.1-2.9-1.1c-0.6,0-0.8,0.2-0.8,0.5c0,1.1,5.6,0.2,5.6,4.5
				c0,2.6-1.6,4-4.3,4C20.1,121.4,18.7,120.7,17.6,119.6z"/>
			<path fill="#FFFFFF" d="M27.4,117.3v-5.6h2.5v5.5c0,0.9,0.5,1.7,1.6,1.7c1,0,1.5-0.7,1.5-1.7v-5.5h2.5v5.6c0,2.4-1.3,4.1-4.1,4.1
				C28.7,121.4,27.4,119.7,27.4,117.3z"/>
			<path fill="#FFFFFF" d="M36.9,121.2v-9.6h4.4c1.9,0,3,1.5,3,3.3c0,1.8-1,3.3-3,3.3h-1.9v3H36.9z M41.8,114.9
				c0-0.5-0.3-0.8-0.8-0.8h-1.6v1.5H41C41.4,115.7,41.8,115.4,41.8,114.9z"/>
			<path fill="#FFFFFF" d="M45.1,121.2v-9.6h6.3v2.5h-3.8v0.9h3.7v2.5h-3.7v1h3.8v2.5H45.1z"/>
			<path fill="#FFFFFF" d="M57.1,121.2l-1.1-3H55v3h-2.5v-9.6H57c1.9,0,3,1.5,3,3.3c0,1.7-0.8,2.5-1.5,2.9l1.5,3.4H57.1z
				 M57.4,114.9c0-0.5-0.4-0.7-0.8-0.7H55v1.5h1.5C57,115.7,57.4,115.5,57.4,114.9z"/>
			<path fill="#FFFFFF" d="M60.3,119.6l1.6-2.6c0.7,0.8,1.9,1.5,3.2,1.5c0.6,0,1.1-0.2,1.1-0.6c0-1.1-5.6,0-5.6-4.5
				c0-2,1.4-3.8,4.2-3.8c1.6,0,3.1,0.5,4.2,1.6l-1.6,2.5c-0.9-0.8-2-1.1-2.9-1.1c-0.6,0-0.8,0.2-0.8,0.5c0,1.1,5.6,0.2,5.6,4.5
				c0,2.6-1.6,4-4.3,4C62.8,121.4,61.4,120.7,60.3,119.6z"/>
			<path fill="#FFFFFF" d="M75.6,121.2v-3.7h-3v3.7h-2.5v-9.6h2.5v3.4h3v-3.4h2.5v9.6H75.6z"/>
			<path fill="#FFFFFF" d="M79,116.4c0-2.9,2-5,4.5-5c2.6,0,4.5,2,4.5,5c0,2.9-2,5-4.5,5C81,121.4,79,119.4,79,116.4z M85.5,116.4
				c0-1.3-0.8-2.4-2-2.4c-1.2,0-2,1.1-2,2.4c0,1.3,0.8,2.4,2,2.4C84.7,118.8,85.5,117.8,85.5,116.4z"/>
			<path fill="#FFFFFF" d="M95,121.2l-1.1-5.4l-1.1,5.4h-2.6l-2.4-9.6h2.8l1.1,5.9l1.3-5.9h1.9l1.3,5.9l1.1-5.9h2.8l-2.4,9.6H95z"/>
			<path fill="#FFFFFF" d="M99.9,119.9l1.3-2.2c0.6,0.7,1.6,1.2,2.7,1.2c0.5,0,0.9-0.1,0.9-0.5c0-0.9-4.6,0-4.6-3.8
				c0-1.6,1.2-3.2,3.4-3.2c1.4,0,2.6,0.4,3.5,1.3l-1.3,2.1c-0.7-0.6-1.7-0.9-2.4-0.9c-0.5,0-0.6,0.2-0.6,0.4c0,0.9,4.6,0.1,4.6,3.7
				c0,2.1-1.4,3.3-3.6,3.3C102,121.4,100.8,120.8,99.9,119.9z"/>
		</g>
		<g>
			<path fill="#FFFFFF" d="M43.1,106.9l-1.7-2.6h-1.3v2.6h-0.8v-6.5H42c1.2,0,2,0.8,2,2c0,1.2-0.8,1.8-1.7,1.9l1.8,2.6H43.1z
				 M43.2,102.4c0-0.7-0.5-1.2-1.3-1.2h-1.7v2.5h1.7C42.6,103.6,43.2,103.1,43.2,102.4z"/>
			<path fill="#FFFFFF" d="M45.3,106.9v-6.5h0.8v6.5H45.3z"/>
			<path fill="#FFFFFF" d="M47.2,106l0.5-0.6c0.4,0.5,1.1,0.9,2,0.9c1.2,0,1.5-0.6,1.5-1.1c0-1.7-3.8-0.7-3.8-3.1
				c0-1.1,1-1.8,2.2-1.8c1,0,1.8,0.3,2.3,0.9l-0.5,0.6c-0.5-0.5-1.2-0.8-1.9-0.8c-0.8,0-1.3,0.4-1.3,1c0,1.5,3.8,0.6,3.8,3
				c0,0.9-0.6,1.9-2.4,1.9C48.6,107,47.7,106.6,47.2,106z"/>
			<path fill="#FFFFFF" d="M57.8,106.9l-0.6-1.4H54l-0.6,1.4h-0.9l2.6-6.5h1l2.6,6.5H57.8z M55.6,101.3l-1.4,3.5H57L55.6,101.3z"/>
			<path fill="#FFFFFF" d="M59.6,106.9v-6.5h2.2c2,0,3.3,1.4,3.3,3.3c0,1.8-1.3,3.2-3.3,3.2H59.6z M64.3,103.7
				c0-1.4-0.9-2.5-2.5-2.5h-1.4v5.1h1.4C63.4,106.2,64.3,105.1,64.3,103.7z"/>
			<path fill="#FFFFFF" d="M70.7,106.9l-0.6-1.4h-3.2l-0.6,1.4h-0.9l2.6-6.5h1l2.6,6.5H70.7z M68.5,101.3l-1.4,3.5h2.8L68.5,101.3z"
				/>
			<path fill="#FFFFFF" d="M76.2,106.9l-1.7-2.6h-1.3v2.6h-0.8v-6.5h2.6c1.2,0,2,0.8,2,2c0,1.2-0.8,1.8-1.7,1.9l1.8,2.6H76.2z
				 M76.3,102.4c0-0.7-0.5-1.2-1.3-1.2h-1.7v2.5H75C75.7,103.6,76.3,103.1,76.3,102.4z"/>
			<path fill="#FFFFFF" d="M78.4,106.9v-6.5h0.8v6.5H78.4z"/>
			<path fill="#FFFFFF" d="M85.3,106.9l-0.6-1.4h-3.2l-0.6,1.4H80l2.6-6.5h1l2.6,6.5H85.3z M83.1,101.3l-1.4,3.5h2.8L83.1,101.3z"/>
		</g>
	</g>
</g>
</svg>
