<?xml version="1.0" encoding="utf-8"?>
<!-- Generator: Adobe Illustrator 18.0.0, SVG Export Plug-In . SVG Version: 6.00 Build 0)  -->
<!DOCTYPE svg PUBLIC "-//W3C//DTD SVG 1.1//EN" "http://www.w3.org/Graphics/SVG/1.1/DTD/svg11.dtd">
<svg version="1.1" id="Layer_1" xmlns="http://www.w3.org/2000/svg" xmlns:xlink="http://www.w3.org/1999/xlink" x="0px" y="0px"
	 viewBox="0 0 121 132" enable-background="new 0 0 121 132" xml:space="preserve">
<g>
	<path opacity="0.2" fill="#221F1F" d="M13.7,62.1c0.3,0.6,0.8,1,1.3,1.4l-3.9,7.1c-1.3,2.4-1.3,5.2,0.1,7.6
		c1.4,2.4,3.8,3.8,6.6,3.8l0.2,0l4.2-0.1c0.2,0.5,0.4,0.9,0.6,1.4c0,0,0,0.1,0.1,0.1l2.1,4.3h-8.7c-4.3,0-7.7,3.5-7.7,7.7v28.3
		c0,4.3,3.5,7.7,7.7,7.7H109c4.3,0,7.7-3.5,7.7-7.7V95.4c0-4.3-3.5-7.7-7.7-7.7h-0.4c1.7-0.5,3.2-1.7,4.1-3.3c1.4-2.2,1.5-5,0.3-7.3
		l-8.5-16.9c-1.2-7.5-4.7-14.5-9.9-20c1-1.2,1.6-2.8,1.8-4.6c0.2-2.1-0.4-4.2-1.6-6.1l3.1-3.7c2.7-3.3,2.5-8.2-0.5-11.3
		C88.8,5.9,78.8,4.4,73.6,4.3l-0.2,0c-4.3,0-8,3.4-8.4,7.7l-0.3,3.6c-3.2,0.2-6.1,2.6-7,6c-0.6,2-0.4,3.9-0.1,5.3
		c-3.5,0.3-7,1-10.3,2.1c-1-4.1-3.1-8-6.1-11.1c-4.4-4.5-10.4-7.1-16.7-7.1l-0.3,0c-12.9,0-23.6,10.5-23.7,23.4
		c-0.1,5.6,1.8,11,5.4,15.3L13.7,62.1z"/>
	<path fill="#FFFFFF" d="M17.5,58.4c0.3,0.6,0.8,1,1.3,1.4l-3.9,7.1c-1.3,2.4-1.3,5.2,0.1,7.6c1.4,2.4,3.8,3.8,6.6,3.8l0.2,0
		l4.2-0.1c0.2,0.5,0.4,0.9,0.6,1.4c0,0,0,0.1,0.1,0.1l2.1,4.3h-8.7c-4.3,0-7.7,3.5-7.7,7.7v28.3c0,4.3,3.5,7.7,7.7,7.7h92.8
		c4.3,0,7.7-3.5,7.7-7.7V91.7c0-4.3-3.5-7.7-7.7-7.7h-0.4c1.7-0.5,3.2-1.7,4.1-3.3c1.4-2.2,1.5-5,0.3-7.3l-8.5-16.9
		c-1.2-7.5-4.7-14.5-9.9-20c1-1.2,1.6-2.8,1.8-4.6c0.2-2.1-0.4-4.2-1.6-6.1l3.1-3.7c2.7-3.3,2.5-8.2-0.5-11.3
		C92.5,2.2,82.6,0.7,77.4,0.6l-0.2,0c-4.3,0-8,3.4-8.4,7.7l-0.3,3.6c-3.2,0.2-6.1,2.6-7,6c-0.6,2-0.4,3.9-0.1,5.3
		c-3.5,0.3-7,1-10.3,2.1c-1-4.1-3.1-8-6.1-11.1c-4.4-4.5-10.4-7.1-16.7-7.1l-0.3,0C15,7.1,4.4,17.6,4.3,30.5
		c-0.1,5.6,1.8,11,5.4,15.3L17.5,58.4z"/>
	<g>
		<circle fill="#FFCB04" cx="28" cy="30.8" r="18.5"/>
		<polygon fill="#FFCB04" points="21.2,44.3 21.9,55.6 13.9,42.8 20.1,39.1 		"/>
		
			<line fill="none" stroke="#000000" stroke-width="1.492" stroke-linecap="round" stroke-miterlimit="10" x1="35.1" y1="25.7" x2="20.1" y2="25.7"/>
		
			<line fill="none" stroke="#000000" stroke-width="1.492" stroke-linecap="round" stroke-miterlimit="10" x1="35.1" y1="30.6" x2="20.1" y2="30.6"/>
		
			<line fill="none" stroke="#000000" stroke-width="1.492" stroke-linecap="round" stroke-miterlimit="10" x1="35.1" y1="35.9" x2="20.1" y2="35.9"/>
	</g>
	<path fill="#C92128" d="M102.3,56.4c-0.8-1.6-4.6-4.3-5.5-2.8L90.1,64l-6.7,10.4c-0.9,1.5,0.1,3.4,1.8,3.5l12.3,0.6l12.3,0.6
		c1.7,0.1,2.9-1.8,2.1-3.3L102.3,56.4z"/>
	<path fill="#C92128" d="M21.6,73c-1.9,0-3.1-2-2.2-3.6l6.4-11.5l6.4-11.5c0.9-1.6,3.2-1.7,4.2-0.1l6.8,11.3L50,68.8
		c1,1.6-1.9,3.7-3.7,3.7L21.6,73z"/>
	<path fill="#C92128" d="M100,77.7c1.1-1.8-3.4-3.9-5.5-3.9l-15.8,6.3l-15.1-0.4c-2.1-0.1-3.5,2.2-2.5,4.1l7.2,13.3l7.2,13.3
		c1,1.9,3.7,2,4.8,0.1L100,77.7z"/>
	<path fill="#C92128" d="M43.7,78.1c1.8,0.7,2.3-0.4,4.2-0.4c4.4,0,3.5,5,6.3,2.2l10.1-0.3c2.1-0.1,3.6,2.2,2.5,4.1l-7.2,13.3
		l-7.2,13.3c-1,1.9-3.7,2-4.8,0.1L31.2,77.3c0.1,0,6,1.7,6.1,1.7C39.2,79,42.1,78.7,43.7,78.1z"/>
	<path fill="#C92128" d="M28,62.9c0,20.2,16.9,33.9,37.8,33.9c20.8,0,37.7-13.8,37.7-34S86.5,28.2,65.7,28.3
		C44.8,28.3,28,42.7,28,62.9z"/>
	<g>
		<path opacity="0.2" fill="#221F1F" d="M45.9,75.1c0,0,13.2,26,37.5,1.5L58,72.9L45.9,75.1z"/>
		<path fill="#4F0B0B" d="M89.8,39c-0.9-0.1-1.7-0.3-2.5-0.7c0,0-0.1,0-0.1,0c-2.3,0-4.1-0.9-6.2-1.5c-0.8-0.2-1.6-0.4-2.4-0.6l0,0
			c-0.3,0.1-1-0.1-1.2-0.2c-3.3-0.3-6.7-0.2-10.1,0.1c-2.1,0.2-4.1,0.4-6.1,0.7c-0.1,0-0.1,0-0.2,0c0,0-0.1,0-0.1,0
			c-0.4,0.1-0.9,0.1-1.3,0.2c-1,0.1-2,0.3-3.1,0.4c-2.4,0.3-4.8,0.7-7.1,1c-0.5,0.1-1,0.1-1.5,0.2c-0.2,0-1.1,0.1-1.1,0.1
			c-1.5,0.2-2.7,0.3-4.4-0.1c-0.3,0.1-0.6,0.2-1,0.2c3.9,14.3,2.5,19.1,1.9,33.9c15.1,15.1,29.7,14.6,44.2,0
			C87,58,85.9,53.3,89.8,39z"/>
		<path d="M71.8,48.4L71.8,48.4c-0.1-0.1-7.1-3.4-4.4,2.9c1,2.1,2,4.5,2.1,5.6c0,2.1-1.7,3.9-3.8,3.9c-2.1,0-3.9-1.7-3.9-3.8
			c0-1,0.8-3.3,1.7-5.4c2.7-6.6-3.9-3.3-4.4-3c-3.6,2.1-5.9,5.9-5.9,10.3c0.1,6.5,5.7,11.7,12.6,11.6c6.8-0.1,12.3-5.5,12.2-12
			C78,54.1,75.5,50.4,71.8,48.4z"/>
		<path fill="#4F0B0B" d="M43.8,70.5c0.2,0.2,5.4-10,21.9-5.9c0,0,9.5-3.8,20.6,1.4l0.2,4.6l-26.2,6.7l-8.2-1.9l-8.3-4.6"/>
		<g>
			<defs>
				<path id="SVGID_202_" d="M65.5,82.8c-6.9,0-14-3.5-21-10.5c0.1-2.6,0.3-4.9,0.4-7c0.6-9.4,0.9-14.7-2.1-26
					c6.8-4.2,14.6-6.4,22.7-6.3c8,0,16,2.2,23.2,6.4c-3.2,11.7-2.9,17.2-2.3,27.1c0.1,1.8,0.2,3.7,0.3,5.9
					C79.5,79.3,72.4,82.8,65.5,82.8z"/>
			</defs>
			<clipPath id="SVGID_2_">
				<use xlink:href="#SVGID_202_"  overflow="visible"/>
			</clipPath>
			<path clip-path="url(#SVGID_2_)" fill="#F3A9C2" d="M42.7,75c5.5-11,16.1-10.6,21.6-9.5c-7.8,6.2-7.6,11.9-7.6,11.9
				c1.8-4.8,5.4-7.8,8.1-9.4c1.5-0.9,2.7-1.4,3-1.5l0.1,0.1l0-0.1l0,0c14.8-5.1,24,4.9,24.4,5.3c-0.3-0.3-0.9-0.9-15.5,15.1
				C61.5,103.5,33.3,93.7,42.7,75z"/>
			<g clip-path="url(#SVGID_2_)">
				<path fill="#EC7198" d="M41.6,71.2c-0.8,0.6-1.2,1.5-1.3,2.5c-0.1,1,0.1,2,0.3,2.9c0.4,2.2,0.9,4.4,2,6.3
					c1.1,1.8,2.8,3.3,4.5,4.5c4.6,3.1,9.9,5,15.4,5.3c5.5,0.3,11.1-0.9,15.9-3.5c2.7-1.4,5.1-3.3,7.4-5.3c1.3-1.1,2.5-2.3,3.4-3.7
					c0.9-1.4,1.4-3.2,1-4.8c-0.6-2.6-1.4-7-4-7.2c-3.3-0.3-7.3,3.2-9.9,4.8c-3.2,2-6.3,4.1-9.6,5.9c-1.9,1-4.1,1.8-6.3,1.5
					c-4.5-0.5-7.4-4.9-11.2-6.8c-1-0.5-2.1-0.9-3.2-1.1c-1.1-0.2-2.3,0-3.3-0.4C42.6,72,41.7,71.1,41.6,71.2z"/>
			</g>
		</g>
		<g>
			<path fill="#FFFFFF" d="M41.5,38.9c15.6-6.7,34.1-6.4,48.3,0l0,0c-0.1,0.3-1.8,0.2-2.1,0.2c-1.1,0-2.1,0.1-3.1,0.4
				c-1.5,0.4-2.4,1-3.3,1.9c-0.8,0.8-1.7,1.6-3.2,1.7c-3.4,0.2-4.3-2.9-7.6-2.8c-3.3,0.1-3.7,3.3-7.2,3.2c-3.4,0-3.8-3.2-7.1-3.2
				c-3.3,0-4.3,3-7.7,2.8C45,42.9,44.8,39.1,41.5,38.9z"/>
		</g>
		<path fill="#C5C6C8" d="M78.1,43.1c1.5-0.1,2.4-0.9,3.2-1.7c0.2-0.2,0.4-0.4,0.7-0.6c-0.1,0-0.2,0-0.2,0c-1.1,0.2-2,1-3.1,1
			c-1,0-1.9-0.5-2.7-1c-2.2-1.2-5-1.8-7.3-0.9c-1,0.4-1.8,1.1-2.8,1.5c-1.5,0.6-3.3,0.5-4.7-0.2c-1-0.5-1.8-1.3-2.7-1.7
			C56.8,39,55,39.4,53.5,40c-1.5,0.6-3,1.5-4.6,1.9c-1.1,0.3-2.3,0.3-3.3-0.1c0.7,0.7,1.5,1.3,2.8,1.4c3.4,0.2,4.4-2.8,7.7-2.8
			c3.3,0,3.7,3.2,7.1,3.2c3.4,0,3.9-3.1,7.2-3.2C73.8,40.2,74.6,43.3,78.1,43.1z"/>
	</g>
	<path opacity="0.2" fill="#221F1F" d="M94.2,78.4c0.4-1,0.9-2.1,1.7-2.8c1.3-1.2,3.3-1.5,5.1-1.1c1.8,0.4,3.3,1.4,4.9,2.3
		c1.2,0.7,2.4,1.5,3.6,2.2l-10-0.5c-0.6,1.1-1.2,2.1-1.9,3l-7.6,12.5C90.8,88.7,92.2,83.4,94.2,78.4z"/>
	<g opacity="0.2">
		<path fill="#221F1F" d="M31.3,77.4L31.3,77.4c-0.6-1.1-1-2.2-1.4-3.3c2.5,2.5,4.5,5.7,6.5,8.7c2.3,3.4,4.8,7,8.4,9.2
			c5.4,3.2,9.5-0.9,14.7-1.8c3.8-0.7,8,0.3,11.1,2.7c3.3,2.7,3.9,7.5,5.5,11.2c0.6,1.4,1.5,2.8,2.9,3.3c1.1,0.4,2.2,0.2,3.3-0.3
			l-2.1,3.5c-1.1,1.8-3.8,1.8-4.8-0.1l-7.2-13.3l-0.2-0.3c-0.7,0-1.5,0.1-2.2,0.1c-1.9,0-3.9-0.1-5.7-0.3l-0.3,0.6l-7.2,13.3
			c-1,1.9-3.7,2-4.8,0.1l-16.3-33C31.3,77.5,31.3,77.4,31.3,77.4z"/>
	</g>
	<g>
		<path d="M72.7,23.7l1.3-15c0.1-1.7,1.6-3,3.3-3c4.4,0.1,12.8,1.3,20,8.6c1.1,1.2,1.2,3,0.2,4.3l-9.4,11.5L72.7,23.7z"/>
		<path fill="#C5C6C8" d="M91.6,25.9c-4.9-6.1-13.4-7.4-18.4-7.6l-0.5,5.4l1.8,0.8l13.7,5.7L91.6,25.9z"/>
		<g>
			<path d="M69,17.1c0.6,0,1.2,0.3,1.7,0.7c2.4,1.8,3.2,5.4,5.7,7.1c2.3,1.5,5.4,0.9,8.1,0.6c2.3-0.2,4.6-0.3,6.7,0.7
				c2.1,0.9,3.7,3,3.6,5.3c-0.2,2.8-2.8,2.8-4.5,1.3c-3.2-2.8-7.3-4.4-11.3-5.4c-2.1-0.6-4.3-1-6.5-1.3c-1.6-0.3-4.3-0.1-5.4-1.4
				c-0.4-0.5-0.5-1.1-0.6-1.7c-0.2-1.2-0.4-2.4-0.1-3.6C66.8,18.2,67.8,17.1,69,17.1z"/>
		</g>
	</g>
	<path d="M112.7,122.4H19.9c-1.4,0-2.5-1.1-2.5-2.5V91.7c0-1.4,1.1-2.5,2.5-2.5h92.8c1.4,0,2.5,1.1,2.5,2.5v28.3
		C115.2,121.3,114.1,122.4,112.7,122.4z"/>
	<g>
		<path fill="#FFFFFF" d="M27.6,104.9v-7.1h-2.6v-2.5h8v2.5h-2.6v7.1H27.6z"/>
		<path fill="#FFFFFF" d="M39.6,104.9l-0.3-1.1h-3.4l-0.3,1.1h-3.3l3.5-9.6h3.6l3.5,9.6H39.6z M37.6,98.2l-0.9,3.1h1.9L37.6,98.2z"
			/>
		<path fill="#FFFFFF" d="M43.5,104.9v-9.6h2.9v7.1H50v2.5H43.5z"/>
		<path fill="#FFFFFF" d="M56.7,104.9l-2.2-3.4l-0.5,0.7v2.7h-2.9v-9.6h2.9v3.6l2.5-3.6h3.5l-3.6,4.5l3.8,5.1H56.7z"/>
		<path fill="#FFFFFF" d="M63.7,103.6l1.5-2.2c0.7,0.7,1.8,1.2,3.1,1.2c0.5,0,1.1-0.1,1.1-0.5c0-0.9-5.3,0-5.3-3.8
			c0-1.6,1.4-3.2,4-3.2c1.6,0,3,0.4,4.1,1.3l-1.6,2.1c-0.8-0.6-1.9-0.9-2.8-0.9c-0.6,0-0.7,0.2-0.7,0.4c0,0.9,5.3,0.1,5.3,3.7
			c0,2.1-1.6,3.3-4.1,3.3C66.1,105.1,64.7,104.5,63.7,103.6z"/>
		<path fill="#FFFFFF" d="M79.6,104.9v-3.7h-3.4v3.7h-2.9v-9.6h2.9v3.4h3.4v-3.4h2.9v9.6H79.6z"/>
		<path fill="#FFFFFF" d="M83.5,100.2c0-2.9,2.3-5,5.2-5c3,0,5.2,2,5.2,5c0,2.9-2.3,5-5.2,5C85.8,105.1,83.5,103.1,83.5,100.2z
			 M91.1,100.2c0-1.3-0.9-2.4-2.3-2.4c-1.4,0-2.3,1.1-2.3,2.4c0,1.3,0.9,2.4,2.3,2.4C90.2,102.6,91.1,101.5,91.1,100.2z"/>
		<path fill="#FFFFFF" d="M102.1,104.9l-1.2-5.4l-1.2,5.4h-3l-2.7-9.6h3.2l1.2,5.9l1.5-5.9h2.2l1.5,5.9l1.2-5.9h3.3l-2.7,9.6H102.1z
			"/>
	</g>
	<g>
		<path fill="#FFFFFF" d="M47,116.2l-1.7-2.6H44v2.6h-0.8v-6.5h2.6c1.2,0,2,0.8,2,2c0,1.2-0.8,1.8-1.7,1.9l1.8,2.6H47z M47,111.6
			c0-0.7-0.5-1.2-1.3-1.2H44v2.5h1.7C46.5,112.9,47,112.4,47,111.6z"/>
		<path fill="#FFFFFF" d="M49.1,116.2v-6.5h0.8v6.5H49.1z"/>
		<path fill="#FFFFFF" d="M51.1,115.3l0.5-0.6c0.4,0.5,1.1,0.9,2,0.9c1.2,0,1.5-0.6,1.5-1.1c0-1.7-3.8-0.7-3.8-3.1
			c0-1.1,1-1.8,2.2-1.8c1,0,1.8,0.3,2.3,0.9l-0.5,0.6c-0.5-0.5-1.2-0.8-1.9-0.8c-0.8,0-1.3,0.4-1.3,1c0,1.5,3.8,0.6,3.8,3
			c0,0.9-0.6,1.9-2.4,1.9C52.4,116.3,51.6,115.9,51.1,115.3z"/>
		<path fill="#FFFFFF" d="M61.7,116.2l-0.6-1.4h-3.2l-0.6,1.4h-0.9l2.6-6.5h1l2.6,6.5H61.7z M59.5,110.5l-1.4,3.5h2.8L59.5,110.5z"
			/>
		<path fill="#FFFFFF" d="M63.5,116.2v-6.5h2.2c2,0,3.3,1.4,3.3,3.3c0,1.8-1.3,3.2-3.3,3.2H63.5z M68.2,112.9c0-1.4-0.9-2.5-2.5-2.5
			h-1.4v5.1h1.4C67.3,115.4,68.2,114.3,68.2,112.9z"/>
		<path fill="#FFFFFF" d="M74.5,116.2l-0.6-1.4h-3.2l-0.6,1.4h-0.9l2.6-6.5h1l2.6,6.5H74.5z M72.4,110.5L71,114h2.8L72.4,110.5z"/>
		<path fill="#FFFFFF" d="M80.1,116.2l-1.7-2.6h-1.3v2.6h-0.8v-6.5h2.6c1.2,0,2,0.8,2,2c0,1.2-0.8,1.8-1.7,1.9l1.8,2.6H80.1z
			 M80.1,111.6c0-0.7-0.5-1.2-1.3-1.2h-1.7v2.5h1.7C79.6,112.9,80.1,112.4,80.1,111.6z"/>
		<path fill="#FFFFFF" d="M82.2,116.2v-6.5H83v6.5H82.2z"/>
		<path fill="#FFFFFF" d="M89.2,116.2l-0.6-1.4h-3.2l-0.6,1.4h-0.9l2.6-6.5h1l2.6,6.5H89.2z M87,110.5l-1.4,3.5h2.8L87,110.5z"/>
	</g>
	<g>
		<path fill="#E2DCC5" d="M106.6,68.5L106.6,68.5c-0.3-0.3-3.3-0.6-7.1-0.6c-3.7,0-6.8,0.3-7,0.6h0c0,0-0.3,1.2-0.6,3
			c-0.2,0-0.4,0-0.6,0c-2.9,0.3-5.1,3.1-4.8,6.3c0.3,3.2,2.9,5.6,5.9,5.3c0.1,0,0.2,0,0.3,0c0.6,2,1.6,4,3,5.9h0c0,0,0,0,0,0
			c0,0.2,1.6,0.3,3.6,0.3c2,0,3.6-0.1,3.6-0.3c0,0,0,0,0,0h0C103,89,109.9,82.1,106.6,68.5z M92.2,81.5c-2.1,0.2-3.9-1.5-4.1-3.9
			c-0.2-2.3,1.3-4.4,3.3-4.5c0.1,0,0.2,0,0.3,0C91.5,75.4,91.5,78.4,92.2,81.5C92.3,81.5,92.2,81.5,92.2,81.5z"/>
		<path fill="#D4CEBA" d="M106.6,68.5L106.6,68.5c-0.2-0.2-1.2-0.4-2.9-0.5c0.5,2.9,2,14.7-2.1,21.2c0.8-0.1,1.2-0.1,1.2-0.2
			c0,0,0,0,0,0h0C103,89,109.9,82.1,106.6,68.5z"/>
	</g>
	<g>
		<polygon fill="#E2C675" stroke="#C3922E" stroke-width="0.746" stroke-miterlimit="10" points="99.8,72 101.3,75.7 105.3,76.1 
			102.3,78.7 103.2,82.6 99.8,80.5 96.3,82.6 97.2,78.7 94.2,76.1 98.2,75.7 		"/>
		<line fill="#E2C675" stroke="#C3922E" stroke-width="0.2797" stroke-miterlimit="10" x1="98.3" y1="77.1" x2="101.3" y2="77.1"/>
		<line fill="#E2C675" stroke="#C3922E" stroke-width="0.2797" stroke-miterlimit="10" x1="98.9" y1="77.9" x2="100.7" y2="77.9"/>
	</g>
</g>
</svg>
