<?xml version="1.0" encoding="utf-8"?>
<!-- Generator: Adobe Illustrator 18.0.0, SVG Export Plug-In . SVG Version: 6.00 Build 0)  -->
<!DOCTYPE svg PUBLIC "-//W3C//DTD SVG 1.1//EN" "http://www.w3.org/Graphics/SVG/1.1/DTD/svg11.dtd">
<svg version="1.1" id="Layer_1" xmlns="http://www.w3.org/2000/svg" xmlns:xlink="http://www.w3.org/1999/xlink" x="0px" y="0px"
	 viewBox="0 0 133 127" enable-background="new 0 0 133 127" xml:space="preserve">
<g>
	<path opacity="0.2" fill="#221F1F" d="M125.9,82.6l-0.8-0.4c0.3-0.7,0.5-1.4,0.5-2.2v-3.3c0-2-1.1-3.7-2.7-4.6
		c-0.2-0.4-0.4-0.9-0.7-1.3l-0.1-0.1c-0.1-0.2-0.3-0.3-0.4-0.5l0.6-0.7c0.2-0.2,0.5-0.5,0.7-0.8c0.8-1.1,1.1-2.5,0.9-3.9l0-0.1
		c-0.2-1.3-0.9-2.3-1.8-3.1c1.1-1.7,1.8-3.7,1.8-5.9c0-3.2-1.5-6.1-3.7-8.1c0.5-1,0.7-2.2,0.7-3.4c0-4.6-3.7-8.3-8.3-8.3
		c-2.2,0-4.2,0.9-5.7,2.3c-0.3-0.1-0.6-0.2-0.9-0.3l1.2-2.9c1-2.3,0.7-5-0.6-7.1c-1.4-2.1-3.7-3.4-6.2-3.4
		c-24.4-26.2-55.8-19-55.8-19l0,0c-1.8-0.9-4-1.4-6.4-1.4c-3.5,0-7.3,1-10.8,2.8c-3.8,2-7,4.8-9,7.9c-2.5,3.9-2.9,8.1-1.2,11.5
		c1.2,2.4,3.3,4.1,6.1,5l2.8,5.4c-0.3,0.3-0.6,0.7-0.9,1L7.2,40.6c-2.7,0.4-5,2.2-6,4.8c-1,2.5-0.5,5.4,1.2,7.6l13.6,17l0,0.2
		c0.1,0.5,0.2,0.9,0.3,1.4c0.1,0.4,0.2,0.8,0.3,1.2c0,0,0,0,0,0c1,3.9,2.5,7.5,4.5,10.8c-2.5,1.3-4.2,3.9-4.2,6.9v28.3
		c0,4.3,3.5,7.7,7.7,7.7h92.8c4.3,0,7.7-3.5,7.7-7.7V92.1c1.6-0.6,2.8-1.9,3.3-3.6C129,86.1,128,83.7,125.9,82.6z"/>
	<path fill="#FFFFFF" d="M129.6,78.8l-0.8-0.4c0.3-0.7,0.5-1.4,0.5-2.2v-3.3c0-2-1.1-3.7-2.7-4.6c-0.2-0.4-0.4-0.9-0.7-1.3l-0.1-0.1
		c-0.1-0.2-0.3-0.3-0.4-0.5l0.6-0.7c0.2-0.2,0.5-0.5,0.7-0.8c0.8-1.1,1.1-2.5,0.9-3.9l0-0.1c-0.2-1.3-0.9-2.3-1.8-3.1
		c1.1-1.7,1.8-3.7,1.8-5.9c0-3.2-1.5-6.1-3.7-8.1c0.5-1,0.7-2.2,0.7-3.4c0-4.6-3.7-8.3-8.3-8.3c-2.2,0-4.2,0.9-5.7,2.3
		c-0.3-0.1-0.6-0.2-0.9-0.3l1.2-2.9c1-2.3,0.7-5-0.6-7.1c-1.4-2.1-3.7-3.4-6.2-3.4c-24.4-26.2-55.8-19-55.8-19l0,0
		c-1.8-0.9-4-1.4-6.4-1.4c-3.5,0-7.3,1-10.8,2.8c-3.8,2-7,4.8-9,7.9c-2.5,3.9-2.9,8.1-1.2,11.5c1.2,2.4,3.3,4.1,6.1,5l2.8,5.4
		c-0.3,0.3-0.6,0.7-0.9,1l-17.9,2.8c-2.7,0.4-5,2.2-6,4.8c-1,2.5-0.5,5.4,1.2,7.6l13.6,17l0,0.2c0.1,0.5,0.2,0.9,0.3,1.4
		c0.1,0.4,0.2,0.8,0.3,1.2c0,0,0,0,0,0c1,3.9,2.5,7.5,4.5,10.8c-2.5,1.3-4.2,3.9-4.2,6.9V115c0,4.3,3.5,7.7,7.7,7.7h92.8
		c4.3,0,7.7-3.5,7.7-7.7V88.3c1.6-0.6,2.8-1.9,3.3-3.6C132.7,82.4,131.7,80,129.6,78.8z"/>
	<g>
		<path fill="#C92128" d="M29.4,77.3c1.4-1.4,1.1-0.6,3.2-1.1L49.3,79L64,75.4c2.1-0.5,3.9,1.4,3.3,3.5l-4.2,14.5L59,108
			c-0.6,2.1-3.2,2.7-4.7,1.2L29.4,77.3z"/>
		<g>
			<path fill="none" stroke="#A3A5A8" stroke-width="0.4377" stroke-miterlimit="10" d="M28.5,21.8c0,0,0.2-0.1,0.7-0.4
				c0.5-0.2,1.2-0.6,2.1-1c1.9-0.8,4.6-1.9,8-3c3.4-1,7.4-2.1,11.8-2.7c4.4-0.6,9-0.9,13.6-0.4c4.6,0.5,9.1,1.6,13,3.2
				c3.9,1.7,7.3,3.9,10,6.1c0.7,0.5,1.3,1.1,1.9,1.6c0.6,0.5,1.2,1,1.6,1.5c0.5,0.5,0.9,1,1.3,1.4c0.4,0.4,0.8,0.8,1.1,1.3
				c1.3,1.6,2,2.5,2,2.5"/>
			<path fill="none" stroke="#A3A5A8" stroke-width="0.4377" stroke-miterlimit="10" d="M25.7,16.5c0,0,0.3-0.2,0.9-0.4
				c0.6-0.3,1.3-0.6,2.4-1.1c2-0.9,5-2.1,8.6-3.2c3.6-1.1,7.9-2.3,12.7-2.9c4.7-0.7,9.9-1,15.1-0.4c5.1,0.5,10.3,1.8,14.8,3.7
				c4.5,1.9,8.4,4.4,11.4,7c0.8,0.6,1.4,1.3,2.1,1.8c0.6,0.6,1.3,1.1,1.8,1.7c0.5,0.6,1,1.1,1.5,1.6c0.5,0.5,0.9,1,1.2,1.4
				c1.4,1.8,2.2,2.8,2.2,2.8"/>
			<line fill="none" stroke="#A3A5A8" stroke-width="0.4377" stroke-miterlimit="10" x1="32.4" y1="21.5" x2="28.9" y2="13.4"/>
			<line fill="none" stroke="#A3A5A8" stroke-width="0.4377" stroke-miterlimit="10" x1="36.8" y1="19.8" x2="33.8" y2="11.5"/>
			<line fill="none" stroke="#A3A5A8" stroke-width="0.4377" stroke-miterlimit="10" x1="41.3" y1="18.3" x2="38.8" y2="9.8"/>
			<line fill="none" stroke="#A3A5A8" stroke-width="0.4377" stroke-miterlimit="10" x1="45.8" y1="17.1" x2="43.9" y2="8.5"/>
			<line fill="none" stroke="#A3A5A8" stroke-width="0.4377" stroke-miterlimit="10" x1="50.5" y1="16.2" x2="49.1" y2="7.5"/>
			<line fill="none" stroke="#A3A5A8" stroke-width="0.4377" stroke-miterlimit="10" x1="55.1" y1="15.7" x2="54.4" y2="6.9"/>
			<line fill="none" stroke="#A3A5A8" stroke-width="0.4377" stroke-miterlimit="10" x1="59.7" y1="15.5" x2="59.7" y2="6.7"/>
			<line fill="none" stroke="#A3A5A8" stroke-width="0.4377" stroke-miterlimit="10" x1="64.3" y1="15.7" x2="65.1" y2="6.9"/>
			<line fill="none" stroke="#A3A5A8" stroke-width="0.4377" stroke-miterlimit="10" x1="68.8" y1="16.4" x2="70.5" y2="7.7"/>
			<line fill="none" stroke="#A3A5A8" stroke-width="0.4377" stroke-miterlimit="10" x1="73.2" y1="17.5" x2="75.8" y2="9"/>
			<line fill="none" stroke="#A3A5A8" stroke-width="0.4377" stroke-miterlimit="10" x1="77.4" y1="19" x2="80.9" y2="10.9"/>
			<line fill="none" stroke="#A3A5A8" stroke-width="0.4377" stroke-miterlimit="10" x1="81.4" y1="21" x2="85.8" y2="13.4"/>
			<line fill="none" stroke="#A3A5A8" stroke-width="0.4377" stroke-miterlimit="10" x1="85.2" y1="23.5" x2="90.4" y2="16.4"/>
			<line fill="none" stroke="#A3A5A8" stroke-width="0.4377" stroke-miterlimit="10" x1="88.6" y1="26.4" x2="94.6" y2="19.9"/>
			<line fill="none" stroke="#A3A5A8" stroke-width="0.4377" stroke-miterlimit="10" x1="91.8" y1="29.6" x2="98.4" y2="23.8"/>
		</g>
		<path fill="#C92128" d="M82.2,28.5c-1.7,0.2-5.6,2.8-4.6,4.2l7.4,9.9l7.4,9.9c1.1,1.4,3.2,1.1,3.9-0.5l4.8-11.4l4.8-11.4
			c0.7-1.6-0.6-3.4-2.4-3.1L82.2,28.5z"/>
		<path fill="#C92128" d="M11.7,42.1C9.8,42.3,9,44.5,10.2,46l8.3,10.3l8.3,10.3c1.2,1.5,3.5,1.1,4.1-0.6l4.8-12.3l4.8-12.3
			c0.7-1.7-2.5-3.3-4.3-3L11.7,42.1z"/>
		<path fill="#C92128" d="M98.7,66.1c0.7-2-4.1-3.1-6.2-2.7l-14.2,9.5l-14.9,2.8c-2.1,0.4-3,2.9-1.6,4.5l9.8,11.5l9.8,11.5
			c1.4,1.6,4,1.1,4.7-0.9L98.7,66.1z"/>
		<path fill="#C92128" d="M85.1,69.4c-1.6,1.1-2.3,0.1-4.2,0.5c-4.3,0.9-2.3,5.7-5.7,3.5l-9.9,1.8c-2.1,0.4-3,2.9-1.6,4.5l9.8,11.5
			l9.8,11.5c1.4,1.6,4,1.1,4.7-0.9l9-36c-0.1,0-5.5,2.9-5.7,2.9C89.7,69.3,86.8,69.6,85.1,69.4z"/>
		<path fill="#C92128" d="M25.2,66.8c4.3,19.7,23.7,29.6,44,25.2s34-21.4,29.7-41.1C94.7,31.1,75.1,20.6,54.7,25S20.9,47,25.2,66.8z
			"/>
		<path opacity="0.2" fill="#221F1F" d="M44.7,75c0,0,18.4,22.6,37-6.4l-25.6,1.8L44.7,75z"/>
		<path fill="#4F0B0B" d="M80,30.5c-0.9,0.1-1.8,0-2.6-0.2c0,0-0.1,0-0.1,0c-2.2,0.5-4.1,0-6.3-0.2c-0.8-0.1-1.7-0.1-2.5-0.1l0,0
			c-0.3,0.1-1,0.1-1.2,0.1c-3.3,0.4-6.6,1.2-9.8,2.2c-2,0.6-3.9,1.3-5.9,2c-0.1,0-0.1,0-0.2,0.1c0,0-0.1,0-0.1,0
			c-0.4,0.1-0.8,0.3-1.2,0.4c-1,0.4-1.9,0.7-2.9,1.1c-2.3,0.8-4.5,1.7-6.8,2.5c-0.5,0.2-1,0.3-1.5,0.5c-0.2,0.1-1.1,0.3-1,0.3
			c-1.5,0.5-2.5,0.8-4.3,0.9c-0.3,0.2-0.6,0.3-0.9,0.4c6.9,13.2,6.5,18.1,9,32.7c17.9,11.6,32.1,7.9,43.2-9.3
			C81.3,49.7,79.2,45.2,80,30.5z"/>
		<path d="M64.5,43.5L64.5,43.5c-0.1,0-7.6-1.8-3.7,3.8c1.4,1.9,2.9,4,3.2,5c0.5,2.1-0.8,4.1-2.9,4.6C59,57.4,57,56.1,56.5,54
			c-0.2-1,0.1-3.4,0.6-5.6c1.2-7-4.5-2.4-4.9-2c-3.1,2.8-4.6,7.1-3.6,11.3c1.5,6.4,8.1,10.3,14.8,8.7c6.7-1.6,10.9-8,9.4-14.4
			C71.7,47.8,68.5,44.7,64.5,43.5z"/>
		<path fill="#4F0B0B" d="M41.7,71c0.2,0.1,3.2-11,20.1-10.4c0,0,8.5-5.7,20.4-3l1.2,4.4L59.3,74.2L50.9,74l-9.1-2.7"/>
		<g>
			<defs>
				<path id="SVGID_194_" d="M65.6,78.4c-6.8,1.5-14.4-0.5-22.8-5.8c-0.4-2.6-0.8-4.9-1.1-6.9c-1.4-9.3-2.2-14.6-7.6-25
					c5.8-5.5,13-9.3,20.8-11c7.8-1.7,16.1-1.2,24,1.3c-0.6,12.1,0.9,17.4,3.4,27c0.5,1.7,1,3.6,1.5,5.7C78.5,72,72.3,77,65.6,78.4z"
					/>
			</defs>
			<clipPath id="SVGID_2_">
				<use xlink:href="#SVGID_194_"  overflow="visible"/>
			</clipPath>
			<path clip-path="url(#SVGID_2_)" fill="#F3A9C2" d="M41.6,75.7c3.1-11.9,13.5-13.8,19.1-13.9C54.4,69.5,55.8,75,55.8,75
				c0.7-5.1,3.7-8.8,5.9-10.9c1.3-1.2,2.4-1.9,2.6-2.1l0.1,0.1l-0.1-0.1l0,0c13.3-8.1,24.5-0.3,24.9,0c-0.3-0.2-1.1-0.7-11.9,18.1
				C66,99.5,36.4,95.9,41.6,75.7z"/>
			<g clip-path="url(#SVGID_2_)">
				<path fill="#EC7198" d="M39.7,72.2C39.1,72.9,38.9,74,39,75c0.1,1,0.5,1.9,0.9,2.8c0.9,2,1.8,4.1,3.3,5.7
					c1.5,1.6,3.4,2.6,5.4,3.4c5.1,2.1,10.8,2.7,16.2,1.9c5.4-0.9,10.6-3.2,14.8-6.8c2.3-2,4.3-4.3,6.1-6.7c1-1.4,2-2.8,2.6-4.4
					s0.7-3.4,0-4.9c-1.1-2.4-2.8-6.5-5.5-6.2c-3.2,0.4-6.5,4.7-8.7,6.8c-2.7,2.6-5.3,5.3-8.2,7.8c-1.7,1.4-3.6,2.6-5.8,2.8
					c-4.5,0.5-8.2-3.2-12.4-4.3c-1.1-0.3-2.2-0.4-3.3-0.4c-1.1,0-2.2,0.5-3.3,0.3C40.8,72.8,39.9,72.1,39.7,72.2z"/>
			</g>
		</g>
		<g>
			<path fill="#FFFFFF" d="M81.7,30.1C65.1,26.8,47,30.9,34.5,40.3l0,0c0.2,0.3,1.8-0.2,2.1-0.2c1.1-0.2,2.1-0.3,3.2-0.3
				c1.5,0,2.6,0.5,3.7,1.1c1,0.6,2,1.2,3.5,1c3.4-0.6,3.6-3.8,6.9-4.3c3.3-0.6,4.3,2.4,7.7,1.6c3.4-0.8,3-3.9,6.3-4.6
				c3.2-0.7,4.9,2.1,8.1,1.1C79.1,34.7,78.5,31,81.7,30.1z"/>
		</g>
		<path fill="#C5C6C8" d="M46.8,41.9c-1.5,0.2-2.5-0.4-3.5-1c-0.3-0.2-0.5-0.3-0.8-0.4c0.1,0,0.2,0,0.2,0c1.1,0,2.2,0.5,3.3,0.4
			c1-0.2,1.7-0.9,2.5-1.5c1.9-1.6,4.5-2.8,7-2.4c1,0.2,2,0.7,3,0.8c1.6,0.3,3.3-0.2,4.6-1.2c0.8-0.7,1.4-1.6,2.3-2.2
			c1.4-0.9,3.2-0.9,4.8-0.7c1.6,0.3,3.2,0.8,4.9,0.9c1.1,0,2.3-0.2,3.2-0.8c-0.5,0.9-1.2,1.6-2.5,2c-3.3,0.9-4.9-1.9-8.1-1.1
			c-3.3,0.7-2.9,3.9-6.3,4.6c-3.3,0.8-4.4-2.2-7.7-1.6C50.4,38.1,50.2,41.3,46.8,41.9z"/>
		<g opacity="0.2">
			<path fill="#221F1F" d="M31.4,80.3L31.4,80.3c-0.8-1-1.4-1.9-2.1-2.9c3,1.9,5.6,4.6,8.2,7.2c2.9,2.9,6.2,5.9,10.2,7.2
				c6,2,9.1-2.8,14-4.8c3.6-1.5,7.9-1.4,11.4,0.3c3.8,1.9,5.4,6.5,7.7,9.8c0.9,1.2,2,2.4,3.5,2.6c1.1,0.2,2.2-0.3,3.2-1l-1.3,3.8
				c-0.7,2-3.3,2.5-4.7,0.9l-9.8-11.5l-0.3-0.3c-0.7,0.2-1.4,0.4-2.1,0.5c-1.9,0.4-3.8,0.7-5.7,0.9l-0.2,0.7l-4.2,14.5
				c-0.6,2.1-3.2,2.7-4.7,1.2L31.5,80.4C31.5,80.3,31.5,80.3,31.4,80.3z"/>
		</g>
		<g opacity="0.2">
			<path fill="#221F1F" d="M15.5,52.6c1.7,0.8,3.4,1.6,5.1,2.4c1.8,0.8,3.6,1.7,4.7,3.3c1.4,2.1,1.2,4.9,0.6,7.3
				c-0.2,0.7-0.4,1.4-0.5,2.2c-0.1-0.3-0.2-0.7-0.2-1c-0.2-0.9-0.4-1.8-0.5-2.7l-6.3-7.8L15.5,52.6z"/>
		</g>
		<g>
			<path fill="#E46425" d="M121.1,117.5H28.4c-1.4,0-2.5-1.1-2.5-2.5V86.7c0-1.4,1.1-2.5,2.5-2.5h92.8c1.4,0,2.5,1.1,2.5,2.5V115
				C123.7,116.4,122.5,117.5,121.1,117.5z"/>
			<g>
				<path fill="#FFFFFF" d="M36.9,111.3l-3.3-4.9v4.9h-2.7v-9.6h2.8l3.1,4.5v-4.5h2.7v9.6H36.9z"/>
				<path fill="#FFFFFF" d="M40.5,106.5c0-2.9,2.1-5,4.9-5c2.8,0,4.9,2,4.9,5c0,2.9-2.1,5-4.9,5C42.6,111.4,40.5,109.4,40.5,106.5z
					 M47.5,106.5c0-1.3-0.8-2.4-2.1-2.4c-1.3,0-2.1,1.1-2.1,2.4c0,1.3,0.8,2.4,2.1,2.4C46.7,108.9,47.5,107.8,47.5,106.5z"/>
				<path fill="#FFFFFF" d="M50.5,109.9l1.4-2.2c0.7,0.7,1.7,1.2,2.9,1.2c0.5,0,1-0.1,1-0.5c0-0.9-5,0-5-3.8c0-1.6,1.3-3.2,3.7-3.2
					c1.5,0,2.8,0.4,3.8,1.3l-1.4,2.1c-0.8-0.6-1.8-0.9-2.6-0.9c-0.5,0-0.7,0.2-0.7,0.4c0,0.9,5,0.1,5,3.7c0,2.1-1.5,3.3-3.9,3.3
					C52.8,111.4,51.5,110.8,50.5,109.9z"/>
				<path fill="#FFFFFF" d="M64.8,111.3v-7.1h-2.4v-2.5h7.5v2.5h-2.4v7.1H64.8z"/>
				<path fill="#FFFFFF" d="M75.7,111.3l-1.2-3h-1v3h-2.7v-9.6h4.8c2.1,0,3.2,1.5,3.2,3.3c0,1.7-0.9,2.5-1.6,2.9l1.6,3.4H75.7z
					 M76.1,104.9c0-0.5-0.4-0.7-0.9-0.7h-1.6v1.5h1.6C75.6,105.7,76.1,105.5,76.1,104.9z"/>
				<path fill="#FFFFFF" d="M79.9,111.3v-9.6h2.7v9.6H79.9z"/>
				<path fill="#FFFFFF" d="M84.1,111.3v-9.6h2.7v7.1h3.4v2.5H84.1z"/>
				<path fill="#FFFFFF" d="M97.1,111.3v-3.7h-3.2v3.7h-2.7v-9.6h2.7v3.4h3.2v-3.4h2.7v9.6H97.1z"/>
				<path fill="#FFFFFF" d="M100.8,106.5c0-2.9,2.1-5,4.9-5c2.8,0,4.9,2,4.9,5c0,2.9-2.1,5-4.9,5
					C102.9,111.4,100.8,109.4,100.8,106.5z M107.8,106.5c0-1.3-0.8-2.4-2.1-2.4c-1.3,0-2.1,1.1-2.1,2.4c0,1.3,0.8,2.4,2.1,2.4
					C107,108.9,107.8,107.8,107.8,106.5z"/>
				<path fill="#FFFFFF" d="M110.9,109.9l1.4-2.2c0.7,0.7,1.7,1.2,2.9,1.2c0.5,0,1-0.1,1-0.5c0-0.9-5,0-5-3.8c0-1.6,1.3-3.2,3.7-3.2
					c1.5,0,2.8,0.4,3.8,1.3l-1.4,2.1c-0.8-0.6-1.8-0.9-2.6-0.9c-0.5,0-0.7,0.2-0.7,0.4c0,0.9,5,0.1,5,3.7c0,2.1-1.5,3.3-3.9,3.3
					C113.1,111.4,111.8,110.8,110.9,109.9z"/>
			</g>
			<g>
				<path fill="#FFFFFF" d="M55.4,96.9l-1.7-2.6h-1.3v2.6h-0.8v-6.5h2.6c1.2,0,2,0.8,2,2c0,1.2-0.8,1.8-1.7,1.9l1.8,2.6H55.4z
					 M55.4,92.4c0-0.7-0.5-1.2-1.3-1.2h-1.7v2.5h1.7C54.9,93.7,55.4,93.1,55.4,92.4z"/>
				<path fill="#FFFFFF" d="M57.5,96.9v-6.5h0.8v6.5H57.5z"/>
				<path fill="#FFFFFF" d="M59.5,96l0.5-0.6c0.4,0.5,1.1,0.9,2,0.9c1.2,0,1.5-0.6,1.5-1.1c0-1.7-3.8-0.7-3.8-3.1
					c0-1.1,1-1.8,2.2-1.8c1,0,1.8,0.3,2.3,0.9l-0.5,0.6c-0.5-0.5-1.2-0.8-1.9-0.8c-0.8,0-1.3,0.4-1.3,1c0,1.5,3.8,0.6,3.8,3
					c0,0.9-0.6,1.9-2.4,1.9C60.8,97.1,60,96.6,59.5,96z"/>
				<path fill="#FFFFFF" d="M70.1,96.9l-0.6-1.4h-3.2l-0.6,1.4h-0.9l2.6-6.5h1l2.6,6.5H70.1z M67.9,91.3l-1.4,3.5h2.8L67.9,91.3z"/>
				<path fill="#FFFFFF" d="M71.9,96.9v-6.5h2.2c2,0,3.3,1.4,3.3,3.3c0,1.8-1.3,3.2-3.3,3.2H71.9z M76.6,93.7c0-1.4-0.9-2.5-2.5-2.5
					h-1.4v5.1h1.4C75.7,96.2,76.6,95.1,76.6,93.7z"/>
				<path fill="#FFFFFF" d="M83,96.9l-0.6-1.4h-3.2l-0.6,1.4h-0.9l2.6-6.5h1l2.6,6.5H83z M80.8,91.3l-1.4,3.5h2.8L80.8,91.3z"/>
				<path fill="#FFFFFF" d="M88.5,96.9l-1.7-2.6h-1.3v2.6h-0.8v-6.5h2.6c1.2,0,2,0.8,2,2c0,1.2-0.8,1.8-1.7,1.9l1.8,2.6H88.5z
					 M88.5,92.4c0-0.7-0.5-1.2-1.3-1.2h-1.7v2.5h1.7C88,93.7,88.5,93.1,88.5,92.4z"/>
				<path fill="#FFFFFF" d="M90.7,96.9v-6.5h0.8v6.5H90.7z"/>
				<path fill="#FFFFFF" d="M97.6,96.9L97,95.5h-3.2l-0.6,1.4h-0.9l2.6-6.5h1l2.6,6.5H97.6z M95.4,91.3L94,94.8h2.8L95.4,91.3z"/>
			</g>
		</g>
		
			<ellipse transform="matrix(0.8883 -0.4593 0.4593 0.8883 -2.5403 18.5305)" fill="#248DCA" cx="36.8" cy="14.5" rx="12.7" ry="7.3"/>
		<path fill="#248DCA" d="M52.1,23.6L46.4,12l-17.1,8.8l5.8,11.2C35.1,32.1,43.5,25.7,52.1,23.6z"/>
		<path fill="#FBCC34" d="M44.6,15.3c3.1-3.3-1.8-8.6-1.9-8.7c-1.4-0.2-3.1-0.1-4.9,0.4c5.4,3.4,3.4,10.2,3.4,10.2l4.4,8.6l0,0
			c0.9-0.4,1.8-0.8,2.7-1.1L44.6,15.3z"/>
		<path fill="#FBCC34" d="M36.8,18.6c0,0-7.9-3.5-5.3-9.5c-1.2,0.8-2.3,1.7-3.3,2.7c0,0.1-2.5,7.6,5.5,8.7l4.9,9.2l0,0
			c1.1-0.7,2.5-1.5,4-2.3l0,0L36.8,18.6z"/>
		<path opacity="0.3" d="M30.5,23.2c0,0,2.6-2.9,8.8-5.8c0,0-6,4.2-8.3,6.7L30.5,23.2z"/>
		<g>
			<polygon fill="#1F6895" points="105.8,71.8 84.3,71.8 86.6,67.7 105.8,67.7 			"/>
			<g>
				
					<ellipse transform="matrix(0.9629 0.27 -0.27 0.9629 26.7734 -29.0944)" fill="#515151" cx="119.1" cy="82.8" rx="1.4" ry="1.8"/>
				<path opacity="0.2" d="M120.1,81.2l-0.9,3.3c0.6-0.1,1.1-0.6,1.4-1.4C120.7,82.4,120.5,81.6,120.1,81.2z"/>
				<ellipse transform="matrix(0.9629 0.27 -0.27 0.9629 26.7728 -29.0939)" fill="#6D6D6D" cx="119.1" cy="82.8" rx="1" ry="1.3"/>
				
					<ellipse transform="matrix(0.9629 0.27 -0.27 0.9629 26.5603 -27.5423)" fill="#515151" cx="113.4" cy="82.8" rx="1.4" ry="1.8"/>
				<path opacity="0.2" d="M114.3,81.2l-0.9,3.3c0.6-0.1,1.1-0.6,1.4-1.4C115,82.4,114.8,81.6,114.3,81.2z"/>
				<ellipse transform="matrix(0.9629 0.27 -0.27 0.9629 26.5587 -27.5411)" fill="#6D6D6D" cx="113.4" cy="82.8" rx="1" ry="1.3"/>
				<rect x="113.4" y="82.5" fill="#3A3A3A" width="5.8" height="0.7"/>
				<polygon fill="#3A3A3A" points="117.2,82.8 115.7,82.8 115.2,80.5 117.9,80.5 				"/>
				<polygon fill="#5D5D5D" points="116.3,82.2 116,82.2 116.2,81 116.5,81 				"/>
				<polygon fill="#5D5D5D" points="116.8,82.2 116.5,82.2 116.7,81 117,81 				"/>
			</g>
			<g>
				<polygon fill="#1F6895" points="115,59.9 120.1,59.9 122.4,61.9 118.7,66.6 118.7,70.1 116,70.1 116,66.3 112.7,62.2 				"/>
				<path fill="none" stroke="#144966" stroke-width="0.1307" stroke-miterlimit="10" d="M112.7,62.2c0,0,5.6,0.4,9.7-0.3"/>
				<path fill="none" stroke="#144966" stroke-width="0.1307" stroke-miterlimit="10" d="M116,66.3c0,0,1.1,1,2.7,0.3"/>
				<ellipse fill="#144966" cx="114.5" cy="61.6" rx="0.2" ry="0.3"/>
				<ellipse fill="#144966" cx="115.8" cy="61.6" rx="0.2" ry="0.3"/>
				<ellipse fill="#144966" cx="117.2" cy="61.6" rx="0.2" ry="0.3"/>
				<ellipse fill="#144966" cx="118.5" cy="61.6" rx="0.2" ry="0.3"/>
				<ellipse fill="#144966" cx="119.7" cy="61.6" rx="0.2" ry="0.3"/>
				<ellipse fill="#144966" cx="120.8" cy="61.6" rx="0.2" ry="0.3"/>
				<ellipse fill="#144966" cx="116.5" cy="67.7" rx="0.2" ry="0.2"/>
				<ellipse fill="#144966" cx="117.4" cy="67.7" rx="0.2" ry="0.2"/>
				<ellipse fill="#144966" cx="118.3" cy="67.7" rx="0.2" ry="0.2"/>
			</g>
			<rect x="106.7" y="70.1" fill="#1F6895" width="15" height="8.8"/>
			<rect x="106.7" y="76.3" opacity="0.2" width="15" height="2.6"/>
			<rect x="118.4" y="72.9" fill="#1F6895" width="5.6" height="3.3"/>
			<path fill="none" stroke="#144966" stroke-width="0.1307" stroke-miterlimit="10" d="M121.7,78.9c0,0-5.4-4.7,0-8.8"/>
			<path fill="none" stroke="#144966" stroke-width="0.1307" stroke-miterlimit="10" d="M112.7,78.9c0,0-5.4-4.7,0-8.8"/>
			<polygon fill="#1F6895" points="120.6,79.9 120.6,83.4 127.1,83.4 			"/>
			<g>
				
					<ellipse transform="matrix(0.9629 0.27 -0.27 0.9629 25.3672 -25.5896)" fill="#515151" cx="105.7" cy="79.4" rx="4.1" ry="5.2"/>
				<path opacity="0.2" d="M108.4,75.1l-2.6,9.3c1.7-0.3,3.2-1.8,3.8-4C110.2,78.4,109.7,76.3,108.4,75.1z"/>
				
					<ellipse transform="matrix(0.9629 0.27 -0.27 0.9629 25.3671 -25.5895)" fill="#6D6D6D" cx="105.7" cy="79.4" rx="2.8" ry="3.6"/>
				
					<ellipse transform="matrix(0.9629 0.27 -0.27 0.9629 24.7655 -21.2152)" fill="#515151" cx="89.5" cy="79.4" rx="4.1" ry="5.2"/>
				<path opacity="0.2" d="M92.2,75.1l-2.6,9.3c1.7-0.3,3.2-1.8,3.8-4C94,78.4,93.5,76.3,92.2,75.1z"/>
				
					<ellipse transform="matrix(0.9629 0.27 -0.27 0.9629 24.7654 -21.2151)" fill="#6D6D6D" cx="89.5" cy="79.4" rx="2.8" ry="3.6"/>
				<rect x="89.5" y="78.6" fill="#3A3A3A" width="16.3" height="2"/>
				<polygon fill="#3A3A3A" points="100.3,79.4 96,79.4 94.7,73.1 102.3,73.1 				"/>
				<polygon fill="#5D5D5D" points="97.6,77.8 96.8,77.8 97.4,74.3 98.1,74.3 				"/>
				<polygon fill="#5D5D5D" points="99,77.8 98.2,77.8 98.8,74.3 99.6,74.3 				"/>
			</g>
			<polygon fill="#1F6895" points="91.6,68.2 91.6,55.5 105.7,55.8 105.8,69.2 			"/>
			<polygon opacity="0.2" points="91.6,55.5 91.6,57.9 105.8,70.9 105.8,69.2 105.7,55.8 			"/>
			<rect x="93.6" y="57.5" fill="#BFE4EE" width="5.3" height="8.8"/>
			<rect x="101.8" y="57.5" fill="#BFE4EE" width="2.6" height="8.8"/>
			<rect x="83.5" y="53.6" fill="#1F6895" width="22.4" height="0.9"/>
			<path fill="#1F6895" d="M91,55.5h-6.9v1.1h2.7c1.4,0,2.5,1.1,2.5,2.5v4.5H91V55.5z"/>
			<line fill="none" stroke="#144966" stroke-width="0.1307" stroke-miterlimit="10" x1="87.6" y1="69.7" x2="104.1" y2="69.7"/>
		</g>
		<circle fill="#A3A5A8" cx="117" cy="51.9" r="5.4"/>
		<circle fill="#B8BABC" cx="106.7" cy="43.3" r="4.3"/>
		<circle fill="#CDCFD0" cx="116.3" cy="40.4" r="3"/>
	</g>
</g>
</svg>
