<?xml version="1.0" encoding="utf-8"?>
<!-- Svg Vector Icons : http://www.onlinewebfonts.com/icon -->
<!DOCTYPE svg PUBLIC "-//W3C//DTD SVG 1.1//EN" "http://www.w3.org/Graphics/SVG/1.1/DTD/svg11.dtd">
<svg version="1.1" xmlns="http://www.w3.org/2000/svg" xmlns:xlink="http://www.w3.org/1999/xlink" x="0px" y="0px" viewBox="0 0 1000 1000" enable-background="new 0 0 1000 1000" xml:space="preserve" class="fill-pink">
<g><g><g><path d="M500,990c-45.1,0-88.5-5.9-130.3-17.6c-41.8-11.8-80.9-28.3-117.1-49.5c-36.3-21.2-69.3-46.7-99-76.4c-29.7-29.7-55.2-62.7-76.4-99c-21.2-36.3-37.7-75.3-49.5-117.1C15.9,588.5,10,545.1,10,500s5.9-88.5,17.6-130.3c11.8-41.8,28.3-80.9,49.5-117.1c21.2-36.3,46.7-69.3,76.4-99c29.7-29.7,62.7-55.2,99-76.4c36.3-21.2,75.3-37.7,117.1-49.5C411.5,15.9,454.9,10,500,10c67.3,0,130.8,12.9,190.6,38.7c59.8,25.8,111.7,60.8,155.8,104.9c44.1,44.1,79.1,96,104.9,155.8C977.1,369.2,990,432.7,990,500c0,45.1-5.9,88.5-17.6,130.3c-11.8,41.8-28.3,80.8-49.5,117.1c-21.2,36.3-46.7,69.3-76.4,99c-29.7,29.7-62.7,55.2-99,76.4c-36.3,21.2-75.3,37.7-117.1,49.5C588.5,984.1,545.1,990,500,990z M736.2,298.1H271.7c-4.6,0-8.5,1.5-11.8,4.4c-3.3,2.9-4.9,7-4.9,12.3v51.9c0,2.6,1,3.9,2.9,3.9l244,139.2l2,1c1.3,0,2.3-0.3,2.9-1L743,370.6c1.3-0.7,2.3-1,2.9-1c0.6,0,1.6-0.3,2.9-1c2.6,0,3.9-1.3,3.9-3.9v-50c0-5.2-1.6-9.3-4.9-12.3C744.7,299.6,740.8,298.1,736.2,298.1z M403,506.9c0.7-0.7,1-1.6,1-2.9c0-2-0.7-2.9-2-2.9l-140.1-80.4c-2-0.7-3.6-0.7-4.9,0c-1.3,0-2,1-2,2.9v210.7c0,2,1,3.3,2.9,3.9h2c1.3,0,2-0.3,2-1L403,506.9z M573.5,522.5c-0.7-2-2.3-2.3-4.9-1l-53.9,31.4c-6.5,3.9-13.4,3.9-20.6,0l-47-26.5c-2-1.3-3.6-1.3-4.9,0L262.8,693.1c-0.7,0.6-1,2-1,3.9c0,0.7,0.7,1.6,2,2.9c3.9,1.3,6.5,2,7.8,2h459.6c1.3,0,2.6-0.7,3.9-2c0-2.6-0.3-4.2-1-4.9L573.5,522.5z M749.9,416.7H746l-133.3,79.4c-1.3,0-2,1-2,2.9c-0.7,0.7-0.3,1.6,1,2.9L745,646c1.3,1.3,2.3,2,2.9,2h2c2-2,2.9-3.3,2.9-3.9V420.6C752.8,419.3,751.9,418,749.9,416.7z"/></g></g><g></g><g></g><g></g><g></g><g></g><g></g><g></g><g></g><g></g><g></g><g></g><g></g><g></g><g></g><g></g></g>
</svg>